Director-Light.ufo
<glyph name="exclam" format="2">
	<advance width="700"/>
	<unicode hex="0021"/>
	<outline>
		<contour>
			<point x="365" y="225" type="curve" smooth="yes"/>
			<point x="390" y="661" type="line" smooth="yes"/>
			<point x="392" y="700"/>
			<point x="377" y="730"/>
			<point x="339" y="729" type="curve" smooth="yes"/>
			<point x="301" y="728"/>
			<point x="286" y="698"/>
			<point x="290" y="659" type="curve" smooth="yes"/>
			<point x="335" y="224" type="line" smooth="yes"/>
			<point x="337" y="209"/>
			<point x="346" y="207"/>
			<point x="350" y="207" type="curve" smooth="yes"/>
			<point x="354" y="207"/>
			<point x="364" y="209"/>
		</contour>
		<contour>
			<point x="352" y="-1" type="curve" smooth="yes"/>
			<point x="380" y="0"/>
			<point x="404" y="23"/>
			<point x="403" y="53" type="curve" smooth="yes"/>
			<point x="403" y="83"/>
			<point x="378" y="106"/>
			<point x="350" y="105" type="curve" smooth="yes"/>
			<point x="321" y="105"/>
			<point x="298" y="81"/>
			<point x="298" y="51" type="curve" smooth="yes"/>
			<point x="299" y="21"/>
			<point x="323" y="-1"/>
		</contour>
	</outline>
</glyph>
<glyph name="quotedbl" format="2">
	<advance width="700"/>
	<unicode hex="0022"/>
	<outline>
		<contour>
			<point x="209" y="657" type="curve" smooth="yes"/>
			<point x="240" y="390" type="line" smooth="yes"/>
			<point x="242" y="373"/>
			<point x="248" y="367"/>
			<point x="257" y="367" type="curve" smooth="yes"/>
			<point x="266" y="367"/>
			<point x="272" y="374"/>
			<point x="274" y="391" type="curve" smooth="yes"/>
			<point x="294" y="658" type="line" smooth="yes"/>
			<point x="297" y="704"/>
			<point x="287" y="726"/>
			<point x="251" y="726" type="curve" smooth="yes"/>
			<point x="214" y="725"/>
			<point x="204" y="698"/>
		</contour>
		<contour>
			<point x="409" y="660" type="curve" smooth="yes"/>
			<point x="440" y="394" type="line" smooth="yes"/>
			<point x="442" y="377"/>
			<point x="448" y="370"/>
			<point x="457" y="370" type="curve" smooth="yes"/>
			<point x="466" y="370"/>
			<point x="472" y="378"/>
			<point x="474" y="395" type="curve" smooth="yes"/>
			<point x="494" y="662" type="line" smooth="yes"/>
			<point x="497" y="707"/>
			<point x="487" y="730"/>
			<point x="451" y="729" type="curve" smooth="yes"/>
			<point x="414" y="729"/>
			<point x="404" y="701"/>
		</contour>
	</outline>
</glyph>
<glyph name="numbersign" format="2">
	<advance width="700"/>
	<unicode hex="0023"/>
	<outline>
		<contour>
			<point x="285" y="479" type="line"/>
			<point x="316" y="704" type="line" smooth="yes"/>
			<point x="318" y="715"/>
			<point x="319" y="723"/>
			<point x="312" y="728" type="curve" smooth="yes"/>
			<point x="305" y="733"/>
			<point x="293" y="729"/>
			<point x="291" y="718" type="curve" smooth="yes"/>
			<point x="258" y="479" type="line"/>
			<point x="138" y="478" type="line" smooth="yes"/>
			<point x="127" y="478"/>
			<point x="120" y="472"/>
			<point x="120" y="463" type="curve" smooth="yes"/>
			<point x="120" y="454"/>
			<point x="127" y="448"/>
			<point x="138" y="448" type="curve" smooth="yes"/>
			<point x="254" y="448" type="line"/>
			<point x="229" y="275" type="line"/>
			<point x="108" y="274" type="line" smooth="yes"/>
			<point x="97" y="274"/>
			<point x="90" y="268"/>
			<point x="90" y="259" type="curve" smooth="yes"/>
			<point x="90" y="250"/>
			<point x="97" y="244"/>
			<point x="108" y="244" type="curve" smooth="yes"/>
			<point x="225" y="244" type="line"/>
			<point x="195" y="26" type="line" smooth="yes"/>
			<point x="193" y="15"/>
			<point x="193" y="7"/>
			<point x="199" y="3" type="curve" smooth="yes"/>
			<point x="207" y="-2"/>
			<point x="219" y="-2"/>
			<point x="221" y="11" type="curve" smooth="yes"/>
			<point x="253" y="245" type="line"/>
			<point x="428" y="245" type="line"/>
			<point x="398" y="26" type="line" smooth="yes"/>
			<point x="396" y="15"/>
			<point x="396" y="7"/>
			<point x="402" y="3" type="curve" smooth="yes"/>
			<point x="410" y="-2"/>
			<point x="422" y="-2"/>
			<point x="424" y="11" type="curve" smooth="yes"/>
			<point x="456" y="245" type="line"/>
			<point x="582" y="246" type="line" smooth="yes"/>
			<point x="593" y="246"/>
			<point x="600" y="252"/>
			<point x="600" y="261" type="curve" smooth="yes"/>
			<point x="600" y="270"/>
			<point x="592" y="276"/>
			<point x="581" y="276" type="curve" smooth="yes"/>
			<point x="460" y="275" type="line"/>
			<point x="484" y="449" type="line"/>
			<point x="612" y="450" type="line" smooth="yes"/>
			<point x="623" y="450"/>
			<point x="630" y="456"/>
			<point x="630" y="465" type="curve" smooth="yes"/>
			<point x="630" y="474"/>
			<point x="622" y="480"/>
			<point x="611" y="480" type="curve" smooth="yes"/>
			<point x="488" y="479" type="line"/>
			<point x="519" y="704" type="line" smooth="yes"/>
			<point x="521" y="715"/>
			<point x="522" y="723"/>
			<point x="515" y="728" type="curve" smooth="yes"/>
			<point x="508" y="733"/>
			<point x="496" y="729"/>
			<point x="494" y="718" type="curve" smooth="yes"/>
			<point x="461" y="479" type="line"/>
		</contour>
		<contour>
			<point x="257" y="275" type="line"/>
			<point x="281" y="449" type="line"/>
			<point x="457" y="449" type="line"/>
			<point x="433" y="275" type="line"/>
		</contour>
	</outline>
</glyph>
<glyph name="dollar" format="2">
	<advance width="700"/>
	<unicode hex="0024"/>
	<outline>
		<contour>
			<point x="199" y="579" type="curve" smooth="yes"/>
			<point x="199" y="648"/>
			<point x="237" y="705"/>
			<point x="337" y="705" type="curve" smooth="yes"/>
			<point x="449" y="705"/>
			<point x="514" y="611"/>
			<point x="550" y="527" type="curve" smooth="yes"/>
			<point x="556" y="513"/>
			<point x="559" y="488"/>
			<point x="576" y="488" type="curve" smooth="yes"/>
			<point x="584" y="488"/>
			<point x="590" y="494"/>
			<point x="590" y="505" type="curve" smooth="yes"/>
			<point x="590" y="554" type="line"/>
			<point x="590" y="723" type="line" smooth="yes"/>
			<point x="590" y="734"/>
			<point x="583" y="741"/>
			<point x="575" y="741" type="curve" smooth="yes"/>
			<point x="567" y="741"/>
			<point x="560" y="735"/>
			<point x="560" y="723" type="curve" smooth="yes"/>
			<point x="560" y="565" type="line"/>
			<point x="529" y="641"/>
			<point x="458" y="735"/>
			<point x="337" y="735" type="curve" smooth="yes"/>
			<point x="218" y="735"/>
			<point x="136" y="657"/>
			<point x="136" y="550" type="curve" smooth="yes"/>
			<point x="136" y="426"/>
			<point x="220" y="385"/>
			<point x="337" y="343" type="curve"/>
			<point x="434" y="308"/>
			<point x="547" y="268"/>
			<point x="547" y="169" type="curve" smooth="yes"/>
			<point x="547" y="75"/>
			<point x="486" y="20"/>
			<point x="388" y="20" type="curve" smooth="yes"/>
			<point x="267" y="20"/>
			<point x="168" y="149"/>
			<point x="159" y="251" type="curve" smooth="yes"/>
			<point x="157" y="275" type="line" smooth="yes"/>
			<point x="156" y="284"/>
			<point x="151" y="291"/>
			<point x="142" y="291" type="curve" smooth="yes"/>
			<point x="133" y="291"/>
			<point x="127" y="284"/>
			<point x="127" y="275" type="curve" smooth="yes"/>
			<point x="127" y="17" type="line" smooth="yes"/>
			<point x="127" y="6"/>
			<point x="133" y="0"/>
			<point x="142" y="0" type="curve" smooth="yes"/>
			<point x="151" y="0"/>
			<point x="157" y="6"/>
			<point x="157" y="17" type="curve"/>
			<point x="157" y="162" type="line"/>
			<point x="178" y="88"/>
			<point x="262" y="-10"/>
			<point x="388" y="-10" type="curve" smooth="yes"/>
			<point x="489" y="-10"/>
			<point x="605" y="34"/>
			<point x="605" y="193" type="curve" smooth="yes"/>
			<point x="605" y="330"/>
			<point x="506" y="364"/>
			<point x="386" y="416" type="curve" smooth="yes"/>
			<point x="305" y="451"/>
			<point x="199" y="474"/>
		</contour>
		<contour>
			<point x="337" y="-87" type="curve" smooth="yes"/>
			<point x="337" y="801" type="line" smooth="yes"/>
			<point x="337" y="812"/>
			<point x="331" y="818"/>
			<point x="322" y="818" type="curve" smooth="yes"/>
			<point x="313" y="818"/>
			<point x="307" y="812"/>
			<point x="307" y="801" type="curve" smooth="yes"/>
			<point x="307" y="-87" type="line" smooth="yes"/>
			<point x="307" y="-98"/>
			<point x="313" y="-104"/>
			<point x="322" y="-104" type="curve" smooth="yes"/>
			<point x="331" y="-104"/>
			<point x="337" y="-98"/>
		</contour>
		<contour>
			<point x="437" y="-87" type="curve" smooth="yes"/>
			<point x="437" y="801" type="line" smooth="yes"/>
			<point x="437" y="812"/>
			<point x="431" y="818"/>
			<point x="422" y="818" type="curve" smooth="yes"/>
			<point x="413" y="818"/>
			<point x="407" y="812"/>
			<point x="407" y="801" type="curve" smooth="yes"/>
			<point x="407" y="-87" type="line" smooth="yes"/>
			<point x="407" y="-98"/>
			<point x="413" y="-104"/>
			<point x="422" y="-104" type="curve" smooth="yes"/>
			<point x="431" y="-104"/>
			<point x="437" y="-98"/>
		</contour>
	</outline>
</glyph>
<glyph name="percent" format="2">
	<advance width="700"/>
	<unicode hex="0025"/>
	<outline>
		<contour>
			<point x="93" y="555" type="curve" smooth="yes"/>
			<point x="62" y="472"/>
			<point x="84" y="390"/>
			<point x="141" y="370" type="curve" smooth="yes"/>
			<point x="198" y="350"/>
			<point x="268" y="400"/>
			<point x="298" y="482" type="curve" smooth="yes"/>
			<point x="327" y="562"/>
			<point x="307" y="641"/>
			<point x="255" y="664" type="curve"/>
			<point x="295" y="679"/>
			<point x="351" y="703"/>
			<point x="425" y="753" type="curve" smooth="yes"/>
			<point x="481" y="791"/>
			<point x="521" y="829"/>
			<point x="555" y="833" type="curve"/>
			<point x="116" y="-106" type="line"/>
			<point x="110" y="-116"/>
			<point x="112" y="-124"/>
			<point x="120" y="-129" type="curve" smooth="yes"/>
			<point x="127" y="-133"/>
			<point x="136" y="-131"/>
			<point x="142" y="-121" type="curve"/>
			<point x="585" y="829" type="line"/>
			<point x="591" y="839"/>
			<point x="590" y="848"/>
			<point x="581" y="853" type="curve" smooth="yes"/>
			<point x="548" y="873"/>
			<point x="501" y="836"/>
			<point x="441" y="793" type="curve" smooth="yes"/>
			<point x="317" y="703"/>
			<point x="219" y="679"/>
			<point x="188" y="663" type="curve"/>
			<point x="149" y="648"/>
			<point x="113" y="608"/>
		</contour>
		<contour>
			<point x="121" y="544" type="curve" smooth="yes"/>
			<point x="147" y="612"/>
			<point x="196" y="661"/>
			<point x="242" y="642" type="curve" smooth="yes"/>
			<point x="286" y="624"/>
			<point x="295" y="561"/>
			<point x="270" y="492" type="curve" smooth="yes"/>
			<point x="245" y="423"/>
			<point x="194" y="373"/>
			<point x="149" y="391" type="curve" smooth="yes"/>
			<point x="105" y="409"/>
			<point x="94" y="473"/>
		</contour>
		<contour>
			<point x="383" y="206" type="curve" smooth="yes"/>
			<point x="352" y="123"/>
			<point x="374" y="41"/>
			<point x="431" y="21" type="curve" smooth="yes"/>
			<point x="488" y="1"/>
			<point x="558" y="51"/>
			<point x="588" y="133" type="curve" smooth="yes"/>
			<point x="618" y="215"/>
			<point x="596" y="297"/>
			<point x="540" y="317" type="curve" smooth="yes"/>
			<point x="483" y="337"/>
			<point x="413" y="287"/>
		</contour>
		<contour>
			<point x="411" y="195" type="curve" smooth="yes"/>
			<point x="437" y="263"/>
			<point x="486" y="312"/>
			<point x="532" y="293" type="curve" smooth="yes"/>
			<point x="576" y="275"/>
			<point x="585" y="212"/>
			<point x="560" y="143" type="curve" smooth="yes"/>
			<point x="535" y="74"/>
			<point x="484" y="24"/>
			<point x="439" y="42" type="curve" smooth="yes"/>
			<point x="395" y="60"/>
			<point x="384" y="124"/>
		</contour>
	</outline>
</glyph>
<glyph name="ampersand" format="2">
	<advance width="700"/>
	<unicode hex="0026"/>
	<outline>
		<contour>
			<point x="562" y="495" type="curve" smooth="yes"/>
			<point x="487" y="492"/>
			<point x="462" y="417"/>
			<point x="422" y="303" type="curve" smooth="yes"/>
			<point x="407" y="260" type="line"/>
			<point x="316" y="420" type="line"/>
			<point x="399" y="475"/>
			<point x="446" y="530"/>
			<point x="446" y="606" type="curve" smooth="yes"/>
			<point x="446" y="665"/>
			<point x="423" y="730"/>
			<point x="321" y="730" type="curve" smooth="yes"/>
			<point x="234" y="730"/>
			<point x="177" y="667"/>
			<point x="177" y="583" type="curve" smooth="yes"/>
			<point x="177" y="531"/>
			<point x="192" y="487"/>
			<point x="235" y="411" type="curve"/>
			<point x="140" y="362"/>
			<point x="44" y="281"/>
			<point x="44" y="175" type="curve" smooth="yes"/>
			<point x="44" y="63"/>
			<point x="105" y="0"/>
			<point x="202" y="0" type="curve" smooth="yes"/>
			<point x="287" y="0"/>
			<point x="347" y="68"/>
			<point x="388" y="144" type="curve"/>
			<point x="420" y="87" type="line" smooth="yes"/>
			<point x="465" y="8"/>
			<point x="507" y="0"/>
			<point x="536" y="0" type="curve" smooth="yes"/>
			<point x="603" y="0"/>
			<point x="626" y="51"/>
			<point x="645" y="101" type="curve" smooth="yes"/>
			<point x="663" y="148"/>
			<point x="667" y="165"/>
			<point x="659" y="171" type="curve" smooth="yes"/>
			<point x="650" y="177"/>
			<point x="643" y="173"/>
			<point x="637" y="158" type="curve" smooth="yes"/>
			<point x="619" y="114"/>
			<point x="598" y="42"/>
			<point x="557" y="42" type="curve" smooth="yes"/>
			<point x="531" y="42"/>
			<point x="493" y="108"/>
			<point x="471" y="147" type="curve" smooth="yes"/>
			<point x="425" y="228" type="line"/>
			<point x="435" y="255" type="line" smooth="yes"/>
			<point x="462" y="333"/>
			<point x="495" y="469"/>
			<point x="562" y="470" type="curve" smooth="yes"/>
			<point x="600" y="471"/>
			<point x="617" y="444"/>
			<point x="616" y="430" type="curve"/>
			<point x="579" y="432"/>
			<point x="565" y="412"/>
			<point x="560" y="394" type="curve" smooth="yes"/>
			<point x="555" y="377"/>
			<point x="561" y="334"/>
			<point x="600" y="328" type="curve" smooth="yes"/>
			<point x="702" y="313"/>
			<point x="684" y="500"/>
		</contour>
		<contour>
			<point x="247" y="582" type="curve" smooth="yes"/>
			<point x="247" y="668"/>
			<point x="282" y="704"/>
			<point x="340" y="704" type="curve" smooth="yes"/>
			<point x="353" y="704"/>
			<point x="415" y="700"/>
			<point x="415" y="607" type="curve" smooth="yes"/>
			<point x="415" y="555"/>
			<point x="386" y="505"/>
			<point x="301" y="445" type="curve"/>
			<point x="259" y="520"/>
			<point x="247" y="546"/>
		</contour>
		<contour>
			<point x="120" y="178" type="curve" smooth="yes"/>
			<point x="120" y="251"/>
			<point x="157" y="329"/>
			<point x="249" y="387" type="curve"/>
			<point x="371" y="173" type="line"/>
			<point x="338" y="104"/>
			<point x="291" y="41"/>
			<point x="224" y="40" type="curve" smooth="yes"/>
			<point x="160" y="39"/>
			<point x="120" y="103"/>
		</contour>
	</outline>
</glyph>
<glyph name="quotesingle" format="2">
	<advance width="700"/>
	<unicode hex="0027"/>
	<outline>
		<contour>
			<point x="249" y="660" type="curve" smooth="yes"/>
			<point x="280" y="394" type="line" smooth="yes"/>
			<point x="282" y="377"/>
			<point x="288" y="370"/>
			<point x="297" y="370" type="curve" smooth="yes"/>
			<point x="306" y="370"/>
			<point x="312" y="378"/>
			<point x="314" y="395" type="curve" smooth="yes"/>
			<point x="334" y="662" type="line" smooth="yes"/>
			<point x="337" y="707"/>
			<point x="327" y="730"/>
			<point x="291" y="729" type="curve" smooth="yes"/>
			<point x="254" y="729"/>
			<point x="244" y="701"/>
		</contour>
	</outline>
</glyph>
<glyph name="parenleft" format="2">
	<advance width="700"/>
	<unicode hex="0028"/>
	<outline>
		<contour>
			<point x="240" y="362" type="curve" smooth="yes"/>
			<point x="239" y="522"/>
			<point x="299" y="644"/>
			<point x="364" y="739" type="curve" smooth="yes"/>
			<point x="418" y="817" type="line" smooth="yes"/>
			<point x="427" y="831"/>
			<point x="431" y="842"/>
			<point x="423" y="850" type="curve" smooth="yes"/>
			<point x="417" y="856"/>
			<point x="405" y="856"/>
			<point x="384" y="836" type="curve"/>
			<point x="285" y="735"/>
			<point x="162" y="581"/>
			<point x="166" y="360" type="curve" smooth="yes"/>
			<point x="169" y="139"/>
			<point x="298" y="-11"/>
			<point x="401" y="-108" type="curve"/>
			<point x="422" y="-127"/>
			<point x="434" y="-126"/>
			<point x="440" y="-120" type="curve" smooth="yes"/>
			<point x="448" y="-112"/>
			<point x="444" y="-101"/>
			<point x="433" y="-87" type="curve" smooth="yes"/>
			<point x="377" y="-11" type="line" smooth="yes"/>
			<point x="308" y="82"/>
			<point x="242" y="202"/>
		</contour>
	</outline>
</glyph>
<glyph name="parenright" format="2">
	<advance width="700"/>
	<unicode hex="0029"/>
	<outline>
		<contour>
			<point x="443" y="364" type="curve" smooth="yes"/>
			<point x="447" y="204"/>
			<point x="385" y="82"/>
			<point x="320" y="-14" type="curve" smooth="yes"/>
			<point x="266" y="-92" type="line" smooth="yes"/>
			<point x="257" y="-106"/>
			<point x="253" y="-117"/>
			<point x="261" y="-125" type="curve" smooth="yes"/>
			<point x="267" y="-131"/>
			<point x="279" y="-131"/>
			<point x="300" y="-111" type="curve"/>
			<point x="399" y="-10"/>
			<point x="522" y="144"/>
			<point x="518" y="365" type="curve" smooth="yes"/>
			<point x="515" y="586"/>
			<point x="386" y="736"/>
			<point x="283" y="833" type="curve"/>
			<point x="262" y="853"/>
			<point x="250" y="851"/>
			<point x="244" y="845" type="curve" smooth="yes"/>
			<point x="236" y="837"/>
			<point x="240" y="826"/>
			<point x="251" y="812" type="curve" smooth="yes"/>
			<point x="307" y="736" type="line" smooth="yes"/>
			<point x="376" y="643"/>
			<point x="442" y="524"/>
		</contour>
	</outline>
</glyph>
<glyph name="asterisk" format="2">
	<advance width="700"/>
	<unicode hex="002A"/>
	<outline>
		<contour>
			<point x="113" y="472" type="curve" smooth="yes"/>
			<point x="113" y="463"/>
			<point x="121" y="457"/>
			<point x="132" y="457" type="curve" smooth="yes"/>
			<point x="322" y="456" type="line"/>
			<point x="225" y="281" type="line" smooth="yes"/>
			<point x="219" y="271"/>
			<point x="221" y="263"/>
			<point x="229" y="258" type="curve" smooth="yes"/>
			<point x="236" y="254"/>
			<point x="245" y="256"/>
			<point x="251" y="266" type="curve" smooth="yes"/>
			<point x="347" y="441" type="line"/>
			<point x="450" y="270" type="line" smooth="yes"/>
			<point x="456" y="260"/>
			<point x="465" y="258"/>
			<point x="472" y="262" type="curve" smooth="yes"/>
			<point x="480" y="267"/>
			<point x="482" y="275"/>
			<point x="476" y="285" type="curve" smooth="yes"/>
			<point x="373" y="457" type="line"/>
			<point x="554" y="457" type="line" smooth="yes"/>
			<point x="565" y="457"/>
			<point x="571" y="463"/>
			<point x="571" y="472" type="curve" smooth="yes"/>
			<point x="571" y="481"/>
			<point x="564" y="487"/>
			<point x="553" y="487" type="curve" smooth="yes"/>
			<point x="372" y="487" type="line"/>
			<point x="456" y="639" type="line" smooth="yes"/>
			<point x="462" y="649"/>
			<point x="461" y="658"/>
			<point x="452" y="663" type="curve" smooth="yes"/>
			<point x="445" y="667"/>
			<point x="436" y="664"/>
			<point x="431" y="653" type="curve"/>
			<point x="346" y="500" type="line"/>
			<point x="256" y="650" type="line" smooth="yes"/>
			<point x="251" y="660"/>
			<point x="242" y="663"/>
			<point x="235" y="659" type="curve" smooth="yes"/>
			<point x="226" y="654"/>
			<point x="225" y="645"/>
			<point x="231" y="635" type="curve" smooth="yes"/>
			<point x="321" y="486" type="line"/>
			<point x="131" y="487" type="line" smooth="yes"/>
			<point x="120" y="487"/>
			<point x="113" y="481"/>
		</contour>
	</outline>
</glyph>
<glyph name="plus" format="2">
	<advance width="700"/>
	<unicode hex="002B"/>
	<outline>
		<contour>
			<point x="124" y="272" type="curve" smooth="yes"/>
			<point x="335" y="272" type="line"/>
			<point x="335" y="480" type="line" smooth="yes"/>
			<point x="335" y="491"/>
			<point x="341" y="498"/>
			<point x="350" y="498" type="curve" smooth="yes"/>
			<point x="359" y="498"/>
			<point x="365" y="491"/>
			<point x="365" y="480" type="curve" smooth="yes"/>
			<point x="365" y="272" type="line"/>
			<point x="576" y="272" type="line" smooth="yes"/>
			<point x="587" y="272"/>
			<point x="594" y="266"/>
			<point x="594" y="257" type="curve" smooth="yes"/>
			<point x="594" y="248"/>
			<point x="587" y="242"/>
			<point x="576" y="242" type="curve" smooth="yes"/>
			<point x="365" y="242" type="line"/>
			<point x="365" y="28" type="line" smooth="yes"/>
			<point x="365" y="17"/>
			<point x="359" y="10"/>
			<point x="350" y="10" type="curve" smooth="yes"/>
			<point x="341" y="10"/>
			<point x="335" y="17"/>
			<point x="335" y="28" type="curve" smooth="yes"/>
			<point x="335" y="242" type="line"/>
			<point x="124" y="242" type="line" smooth="yes"/>
			<point x="113" y="242"/>
			<point x="106" y="248"/>
			<point x="106" y="257" type="curve" smooth="yes"/>
			<point x="106" y="266"/>
			<point x="113" y="272"/>
		</contour>
	</outline>
</glyph>
<glyph name="hyphen" format="2">
	<advance width="700"/>
	<unicode hex="002D"/>
	<outline>
		<contour>
			<point x="114" y="223" type="curve" smooth="yes"/>
			<point x="586" y="223" type="line" smooth="yes"/>
			<point x="601" y="223"/>
			<point x="613" y="234"/>
			<point x="613" y="248" type="curve" smooth="yes"/>
			<point x="612" y="273" type="line" smooth="yes"/>
			<point x="612" y="287"/>
			<point x="600" y="298"/>
			<point x="585" y="298" type="curve" smooth="yes"/>
			<point x="113" y="298" type="line" smooth="yes"/>
			<point x="98" y="298"/>
			<point x="85" y="287"/>
			<point x="86" y="273" type="curve" smooth="yes"/>
			<point x="87" y="248" type="line" smooth="yes"/>
			<point x="88" y="234"/>
			<point x="99" y="223"/>
		</contour>
	</outline>
</glyph>
<glyph name="period" format="2">
	<advance width="700"/>
	<unicode hex="002E"/>
	<outline>
		<contour>
			<point x="351" y="-11" type="curve" smooth="yes"/>
			<point x="398" y="-11"/>
			<point x="428" y="30"/>
			<point x="428" y="70" type="curve" smooth="yes"/>
			<point x="427" y="109"/>
			<point x="395" y="147"/>
			<point x="348" y="147" type="curve" smooth="yes"/>
			<point x="300" y="146"/>
			<point x="270" y="105"/>
			<point x="271" y="67" type="curve" smooth="yes"/>
			<point x="271" y="27"/>
			<point x="303" y="-12"/>
		</contour>
	</outline>
</glyph>
<glyph name="slash" format="2">
	<advance width="700"/>
	<unicode hex="002F"/>
	<outline>
		<contour>
			<point x="586" y="843" type="curve"/>
			<point x="142" y="-106" type="line"/>
			<point x="136" y="-116"/>
			<point x="138" y="-124"/>
			<point x="146" y="-129" type="curve" smooth="yes"/>
			<point x="153" y="-133"/>
			<point x="162" y="-131"/>
			<point x="168" y="-121" type="curve"/>
			<point x="611" y="829" type="line"/>
			<point x="617" y="839"/>
			<point x="616" y="848"/>
			<point x="607" y="853" type="curve" smooth="yes"/>
			<point x="600" y="857"/>
			<point x="591" y="853"/>
		</contour>
	</outline>
</glyph>
<glyph name="one" format="2">
	<advance width="700"/>
	<unicode hex="0031"/>
	<outline>
		<contour>
			<point x="441" y="707" type="line" smooth="yes"/>
			<point x="441" y="723"/>
			<point x="436" y="730"/>
			<point x="425" y="730" type="curve" smooth="yes"/>
			<point x="402" y="730"/>
			<point x="405" y="700"/>
			<point x="266" y="602" type="curve" smooth="yes"/>
			<point x="149" y="520" type="line" smooth="yes"/>
			<point x="136" y="511"/>
			<point x="130" y="501"/>
			<point x="138" y="491" type="curve" smooth="yes"/>
			<point x="144" y="483"/>
			<point x="156" y="484"/>
			<point x="168" y="491" type="curve" smooth="yes"/>
			<point x="234" y="532"/>
			<point x="361" y="627"/>
			<point x="361" y="627" type="curve" smooth="yes"/>
			<point x="361" y="22" type="line"/>
			<point x="361" y="5"/>
			<point x="367" y="0"/>
			<point x="381" y="0" type="curve"/>
			<point x="421" y="0" type="line" smooth="yes"/>
			<point x="435" y="0"/>
			<point x="441" y="5"/>
			<point x="441" y="22" type="curve"/>
		</contour>
	</outline>
</glyph>
<glyph name="two" format="2">
	<advance width="700"/>
	<unicode hex="0032"/>
	<outline>
		<contour>
			<point x="557" y="27" type="curve" smooth="yes"/>
			<point x="565" y="95" type="line" smooth="yes"/>
			<point x="567" y="112"/>
			<point x="569" y="127"/>
			<point x="554" y="127" type="curve" smooth="yes"/>
			<point x="543" y="127"/>
			<point x="541" y="112"/>
			<point x="535" y="95" type="curve" smooth="yes"/>
			<point x="530" y="80" type="line"/>
			<point x="182" y="80" type="line"/>
			<point x="182" y="193"/>
			<point x="307" y="253"/>
			<point x="424" y="341" type="curve" smooth="yes"/>
			<point x="531" y="421"/>
			<point x="556" y="494"/>
			<point x="557" y="560" type="curve" smooth="yes"/>
			<point x="558" y="642"/>
			<point x="513" y="730"/>
			<point x="359" y="730" type="curve" smooth="yes"/>
			<point x="279" y="730"/>
			<point x="207" y="675"/>
			<point x="180" y="648" type="curve"/>
			<point x="144" y="608"/>
			<point x="104" y="559"/>
			<point x="134" y="547" type="curve" smooth="yes"/>
			<point x="143" y="543"/>
			<point x="154" y="551"/>
			<point x="167" y="571" type="curve" smooth="yes"/>
			<point x="208" y="631"/>
			<point x="269" y="688"/>
			<point x="358" y="687" type="curve" smooth="yes"/>
			<point x="448" y="686"/>
			<point x="480" y="619"/>
			<point x="480" y="555" type="curve" smooth="yes"/>
			<point x="480" y="481"/>
			<point x="413" y="378"/>
			<point x="312" y="308" type="curve" smooth="yes"/>
			<point x="189" y="223"/>
			<point x="118" y="128"/>
			<point x="118" y="31" type="curve" smooth="yes"/>
			<point x="118" y="6"/>
			<point x="134" y="0"/>
			<point x="159" y="0" type="curve" smooth="yes"/>
			<point x="529" y="0" type="line" smooth="yes"/>
			<point x="546" y="0"/>
			<point x="555" y="10"/>
		</contour>
	</outline>
</glyph>
<glyph name="three" format="2">
	<advance width="700"/>
	<unicode hex="0033"/>
	<outline>
		<contour>
			<point x="444" y="564" type="curve" smooth="yes"/>
			<point x="444" y="474"/>
			<point x="333" y="416"/>
			<point x="311" y="407" type="curve" smooth="yes"/>
			<point x="297" y="401"/>
			<point x="279" y="396"/>
			<point x="282" y="380" type="curve" smooth="yes"/>
			<point x="285" y="366"/>
			<point x="301" y="368"/>
			<point x="319" y="371" type="curve" smooth="yes"/>
			<point x="444" y="392"/>
			<point x="506" y="303"/>
			<point x="494" y="221" type="curve" smooth="yes"/>
			<point x="475" y="86"/>
			<point x="355" y="-49"/>
			<point x="188" y="-55" type="curve" smooth="yes"/>
			<point x="161" y="-56"/>
			<point x="131" y="-47"/>
			<point x="134" y="-73" type="curve" smooth="yes"/>
			<point x="135" y="-83"/>
			<point x="148" y="-88"/>
			<point x="170" y="-89" type="curve" smooth="yes"/>
			<point x="441" y="-101"/>
			<point x="631" y="143"/>
			<point x="565" y="316" type="curve" smooth="yes"/>
			<point x="528" y="414"/>
			<point x="417" y="420"/>
			<point x="397" y="415" type="curve"/>
			<point x="448" y="431"/>
			<point x="540" y="524"/>
			<point x="515" y="621" type="curve" smooth="yes"/>
			<point x="498" y="686"/>
			<point x="440" y="730"/>
			<point x="343" y="730" type="curve" smooth="yes"/>
			<point x="266" y="730"/>
			<point x="214" y="698"/>
			<point x="186" y="672" type="curve" smooth="yes"/>
			<point x="155" y="643"/>
			<point x="131" y="615"/>
			<point x="147" y="603" type="curve" smooth="yes"/>
			<point x="155" y="597"/>
			<point x="163" y="600"/>
			<point x="184" y="623" type="curve" smooth="yes"/>
			<point x="282" y="731"/>
			<point x="444" y="706"/>
		</contour>
	</outline>
</glyph>
<glyph name="five" format="2">
	<advance width="700"/>
	<unicode hex="0035"/>
	<outline>
		<contour>
			<point x="537" y="700" type="curve" smooth="yes"/>
			<point x="205" y="700" type="line" smooth="yes"/>
			<point x="185" y="700"/>
			<point x="183" y="692"/>
			<point x="182" y="678" type="curve" smooth="yes"/>
			<point x="165" y="426" type="line"/>
			<point x="164" y="401"/>
			<point x="159" y="383"/>
			<point x="177" y="377" type="curve" smooth="yes"/>
			<point x="190" y="373"/>
			<point x="217" y="393"/>
			<point x="266" y="414" type="curve" smooth="yes"/>
			<point x="524" y="525"/>
			<point x="598" y="6"/>
			<point x="206" y="-57" type="curve" smooth="yes"/>
			<point x="181" y="-61"/>
			<point x="169" y="-59"/>
			<point x="170" y="-76" type="curve" smooth="yes"/>
			<point x="171" y="-100"/>
			<point x="257" y="-82"/>
			<point x="301" y="-69" type="curve" smooth="yes"/>
			<point x="437" y="-29"/>
			<point x="560" y="127"/>
			<point x="560" y="274" type="curve" smooth="yes"/>
			<point x="560" y="465"/>
			<point x="367" y="508"/>
			<point x="197" y="414" type="curve"/>
			<point x="209" y="630" type="line"/>
			<point x="532" y="630" type="line" smooth="yes"/>
			<point x="542" y="630"/>
			<point x="552" y="632"/>
			<point x="554" y="649" type="curve" smooth="yes"/>
			<point x="557" y="681" type="line" smooth="yes"/>
			<point x="559" y="701"/>
			<point x="547" y="700"/>
		</contour>
	</outline>
</glyph>
<glyph name="six" format="2">
	<advance width="700"/>
	<unicode hex="0036"/>
	<outline>
		<contour>
			<point x="110" y="419" type="curve" smooth="yes"/>
			<point x="97" y="185"/>
			<point x="220" y="75"/>
			<point x="359" y="75" type="curve" smooth="yes"/>
			<point x="492" y="75"/>
			<point x="593" y="164"/>
			<point x="593" y="309" type="curve" smooth="yes"/>
			<point x="593" y="447"/>
			<point x="495" y="519"/>
			<point x="386" y="519" type="curve" smooth="yes"/>
			<point x="317" y="519"/>
			<point x="263" y="491"/>
			<point x="190" y="415" type="curve"/>
			<point x="192" y="573"/>
			<point x="274" y="793"/>
			<point x="468" y="829" type="curve" smooth="yes"/>
			<point x="495" y="834"/>
			<point x="509" y="832"/>
			<point x="509" y="848" type="curve" smooth="yes"/>
			<point x="509" y="862"/>
			<point x="490" y="862"/>
			<point x="468" y="859" type="curve" smooth="yes"/>
			<point x="280" y="833"/>
			<point x="121" y="613"/>
		</contour>
		<contour>
			<point x="191" y="369" type="curve"/>
			<point x="259" y="451"/>
			<point x="322" y="489"/>
			<point x="370" y="489" type="curve" smooth="yes"/>
			<point x="468" y="489"/>
			<point x="519" y="385"/>
			<point x="518" y="296" type="curve" smooth="yes"/>
			<point x="517" y="194"/>
			<point x="460" y="105"/>
			<point x="370" y="105" type="curve" smooth="yes"/>
			<point x="275" y="105"/>
			<point x="201" y="189"/>
		</contour>
	</outline>
</glyph>
<glyph name="seven" format="2">
	<advance width="700"/>
	<unicode hex="0037"/>
	<outline>
		<contour>
			<point x="93" y="700" type="line" smooth="yes"/>
			<point x="81" y="700"/>
			<point x="79" y="693"/>
			<point x="78" y="683" type="curve" smooth="yes"/>
			<point x="71" y="551" type="line" smooth="yes"/>
			<point x="70" y="535"/>
			<point x="72" y="525"/>
			<point x="84" y="524" type="curve" smooth="yes"/>
			<point x="96" y="523"/>
			<point x="99" y="532"/>
			<point x="102" y="550" type="curve" smooth="yes"/>
			<point x="115" y="630" type="line"/>
			<point x="497" y="630" type="line"/>
			<point x="359" y="495"/>
			<point x="235" y="163"/>
			<point x="235" y="-6" type="curve" smooth="yes"/>
			<point x="235" y="-81"/>
			<point x="256" y="-90"/>
			<point x="276" y="-90" type="curve" smooth="yes"/>
			<point x="306" y="-90"/>
			<point x="315" y="-69"/>
			<point x="315" y="-38" type="curve" smooth="yes"/>
			<point x="315" y="417"/>
			<point x="477" y="567"/>
			<point x="539" y="629" type="curve" smooth="yes"/>
			<point x="560" y="650"/>
			<point x="575" y="665"/>
			<point x="574" y="680" type="curve" smooth="yes"/>
			<point x="572" y="704"/>
			<point x="548" y="700"/>
			<point x="527" y="700" type="curve"/>
		</contour>
	</outline>
</glyph>
<glyph name="eight" format="2">
	<advance width="700"/>
	<unicode hex="0038"/>
	<outline>
		<contour>
			<point x="287" y="508" type="curve"/>
			<point x="181" y="472"/>
			<point x="115" y="385"/>
			<point x="115" y="291" type="curve" smooth="yes"/>
			<point x="115" y="179"/>
			<point x="217" y="95"/>
			<point x="344" y="95" type="curve" smooth="yes"/>
			<point x="495" y="95"/>
			<point x="585" y="179"/>
			<point x="585" y="305" type="curve" smooth="yes"/>
			<point x="585" y="400"/>
			<point x="506" y="476"/>
			<point x="399" y="525" type="curve"/>
			<point x="464" y="544"/>
			<point x="544" y="614"/>
			<point x="544" y="710" type="curve" smooth="yes"/>
			<point x="544" y="798"/>
			<point x="483" y="880"/>
			<point x="355" y="880" type="curve" smooth="yes"/>
			<point x="230" y="880"/>
			<point x="151" y="805"/>
			<point x="155" y="688" type="curve" smooth="yes"/>
			<point x="157" y="627"/>
			<point x="209" y="548"/>
		</contour>
		<contour>
			<point x="322" y="487" type="curve"/>
			<point x="467" y="419"/>
			<point x="515" y="349"/>
			<point x="515" y="278" type="curve" smooth="yes"/>
			<point x="515" y="174"/>
			<point x="443" y="122"/>
			<point x="360" y="121" type="curve" smooth="yes"/>
			<point x="273" y="120"/>
			<point x="185" y="182"/>
			<point x="185" y="289" type="curve" smooth="yes"/>
			<point x="185" y="388"/>
			<point x="243" y="462"/>
		</contour>
		<contour>
			<point x="360" y="544" type="curve"/>
			<point x="259" y="606"/>
			<point x="215" y="645"/>
			<point x="215" y="715" type="curve" smooth="yes"/>
			<point x="215" y="787"/>
			<point x="267" y="854"/>
			<point x="351" y="854" type="curve" smooth="yes"/>
			<point x="436" y="854"/>
			<point x="486" y="790"/>
			<point x="486" y="708" type="curve" smooth="yes"/>
			<point x="486" y="629"/>
			<point x="423" y="562"/>
		</contour>
	</outline>
</glyph>
<glyph name="nine" format="2">
	<advance width="700"/>
	<unicode hex="0039"/>
	<outline>
		<contour>
			<point x="104" y="496" type="curve" smooth="yes"/>
			<point x="104" y="358"/>
			<point x="202" y="286"/>
			<point x="311" y="286" type="curve" smooth="yes"/>
			<point x="380" y="286"/>
			<point x="434" y="314"/>
			<point x="507" y="390" type="curve"/>
			<point x="505" y="232"/>
			<point x="423" y="-18"/>
			<point x="229" y="-54" type="curve" smooth="yes"/>
			<point x="202" y="-59"/>
			<point x="188" y="-57"/>
			<point x="188" y="-73" type="curve" smooth="yes"/>
			<point x="188" y="-87"/>
			<point x="207" y="-87"/>
			<point x="229" y="-84" type="curve" smooth="yes"/>
			<point x="417" y="-58"/>
			<point x="576" y="192"/>
			<point x="587" y="386" type="curve" smooth="yes"/>
			<point x="600" y="620"/>
			<point x="477" y="730"/>
			<point x="338" y="730" type="curve" smooth="yes"/>
			<point x="205" y="730"/>
			<point x="104" y="641"/>
		</contour>
		<contour>
			<point x="179" y="509" type="curve" smooth="yes"/>
			<point x="180" y="611"/>
			<point x="237" y="700"/>
			<point x="327" y="700" type="curve" smooth="yes"/>
			<point x="422" y="700"/>
			<point x="496" y="616"/>
			<point x="506" y="436" type="curve"/>
			<point x="438" y="354"/>
			<point x="375" y="316"/>
			<point x="327" y="316" type="curve" smooth="yes"/>
			<point x="229" y="316"/>
			<point x="178" y="420"/>
		</contour>
	</outline>
</glyph>
<glyph name="colon" format="2">
	<advance width="700"/>
	<unicode hex="003A"/>
	<outline>
		<contour>
			<point x="344" y="317" type="curve" smooth="yes"/>
			<point x="391" y="317"/>
			<point x="422" y="358"/>
			<point x="421" y="398" type="curve" smooth="yes"/>
			<point x="420" y="437"/>
			<point x="389" y="475"/>
			<point x="342" y="475" type="curve" smooth="yes"/>
			<point x="294" y="474"/>
			<point x="263" y="433"/>
			<point x="264" y="395" type="curve" smooth="yes"/>
			<point x="265" y="355"/>
			<point x="296" y="316"/>
		</contour>
		<contour>
			<point x="350" y="-11" type="curve" smooth="yes"/>
			<point x="397" y="-11"/>
			<point x="427" y="30"/>
			<point x="427" y="70" type="curve" smooth="yes"/>
			<point x="426" y="109"/>
			<point x="394" y="147"/>
			<point x="347" y="147" type="curve" smooth="yes"/>
			<point x="299" y="146"/>
			<point x="269" y="105"/>
			<point x="270" y="67" type="curve" smooth="yes"/>
			<point x="270" y="27"/>
			<point x="302" y="-12"/>
		</contour>
	</outline>
</glyph>
<glyph name="semicolon" format="2">
	<advance width="700"/>
	<unicode hex="003B"/>
	<outline>
		<contour>
			<point x="337" y="316" type="curve" smooth="yes"/>
			<point x="384" y="317"/>
			<point x="415" y="358"/>
			<point x="414" y="398" type="curve" smooth="yes"/>
			<point x="413" y="437"/>
			<point x="382" y="475"/>
			<point x="335" y="474" type="curve" smooth="yes"/>
			<point x="287" y="473"/>
			<point x="256" y="433"/>
			<point x="257" y="395" type="curve" smooth="yes"/>
			<point x="258" y="355"/>
			<point x="289" y="316"/>
		</contour>
		<contour>
			<point x="432" y="52" type="curve" smooth="yes"/>
			<point x="431" y="115"/>
			<point x="384" y="150"/>
			<point x="340" y="149" type="curve" smooth="yes"/>
			<point x="297" y="149"/>
			<point x="262" y="112"/>
			<point x="263" y="69" type="curve" smooth="yes"/>
			<point x="263" y="24"/>
			<point x="299" y="-12"/>
			<point x="343" y="-12" type="curve" smooth="yes"/>
			<point x="352" y="-11"/>
			<point x="372" y="-8"/>
			<point x="382" y="-3" type="curve"/>
			<point x="383" y="-51"/>
			<point x="330" y="-123"/>
			<point x="297" y="-148" type="curve" smooth="yes"/>
			<point x="280" y="-163"/>
			<point x="276" y="-173"/>
			<point x="281" y="-180" type="curve" smooth="yes"/>
			<point x="290" y="-192"/>
			<point x="306" y="-180"/>
			<point x="327" y="-162" type="curve"/>
			<point x="383" y="-117"/>
			<point x="433" y="-21"/>
		</contour>
	</outline>
</glyph>
<glyph name="less" format="2">
	<advance width="700"/>
	<unicode hex="003C"/>
	<outline>
		<contour>
			<point x="193" y="236" type="curve" smooth="yes"/>
			<point x="497" y="111" type="line" smooth="yes"/>
			<point x="513" y="104"/>
			<point x="524" y="101"/>
			<point x="530" y="112" type="curve" smooth="yes"/>
			<point x="537" y="124"/>
			<point x="526" y="131"/>
			<point x="510" y="138" type="curve" smooth="yes"/>
			<point x="206" y="261" type="line"/>
			<point x="510" y="384" type="line" smooth="yes"/>
			<point x="526" y="391"/>
			<point x="537" y="398"/>
			<point x="530" y="410" type="curve" smooth="yes"/>
			<point x="524" y="421"/>
			<point x="513" y="418"/>
			<point x="497" y="411" type="curve" smooth="yes"/>
			<point x="193" y="286" type="line" smooth="yes"/>
			<point x="172" y="277"/>
			<point x="168" y="270"/>
			<point x="168" y="261" type="curve" smooth="yes"/>
			<point x="168" y="252"/>
			<point x="172" y="245"/>
		</contour>
	</outline>
</glyph>
<glyph name="equal" format="2">
	<advance width="700"/>
	<unicode hex="003D"/>
	<outline>
		<contour>
			<point x="576" y="338" type="curve"/>
			<point x="124" y="338" type="line"/>
			<point x="113" y="338"/>
			<point x="106" y="344"/>
			<point x="106" y="353" type="curve" smooth="yes"/>
			<point x="106" y="362"/>
			<point x="113" y="368"/>
			<point x="124" y="368" type="curve"/>
			<point x="576" y="368" type="line"/>
			<point x="587" y="368"/>
			<point x="594" y="362"/>
			<point x="594" y="353" type="curve" smooth="yes"/>
			<point x="594" y="344"/>
			<point x="587" y="338"/>
		</contour>
		<contour>
			<point x="576" y="138" type="curve"/>
			<point x="124" y="138" type="line"/>
			<point x="113" y="138"/>
			<point x="106" y="144"/>
			<point x="106" y="153" type="curve" smooth="yes"/>
			<point x="106" y="162"/>
			<point x="113" y="168"/>
			<point x="124" y="168" type="curve"/>
			<point x="576" y="168" type="line"/>
			<point x="587" y="168"/>
			<point x="594" y="162"/>
			<point x="594" y="153" type="curve" smooth="yes"/>
			<point x="594" y="144"/>
			<point x="587" y="138"/>
		</contour>
	</outline>
</glyph>
<glyph name="greater" format="2">
	<advance width="700"/>
	<unicode hex="003E"/>
	<outline>
		<contour>
			<point x="507" y="236" type="line" smooth="yes"/>
			<point x="528" y="245"/>
			<point x="532" y="252"/>
			<point x="532" y="261" type="curve" smooth="yes"/>
			<point x="532" y="270"/>
			<point x="528" y="277"/>
			<point x="507" y="286" type="curve" smooth="yes"/>
			<point x="203" y="411" type="line" smooth="yes"/>
			<point x="187" y="418"/>
			<point x="176" y="421"/>
			<point x="170" y="410" type="curve" smooth="yes"/>
			<point x="163" y="398"/>
			<point x="174" y="391"/>
			<point x="190" y="384" type="curve" smooth="yes"/>
			<point x="494" y="261" type="line"/>
			<point x="190" y="138" type="line" smooth="yes"/>
			<point x="174" y="131"/>
			<point x="163" y="124"/>
			<point x="170" y="112" type="curve" smooth="yes"/>
			<point x="176" y="101"/>
			<point x="187" y="104"/>
			<point x="203" y="111" type="curve" smooth="yes"/>
		</contour>
	</outline>
</glyph>
<glyph name="question" format="2">
	<advance width="700"/>
	<unicode hex="003F"/>
	<outline>
		<contour>
			<point x="333" y="99" type="curve" smooth="yes"/>
			<point x="306" y="99"/>
			<point x="284" y="76"/>
			<point x="284" y="47" type="curve" smooth="yes"/>
			<point x="284" y="18"/>
			<point x="308" y="-4"/>
			<point x="335" y="-3" type="curve" smooth="yes"/>
			<point x="363" y="-2"/>
			<point x="386" y="20"/>
			<point x="385" y="49" type="curve" smooth="yes"/>
			<point x="384" y="78"/>
			<point x="361" y="99"/>
		</contour>
		<contour>
			<point x="315" y="726" type="curve" smooth="yes"/>
			<point x="418" y="728"/>
			<point x="514" y="677"/>
			<point x="516" y="579" type="curve" smooth="yes"/>
			<point x="518" y="476"/>
			<point x="450" y="449"/>
			<point x="381" y="383" type="curve" smooth="yes"/>
			<point x="346" y="349"/>
			<point x="344" y="323"/>
			<point x="346" y="242" type="curve" smooth="yes"/>
			<point x="346" y="223" type="line" smooth="yes"/>
			<point x="346" y="207"/>
			<point x="335" y="205"/>
			<point x="331" y="205" type="curve" smooth="yes"/>
			<point x="327" y="205"/>
			<point x="316" y="206"/>
			<point x="316" y="221" type="curve" smooth="yes"/>
			<point x="315" y="301" type="line" smooth="yes"/>
			<point x="314" y="355"/>
			<point x="334" y="376"/>
			<point x="366" y="411" type="curve" smooth="yes"/>
			<point x="416" y="468"/>
			<point x="439" y="519"/>
			<point x="438" y="578" type="curve" smooth="yes"/>
			<point x="436" y="661"/>
			<point x="390" y="698"/>
			<point x="315" y="696" type="curve" smooth="yes"/>
			<point x="230" y="695"/>
			<point x="196" y="637"/>
			<point x="190" y="610" type="curve"/>
			<point x="207" y="606"/>
			<point x="231" y="589"/>
			<point x="225" y="553" type="curve" smooth="yes"/>
			<point x="219" y="519"/>
			<point x="193" y="505"/>
			<point x="161" y="513" type="curve" smooth="yes"/>
			<point x="138" y="519"/>
			<point x="127" y="539"/>
			<point x="124" y="561" type="curve" smooth="yes"/>
			<point x="115" y="627"/>
			<point x="180" y="724"/>
		</contour>
	</outline>
</glyph>
<glyph name="at" format="2">
	<advance width="700"/>
	<unicode hex="0040"/>
	<outline>
		<contour>
			<point x="174" y="334" type="curve" smooth="yes"/>
			<point x="158" y="212"/>
			<point x="211" y="134"/>
			<point x="306" y="134" type="curve" smooth="yes"/>
			<point x="365" y="134"/>
			<point x="415" y="163"/>
			<point x="449" y="214" type="curve"/>
			<point x="441" y="153"/>
			<point x="458" y="117"/>
			<point x="518" y="118" type="curve" smooth="yes"/>
			<point x="601" y="119"/>
			<point x="658" y="221"/>
			<point x="658" y="347" type="curve" smooth="yes"/>
			<point x="658" y="543"/>
			<point x="536" y="674"/>
			<point x="349" y="674" type="curve" smooth="yes"/>
			<point x="163" y="674"/>
			<point x="41" y="524"/>
			<point x="41" y="337" type="curve" smooth="yes"/>
			<point x="41" y="151"/>
			<point x="163" y="0"/>
			<point x="349" y="0" type="curve" smooth="yes"/>
			<point x="402" y="0"/>
			<point x="483" y="25"/>
			<point x="463" y="48" type="curve" smooth="yes"/>
			<point x="457" y="54"/>
			<point x="450" y="53"/>
			<point x="438" y="48" type="curve" smooth="yes"/>
			<point x="421" y="42"/>
			<point x="394" y="30"/>
			<point x="349" y="30" type="curve" smooth="yes"/>
			<point x="185" y="30"/>
			<point x="71" y="161"/>
			<point x="71" y="336" type="curve" smooth="yes"/>
			<point x="71" y="512"/>
			<point x="185" y="644"/>
			<point x="349" y="644" type="curve" smooth="yes"/>
			<point x="514" y="644"/>
			<point x="628" y="532"/>
			<point x="628" y="346" type="curve" smooth="yes"/>
			<point x="628" y="248"/>
			<point x="583" y="149"/>
			<point x="521" y="147" type="curve" smooth="yes"/>
			<point x="491" y="146"/>
			<point x="467" y="153"/>
			<point x="477" y="227" type="curve" smooth="yes"/>
			<point x="513" y="488" type="line" smooth="yes"/>
			<point x="514" y="497"/>
			<point x="511" y="506"/>
			<point x="499" y="506" type="curve" smooth="yes"/>
			<point x="491" y="506"/>
			<point x="484" y="500"/>
			<point x="483" y="488" type="curve" smooth="yes"/>
			<point x="479" y="455" type="line"/>
			<point x="459" y="506"/>
			<point x="417" y="536"/>
			<point x="358" y="536" type="curve" smooth="yes"/>
			<point x="263" y="536"/>
			<point x="190" y="458"/>
		</contour>
		<contour>
			<point x="241" y="334" type="curve" smooth="yes"/>
			<point x="253" y="439"/>
			<point x="297" y="506"/>
			<point x="358" y="506" type="curve" smooth="yes"/>
			<point x="431" y="506"/>
			<point x="437" y="439"/>
			<point x="425" y="334" type="curve" smooth="yes"/>
			<point x="413" y="228"/>
			<point x="368" y="163"/>
			<point x="306" y="163" type="curve" smooth="yes"/>
			<point x="244" y="163"/>
			<point x="229" y="228"/>
		</contour>
	</outline>
</glyph>
<glyph name="B" format="2">
	<advance width="700"/>
	<unicode hex="0042"/>
	<outline>
		<contour>
			<point x="88" y="0" type="curve" smooth="yes"/>
			<point x="434" y="0" type="line" smooth="yes"/>
			<point x="547" y="0"/>
			<point x="638" y="86"/>
			<point x="638" y="205" type="curve" smooth="yes"/>
			<point x="638" y="330"/>
			<point x="545" y="374"/>
			<point x="516" y="381" type="curve" smooth="yes"/>
			<point x="488" y="388" type="line"/>
			<point x="516" y="399" type="line" smooth="yes"/>
			<point x="544" y="410"/>
			<point x="604" y="449"/>
			<point x="604" y="555" type="curve" smooth="yes"/>
			<point x="604" y="667"/>
			<point x="514" y="730"/>
			<point x="394" y="730" type="curve" smooth="yes"/>
			<point x="88" y="730" type="line" smooth="yes"/>
			<point x="77" y="730"/>
			<point x="70" y="724"/>
			<point x="70" y="715" type="curve" smooth="yes"/>
			<point x="70" y="706"/>
			<point x="77" y="700"/>
			<point x="88" y="700" type="curve" smooth="yes"/>
			<point x="170" y="700" type="line"/>
			<point x="170" y="30" type="line"/>
			<point x="88" y="30" type="line" smooth="yes"/>
			<point x="77" y="30"/>
			<point x="70" y="24"/>
			<point x="70" y="15" type="curve" smooth="yes"/>
			<point x="70" y="6"/>
			<point x="77" y="0"/>
		</contour>
		<contour>
			<point x="250" y="400" type="line"/>
			<point x="250" y="700" type="line"/>
			<point x="413" y="700" type="line" smooth="yes"/>
			<point x="463" y="700"/>
			<point x="524" y="659"/>
			<point x="524" y="555" type="curve" smooth="yes"/>
			<point x="524" y="448"/>
			<point x="461" y="400"/>
			<point x="413" y="400" type="curve" smooth="yes"/>
		</contour>
		<contour>
			<point x="250" y="30" type="line"/>
			<point x="250" y="370" type="line"/>
			<point x="413" y="370" type="line" smooth="yes"/>
			<point x="494" y="370"/>
			<point x="558" y="306"/>
			<point x="558" y="205" type="curve" smooth="yes"/>
			<point x="558" y="126"/>
			<point x="518" y="30"/>
			<point x="413" y="30" type="curve" smooth="yes"/>
		</contour>
	</outline>
</glyph>
<glyph name="C" format="2">
	<advance width="700"/>
	<unicode hex="0043"/>
	<outline>
		<contour>
			<point x="359" y="730" type="curve" smooth="yes"/>
			<point x="220" y="730"/>
			<point x="101" y="617"/>
			<point x="101" y="365" type="curve" smooth="yes"/>
			<point x="101" y="113"/>
			<point x="220" y="0"/>
			<point x="369" y="0" type="curve" smooth="yes"/>
			<point x="491" y="0"/>
			<point x="546" y="98"/>
			<point x="585" y="222" type="curve" smooth="yes"/>
			<point x="595" y="254"/>
			<point x="596" y="267"/>
			<point x="580" y="269" type="curve" smooth="yes"/>
			<point x="567" y="271"/>
			<point x="561" y="250"/>
			<point x="555" y="233" type="curve" smooth="yes"/>
			<point x="542" y="198" type="line" smooth="yes"/>
			<point x="505" y="99"/>
			<point x="450" y="30"/>
			<point x="371" y="30" type="curve" smooth="yes"/>
			<point x="251" y="30"/>
			<point x="181" y="192"/>
			<point x="181" y="365" type="curve" smooth="yes"/>
			<point x="181" y="537"/>
			<point x="249" y="700"/>
			<point x="359" y="700" type="curve" smooth="yes"/>
			<point x="473" y="700"/>
			<point x="520" y="572"/>
			<point x="544" y="500" type="curve" smooth="yes"/>
			<point x="549" y="485"/>
			<point x="554" y="459"/>
			<point x="570" y="459" type="curve" smooth="yes"/>
			<point x="578" y="459"/>
			<point x="585" y="465"/>
			<point x="585" y="476" type="curve" smooth="yes"/>
			<point x="585" y="712" type="line" smooth="yes"/>
			<point x="585" y="723"/>
			<point x="578" y="730"/>
			<point x="570" y="730" type="curve" smooth="yes"/>
			<point x="562" y="730"/>
			<point x="555" y="724"/>
			<point x="555" y="712" type="curve" smooth="yes"/>
			<point x="555" y="562" type="line"/>
			<point x="527" y="636"/>
			<point x="476" y="730"/>
		</contour>
	</outline>
</glyph>
<glyph name="D" format="2">
	<advance width="700"/>
	<unicode hex="0044"/>
	<outline>
		<contour>
			<point x="247" y="30" type="line"/>
			<point x="386" y="30" type="line" smooth="yes"/>
			<point x="488" y="30"/>
			<point x="568" y="165"/>
			<point x="568" y="362" type="curve" smooth="yes"/>
			<point x="568" y="554"/>
			<point x="492" y="700"/>
			<point x="385" y="700" type="curve" smooth="yes"/>
			<point x="248" y="700" type="line"/>
		</contour>
		<contour>
			<point x="66" y="730" type="curve" smooth="yes"/>
			<point x="385" y="730" type="line" smooth="yes"/>
			<point x="495" y="730"/>
			<point x="648" y="628"/>
			<point x="648" y="362" type="curve" smooth="yes"/>
			<point x="648" y="70"/>
			<point x="492" y="0"/>
			<point x="386" y="0" type="curve" smooth="yes"/>
			<point x="66" y="0" type="line" smooth="yes"/>
			<point x="55" y="0"/>
			<point x="48" y="6"/>
			<point x="48" y="15" type="curve" smooth="yes"/>
			<point x="48" y="24"/>
			<point x="55" y="30"/>
			<point x="66" y="30" type="curve" smooth="yes"/>
			<point x="167" y="30" type="line"/>
			<point x="167" y="700" type="line"/>
			<point x="66" y="700" type="line" smooth="yes"/>
			<point x="55" y="700"/>
			<point x="48" y="706"/>
			<point x="48" y="715" type="curve" smooth="yes"/>
			<point x="48" y="724"/>
			<point x="55" y="730"/>
		</contour>
	</outline>
</glyph>
<glyph name="F" format="2">
	<advance width="700"/>
	<unicode hex="0046"/>
	<outline>
		<contour>
			<point x="280" y="411" type="line"/>
			<point x="280" y="700" type="line"/>
			<point x="472" y="700" type="line" smooth="yes"/>
			<point x="550" y="700"/>
			<point x="571" y="670"/>
			<point x="589" y="546" type="curve" smooth="yes"/>
			<point x="592" y="527"/>
			<point x="594" y="506"/>
			<point x="597" y="483" type="curve"/>
			<point x="599" y="465"/>
			<point x="604" y="460"/>
			<point x="614" y="461" type="curve" smooth="yes"/>
			<point x="623" y="462"/>
			<point x="626" y="467"/>
			<point x="625" y="485" type="curve" smooth="yes"/>
			<point x="608" y="709" type="line" smooth="yes"/>
			<point x="607" y="726"/>
			<point x="604" y="730"/>
			<point x="591" y="730" type="curve" smooth="yes"/>
			<point x="93" y="730" type="line" smooth="yes"/>
			<point x="82" y="730"/>
			<point x="75" y="724"/>
			<point x="75" y="715" type="curve" smooth="yes"/>
			<point x="75" y="706"/>
			<point x="82" y="700"/>
			<point x="93" y="700" type="curve" smooth="yes"/>
			<point x="200" y="700" type="line"/>
			<point x="200" y="30" type="line"/>
			<point x="95" y="30" type="line" smooth="yes"/>
			<point x="84" y="30"/>
			<point x="77" y="24"/>
			<point x="77" y="15" type="curve" smooth="yes"/>
			<point x="77" y="6"/>
			<point x="84" y="0"/>
			<point x="95" y="0" type="curve" smooth="yes"/>
			<point x="385" y="0" type="line" smooth="yes"/>
			<point x="396" y="0"/>
			<point x="402" y="6"/>
			<point x="402" y="15" type="curve" smooth="yes"/>
			<point x="402" y="24"/>
			<point x="396" y="30"/>
			<point x="385" y="30" type="curve" smooth="yes"/>
			<point x="280" y="30" type="line"/>
			<point x="280" y="381" type="line"/>
			<point x="385" y="381" type="line" smooth="yes"/>
			<point x="451" y="381"/>
			<point x="462" y="342"/>
			<point x="466" y="303" type="curve" smooth="yes"/>
			<point x="468" y="285" type="line" smooth="yes"/>
			<point x="470" y="268"/>
			<point x="468" y="256"/>
			<point x="479" y="255" type="curve" smooth="yes"/>
			<point x="494" y="254"/>
			<point x="493" y="268"/>
			<point x="493" y="285" type="curve" smooth="yes"/>
			<point x="493" y="507" type="line" smooth="yes"/>
			<point x="493" y="524"/>
			<point x="494" y="538"/>
			<point x="479" y="537" type="curve" smooth="yes"/>
			<point x="468" y="536"/>
			<point x="470" y="524"/>
			<point x="468" y="507" type="curve" smooth="yes"/>
			<point x="466" y="489" type="line" smooth="yes"/>
			<point x="462" y="450"/>
			<point x="451" y="411"/>
			<point x="385" y="411" type="curve" smooth="yes"/>
		</contour>
	</outline>
</glyph>
<glyph name="G" format="2">
	<advance width="700"/>
	<unicode hex="0047"/>
	<outline>
		<contour>
			<point x="83" y="365" type="curve" smooth="yes"/>
			<point x="83" y="113"/>
			<point x="197" y="0"/>
			<point x="346" y="0" type="curve" smooth="yes"/>
			<point x="442" y="0"/>
			<point x="512" y="67"/>
			<point x="545" y="162" type="curve"/>
			<point x="545" y="17" type="line" smooth="yes"/>
			<point x="545" y="6"/>
			<point x="551" y="0"/>
			<point x="560" y="0" type="curve" smooth="yes"/>
			<point x="569" y="0"/>
			<point x="575" y="6"/>
			<point x="575" y="17" type="curve" smooth="yes"/>
			<point x="575" y="308" type="line"/>
			<point x="651" y="308" type="line" smooth="yes"/>
			<point x="662" y="308"/>
			<point x="669" y="314"/>
			<point x="669" y="323" type="curve" smooth="yes"/>
			<point x="669" y="332"/>
			<point x="662" y="338"/>
			<point x="651" y="338" type="curve" smooth="yes"/>
			<point x="435" y="338" type="line" smooth="yes"/>
			<point x="424" y="338"/>
			<point x="417" y="332"/>
			<point x="417" y="323" type="curve" smooth="yes"/>
			<point x="417" y="314"/>
			<point x="424" y="308"/>
			<point x="435" y="308" type="curve" smooth="yes"/>
			<point x="536" y="308" type="line"/>
			<point x="526" y="141"/>
			<point x="455" y="30"/>
			<point x="348" y="30" type="curve" smooth="yes"/>
			<point x="228" y="30"/>
			<point x="163" y="192"/>
			<point x="163" y="365" type="curve" smooth="yes"/>
			<point x="163" y="537"/>
			<point x="231" y="700"/>
			<point x="341" y="700" type="curve" smooth="yes"/>
			<point x="455" y="700"/>
			<point x="502" y="572"/>
			<point x="526" y="500" type="curve" smooth="yes"/>
			<point x="531" y="485"/>
			<point x="536" y="459"/>
			<point x="552" y="459" type="curve" smooth="yes"/>
			<point x="560" y="459"/>
			<point x="567" y="465"/>
			<point x="567" y="476" type="curve" smooth="yes"/>
			<point x="567" y="712" type="line" smooth="yes"/>
			<point x="567" y="723"/>
			<point x="560" y="730"/>
			<point x="552" y="730" type="curve" smooth="yes"/>
			<point x="544" y="730"/>
			<point x="537" y="724"/>
			<point x="537" y="712" type="curve" smooth="yes"/>
			<point x="537" y="562" type="line"/>
			<point x="509" y="636"/>
			<point x="458" y="730"/>
			<point x="341" y="730" type="curve" smooth="yes"/>
			<point x="202" y="730"/>
			<point x="83" y="617"/>
		</contour>
	</outline>
</glyph>
<glyph name="H" format="2">
	<advance width="700"/>
	<unicode hex="0048"/>
	<outline>
		<contour>
			<point x="209" y="398" type="line"/>
			<point x="209" y="700" type="line"/>
			<point x="272" y="700" type="line"/>
			<point x="283" y="700"/>
			<point x="290" y="706"/>
			<point x="290" y="715" type="curve" smooth="yes"/>
			<point x="290" y="724"/>
			<point x="283" y="730"/>
			<point x="272" y="730" type="curve"/>
			<point x="70" y="730" type="line"/>
			<point x="59" y="730"/>
			<point x="52" y="724"/>
			<point x="52" y="715" type="curve" smooth="yes"/>
			<point x="52" y="706"/>
			<point x="59" y="700"/>
			<point x="70" y="700" type="curve" smooth="yes"/>
			<point x="129" y="700" type="line"/>
			<point x="129" y="30" type="line"/>
			<point x="70" y="30" type="line" smooth="yes"/>
			<point x="59" y="30"/>
			<point x="52" y="24"/>
			<point x="52" y="15" type="curve" smooth="yes"/>
			<point x="52" y="6"/>
			<point x="59" y="0"/>
			<point x="70" y="0" type="curve" smooth="yes"/>
			<point x="272" y="0" type="line" smooth="yes"/>
			<point x="283" y="0"/>
			<point x="290" y="6"/>
			<point x="290" y="15" type="curve" smooth="yes"/>
			<point x="290" y="24"/>
			<point x="283" y="30"/>
			<point x="272" y="30" type="curve" smooth="yes"/>
			<point x="209" y="30" type="line"/>
			<point x="209" y="368" type="line"/>
			<point x="489" y="368" type="line"/>
			<point x="489" y="30" type="line"/>
			<point x="426" y="30" type="line" smooth="yes"/>
			<point x="415" y="30"/>
			<point x="408" y="24"/>
			<point x="408" y="15" type="curve" smooth="yes"/>
			<point x="408" y="6"/>
			<point x="415" y="0"/>
			<point x="426" y="0" type="curve" smooth="yes"/>
			<point x="628" y="0" type="line" smooth="yes"/>
			<point x="639" y="0"/>
			<point x="646" y="6"/>
			<point x="646" y="15" type="curve" smooth="yes"/>
			<point x="646" y="24"/>
			<point x="639" y="30"/>
			<point x="628" y="30" type="curve" smooth="yes"/>
			<point x="569" y="30" type="line"/>
			<point x="569" y="700" type="line"/>
			<point x="628" y="700" type="line" smooth="yes"/>
			<point x="639" y="700"/>
			<point x="646" y="706"/>
			<point x="646" y="715" type="curve" smooth="yes"/>
			<point x="646" y="724"/>
			<point x="639" y="730"/>
			<point x="628" y="730" type="curve"/>
			<point x="426" y="730" type="line"/>
			<point x="415" y="730"/>
			<point x="408" y="724"/>
			<point x="408" y="715" type="curve" smooth="yes"/>
			<point x="408" y="706"/>
			<point x="415" y="700"/>
			<point x="426" y="700" type="curve"/>
			<point x="489" y="700" type="line"/>
			<point x="489" y="398" type="line"/>
		</contour>
	</outline>
</glyph>
<glyph name="I" format="2">
	<advance width="700"/>
	<unicode hex="0049"/>
	<outline>
		<contour>
			<point x="392" y="30" type="line"/>
			<point x="392" y="700" type="line"/>
			<point x="546" y="700" type="line"/>
			<point x="557" y="700"/>
			<point x="564" y="706"/>
			<point x="564" y="715" type="curve" smooth="yes"/>
			<point x="564" y="724"/>
			<point x="557" y="730"/>
			<point x="546" y="730" type="curve"/>
			<point x="154" y="730" type="line"/>
			<point x="143" y="730"/>
			<point x="136" y="724"/>
			<point x="136" y="715" type="curve" smooth="yes"/>
			<point x="136" y="706"/>
			<point x="143" y="700"/>
			<point x="154" y="700" type="curve"/>
			<point x="312" y="700" type="line"/>
			<point x="312" y="30" type="line"/>
			<point x="159" y="30" type="line"/>
			<point x="148" y="30"/>
			<point x="141" y="24"/>
			<point x="141" y="15" type="curve" smooth="yes"/>
			<point x="141" y="6"/>
			<point x="148" y="0"/>
			<point x="159" y="0" type="curve"/>
			<point x="543" y="0" type="line" smooth="yes"/>
			<point x="554" y="0"/>
			<point x="561" y="6"/>
			<point x="561" y="15" type="curve" smooth="yes"/>
			<point x="561" y="24"/>
			<point x="554" y="30"/>
			<point x="543" y="30" type="curve"/>
		</contour>
	</outline>
</glyph>
<glyph name="J" format="2">
	<advance width="700"/>
	<unicode hex="004A"/>
	<outline>
		<contour>
			<point x="457" y="263" type="curve" smooth="yes"/>
			<point x="457" y="710" type="line"/>
			<point x="611" y="710" type="line" smooth="yes"/>
			<point x="622" y="710"/>
			<point x="629" y="716"/>
			<point x="629" y="725" type="curve" smooth="yes"/>
			<point x="629" y="734"/>
			<point x="622" y="740"/>
			<point x="611" y="740" type="curve" smooth="yes"/>
			<point x="219" y="740" type="line" smooth="yes"/>
			<point x="208" y="740"/>
			<point x="201" y="734"/>
			<point x="201" y="725" type="curve" smooth="yes"/>
			<point x="201" y="716"/>
			<point x="208" y="710"/>
			<point x="219" y="710" type="curve" smooth="yes"/>
			<point x="377" y="710" type="line"/>
			<point x="377" y="263" type="line" smooth="yes"/>
			<point x="377" y="166"/>
			<point x="367" y="30"/>
			<point x="263" y="30" type="curve" smooth="yes"/>
			<point x="153" y="30"/>
			<point x="123" y="107"/>
			<point x="119" y="144" type="curve"/>
			<point x="119" y="144"/>
			<point x="161" y="136"/>
			<point x="181" y="175" type="curve" smooth="yes"/>
			<point x="195" y="203"/>
			<point x="190" y="234"/>
			<point x="158" y="247" type="curve" smooth="yes"/>
			<point x="128" y="259"/>
			<point x="97" y="245"/>
			<point x="84" y="218" type="curve" smooth="yes"/>
			<point x="52" y="152"/>
			<point x="99" y="0"/>
			<point x="263" y="0" type="curve" smooth="yes"/>
			<point x="468" y="0"/>
			<point x="456" y="186"/>
		</contour>
	</outline>
</glyph>
<glyph name="K" format="2">
	<advance width="700"/>
	<unicode hex="004B"/>
	<outline>
		<contour>
			<point x="291" y="0" type="line" smooth="yes"/>
			<point x="302" y="0"/>
			<point x="308" y="6"/>
			<point x="308" y="15" type="curve" smooth="yes"/>
			<point x="308" y="24"/>
			<point x="302" y="30"/>
			<point x="291" y="30" type="curve" smooth="yes"/>
			<point x="217" y="30" type="line"/>
			<point x="217" y="282" type="line"/>
			<point x="271" y="347" type="line"/>
			<point x="492" y="30" type="line"/>
			<point x="400" y="30" type="line" smooth="yes"/>
			<point x="389" y="30"/>
			<point x="382" y="24"/>
			<point x="382" y="15" type="curve" smooth="yes"/>
			<point x="382" y="6"/>
			<point x="389" y="0"/>
			<point x="400" y="0" type="curve" smooth="yes"/>
			<point x="646" y="0" type="line" smooth="yes"/>
			<point x="657" y="0"/>
			<point x="663" y="6"/>
			<point x="663" y="15" type="curve" smooth="yes"/>
			<point x="663" y="24"/>
			<point x="657" y="30"/>
			<point x="646" y="30" type="curve" smooth="yes"/>
			<point x="572" y="30" type="line"/>
			<point x="316" y="402" type="line"/>
			<point x="552" y="700" type="line"/>
			<point x="623" y="700" type="line" smooth="yes"/>
			<point x="634" y="700"/>
			<point x="640" y="706"/>
			<point x="640" y="715" type="curve" smooth="yes"/>
			<point x="640" y="724"/>
			<point x="634" y="730"/>
			<point x="623" y="730" type="curve" smooth="yes"/>
			<point x="387" y="730" type="line" smooth="yes"/>
			<point x="376" y="730"/>
			<point x="369" y="724"/>
			<point x="369" y="715" type="curve" smooth="yes"/>
			<point x="369" y="706"/>
			<point x="376" y="700"/>
			<point x="387" y="700" type="curve" smooth="yes"/>
			<point x="506" y="700" type="line"/>
			<point x="217" y="342" type="line"/>
			<point x="217" y="700" type="line"/>
			<point x="291" y="700" type="line" smooth="yes"/>
			<point x="302" y="700"/>
			<point x="308" y="706"/>
			<point x="308" y="715" type="curve" smooth="yes"/>
			<point x="308" y="724"/>
			<point x="302" y="730"/>
			<point x="291" y="730" type="curve" smooth="yes"/>
			<point x="55" y="730" type="line" smooth="yes"/>
			<point x="44" y="730"/>
			<point x="37" y="724"/>
			<point x="37" y="715" type="curve" smooth="yes"/>
			<point x="37" y="706"/>
			<point x="44" y="700"/>
			<point x="55" y="700" type="curve" smooth="yes"/>
			<point x="137" y="700" type="line"/>
			<point x="137" y="30" type="line"/>
			<point x="55" y="30" type="line" smooth="yes"/>
			<point x="44" y="30"/>
			<point x="37" y="24"/>
			<point x="37" y="15" type="curve" smooth="yes"/>
			<point x="37" y="6"/>
			<point x="44" y="0"/>
			<point x="55" y="0" type="curve" smooth="yes"/>
		</contour>
	</outline>
</glyph>
<glyph name="L" format="2">
	<advance width="700"/>
	<unicode hex="004C"/>
	<outline>
		<contour>
			<point x="75" y="15" type="curve" smooth="yes"/>
			<point x="75" y="6"/>
			<point x="82" y="0"/>
			<point x="93" y="0" type="curve" smooth="yes"/>
			<point x="576" y="0" type="line" smooth="yes"/>
			<point x="604" y="0"/>
			<point x="612" y="14"/>
			<point x="613" y="31" type="curve" smooth="yes"/>
			<point x="629" y="223" type="line" smooth="yes"/>
			<point x="630" y="240"/>
			<point x="626" y="246"/>
			<point x="614" y="246" type="curve" smooth="yes"/>
			<point x="604" y="246"/>
			<point x="601" y="240"/>
			<point x="599" y="223" type="curve" smooth="yes"/>
			<point x="592" y="160" type="line" smooth="yes"/>
			<point x="585" y="99"/>
			<point x="574" y="30"/>
			<point x="477" y="30" type="curve" smooth="yes"/>
			<point x="255" y="30" type="line"/>
			<point x="255" y="700" type="line"/>
			<point x="348" y="700" type="line" smooth="yes"/>
			<point x="359" y="700"/>
			<point x="365" y="706"/>
			<point x="365" y="715" type="curve" smooth="yes"/>
			<point x="365" y="724"/>
			<point x="359" y="730"/>
			<point x="348" y="730" type="curve" smooth="yes"/>
			<point x="93" y="730" type="line" smooth="yes"/>
			<point x="82" y="730"/>
			<point x="75" y="724"/>
			<point x="75" y="715" type="curve" smooth="yes"/>
			<point x="75" y="706"/>
			<point x="82" y="700"/>
			<point x="93" y="700" type="curve" smooth="yes"/>
			<point x="175" y="700" type="line"/>
			<point x="175" y="30" type="line"/>
			<point x="93" y="30" type="line" smooth="yes"/>
			<point x="82" y="30"/>
			<point x="75" y="24"/>
		</contour>
	</outline>
</glyph>
<glyph name="M" format="2">
	<advance width="700"/>
	<unicode hex="004D"/>
	<outline>
		<contour>
			<point x="518" y="591" type="line"/>
			<point x="518" y="30" type="line"/>
			<point x="439" y="30" type="line" smooth="yes"/>
			<point x="428" y="30"/>
			<point x="421" y="24"/>
			<point x="421" y="15" type="curve" smooth="yes"/>
			<point x="421" y="6"/>
			<point x="428" y="0"/>
			<point x="439" y="0" type="curve" smooth="yes"/>
			<point x="663" y="0" type="line" smooth="yes"/>
			<point x="674" y="0"/>
			<point x="681" y="6"/>
			<point x="681" y="15" type="curve" smooth="yes"/>
			<point x="681" y="24"/>
			<point x="674" y="30"/>
			<point x="663" y="30" type="curve" smooth="yes"/>
			<point x="598" y="30" type="line"/>
			<point x="599" y="700" type="line"/>
			<point x="663" y="700" type="line" smooth="yes"/>
			<point x="674" y="700"/>
			<point x="681" y="706"/>
			<point x="681" y="715" type="curve" smooth="yes"/>
			<point x="681" y="724"/>
			<point x="674" y="730"/>
			<point x="663" y="730" type="curve" smooth="yes"/>
			<point x="568" y="730" type="line" smooth="yes"/>
			<point x="550" y="730"/>
			<point x="545" y="720"/>
			<point x="536" y="700" type="curve" smooth="yes"/>
			<point x="367" y="316" type="line"/>
			<point x="176" y="700" type="line" smooth="yes"/>
			<point x="167" y="720"/>
			<point x="162" y="730"/>
			<point x="144" y="730" type="curve" smooth="yes"/>
			<point x="37" y="730" type="line" smooth="yes"/>
			<point x="26" y="730"/>
			<point x="19" y="724"/>
			<point x="19" y="715" type="curve" smooth="yes"/>
			<point x="19" y="706"/>
			<point x="26" y="700"/>
			<point x="37" y="700" type="curve" smooth="yes"/>
			<point x="115" y="700" type="line"/>
			<point x="116" y="30" type="line"/>
			<point x="32" y="30" type="line" smooth="yes"/>
			<point x="21" y="30"/>
			<point x="14" y="24"/>
			<point x="14" y="15" type="curve" smooth="yes"/>
			<point x="14" y="6"/>
			<point x="21" y="0"/>
			<point x="32" y="0" type="curve" smooth="yes"/>
			<point x="242" y="0" type="line" smooth="yes"/>
			<point x="253" y="0"/>
			<point x="260" y="6"/>
			<point x="260" y="15" type="curve" smooth="yes"/>
			<point x="260" y="24"/>
			<point x="253" y="30"/>
			<point x="242" y="30" type="curve" smooth="yes"/>
			<point x="146" y="30" type="line"/>
			<point x="146" y="600" type="line"/>
			<point x="316" y="232" type="line" smooth="yes"/>
			<point x="324" y="216"/>
			<point x="329" y="207"/>
			<point x="339" y="207" type="curve" smooth="yes"/>
			<point x="347" y="207"/>
			<point x="351" y="209"/>
			<point x="360" y="230" type="curve" smooth="yes"/>
		</contour>
	</outline>
</glyph>
<glyph name="N" format="2">
	<advance width="700"/>
	<unicode hex="004E"/>
	<outline>
		<contour>
			<point x="184" y="641" type="line"/>
			<point x="482" y="31" type="line" smooth="yes"/>
			<point x="497" y="0"/>
			<point x="508" y="0"/>
			<point x="535" y="0" type="curve" smooth="yes"/>
			<point x="568" y="0"/>
			<point x="569" y="0"/>
			<point x="569" y="31" type="curve" smooth="yes"/>
			<point x="569" y="700" type="line"/>
			<point x="654" y="700" type="line" smooth="yes"/>
			<point x="665" y="700"/>
			<point x="672" y="706"/>
			<point x="672" y="715" type="curve" smooth="yes"/>
			<point x="672" y="724"/>
			<point x="665" y="730"/>
			<point x="654" y="730" type="curve" smooth="yes"/>
			<point x="446" y="730" type="line" smooth="yes"/>
			<point x="435" y="730"/>
			<point x="428" y="724"/>
			<point x="428" y="715" type="curve" smooth="yes"/>
			<point x="428" y="706"/>
			<point x="435" y="700"/>
			<point x="446" y="700" type="curve" smooth="yes"/>
			<point x="529" y="700" type="line"/>
			<point x="529" y="105" type="line"/>
			<point x="243" y="687" type="line" smooth="yes"/>
			<point x="226" y="721"/>
			<point x="222" y="730"/>
			<point x="197" y="730" type="curve" smooth="yes"/>
			<point x="76" y="730" type="line" smooth="yes"/>
			<point x="65" y="730"/>
			<point x="58" y="724"/>
			<point x="58" y="715" type="curve" smooth="yes"/>
			<point x="58" y="706"/>
			<point x="65" y="700"/>
			<point x="76" y="700" type="curve" smooth="yes"/>
			<point x="143" y="700" type="line"/>
			<point x="144" y="30" type="line"/>
			<point x="61" y="30" type="line" smooth="yes"/>
			<point x="50" y="30"/>
			<point x="43" y="24"/>
			<point x="43" y="15" type="curve" smooth="yes"/>
			<point x="43" y="6"/>
			<point x="50" y="0"/>
			<point x="61" y="0" type="curve" smooth="yes"/>
			<point x="269" y="0" type="line" smooth="yes"/>
			<point x="280" y="0"/>
			<point x="287" y="6"/>
			<point x="287" y="15" type="curve" smooth="yes"/>
			<point x="287" y="24"/>
			<point x="280" y="30"/>
			<point x="269" y="30" type="curve" smooth="yes"/>
			<point x="184" y="30" type="line"/>
		</contour>
	</outline>
</glyph>
<glyph name="P" format="2">
	<advance width="700"/>
	<unicode hex="0050"/>
	<outline>
		<contour>
			<point x="621" y="538" type="curve" smooth="yes"/>
			<point x="621" y="659"/>
			<point x="541" y="730"/>
			<point x="427" y="730" type="curve" smooth="yes"/>
			<point x="78" y="730" type="line" smooth="yes"/>
			<point x="67" y="730"/>
			<point x="60" y="724"/>
			<point x="60" y="715" type="curve" smooth="yes"/>
			<point x="60" y="706"/>
			<point x="67" y="700"/>
			<point x="78" y="700" type="curve" smooth="yes"/>
			<point x="166" y="700" type="line"/>
			<point x="166" y="30" type="line"/>
			<point x="78" y="30" type="line" smooth="yes"/>
			<point x="67" y="30"/>
			<point x="60" y="24"/>
			<point x="60" y="15" type="curve" smooth="yes"/>
			<point x="60" y="6"/>
			<point x="67" y="0"/>
			<point x="78" y="0" type="curve" smooth="yes"/>
			<point x="335" y="0" type="line" smooth="yes"/>
			<point x="346" y="0"/>
			<point x="352" y="6"/>
			<point x="352" y="15" type="curve" smooth="yes"/>
			<point x="352" y="24"/>
			<point x="346" y="30"/>
			<point x="335" y="30" type="curve" smooth="yes"/>
			<point x="246" y="30" type="line"/>
			<point x="246" y="346" type="line"/>
			<point x="427" y="346" type="line" smooth="yes"/>
			<point x="541" y="346"/>
			<point x="621" y="417"/>
		</contour>
		<contour>
			<point x="378" y="700" type="line" smooth="yes"/>
			<point x="471" y="700"/>
			<point x="542" y="660"/>
			<point x="542" y="538" type="curve" smooth="yes"/>
			<point x="542" y="416"/>
			<point x="472" y="376"/>
			<point x="378" y="376" type="curve"/>
			<point x="247" y="376" type="line"/>
			<point x="247" y="700" type="line"/>
		</contour>
	</outline>
</glyph>
<glyph name="Q" format="2">
	<advance width="700"/>
	<unicode hex="0051"/>
	<outline>
		<contour>
			<point x="85" y="365" type="curve" smooth="yes"/>
			<point x="85" y="159"/>
			<point x="177" y="27"/>
			<point x="303" y="0" type="curve"/>
			<point x="181" y="-98" type="line" smooth="yes"/>
			<point x="141" y="-130"/>
			<point x="128" y="-143"/>
			<point x="138" y="-157" type="curve" smooth="yes"/>
			<point x="149" y="-172"/>
			<point x="163" y="-161"/>
			<point x="182" y="-144" type="curve" smooth="yes"/>
			<point x="209" y="-120"/>
			<point x="231" y="-107"/>
			<point x="265" y="-107" type="curve" smooth="yes"/>
			<point x="325" y="-107"/>
			<point x="396" y="-179"/>
			<point x="464" y="-179" type="curve" smooth="yes"/>
			<point x="489" y="-179"/>
			<point x="529" y="-174"/>
			<point x="562" y="-124" type="curve" smooth="yes"/>
			<point x="579" y="-98" type="line" smooth="yes"/>
			<point x="592" y="-78"/>
			<point x="598" y="-63"/>
			<point x="586" y="-55" type="curve" smooth="yes"/>
			<point x="575" y="-48"/>
			<point x="565" y="-54"/>
			<point x="549" y="-80" type="curve" smooth="yes"/>
			<point x="520" y="-127"/>
			<point x="498" y="-144"/>
			<point x="465" y="-144" type="curve" smooth="yes"/>
			<point x="421" y="-144"/>
			<point x="344" y="-76"/>
			<point x="272" y="-72" type="curve"/>
			<point x="356" y="-5" type="line"/>
			<point x="502" y="-2"/>
			<point x="616" y="136"/>
			<point x="616" y="365" type="curve" smooth="yes"/>
			<point x="616" y="597"/>
			<point x="499" y="735"/>
			<point x="351" y="735" type="curve" smooth="yes"/>
			<point x="204" y="735"/>
			<point x="85" y="595"/>
		</contour>
		<contour>
			<point x="165" y="365" type="curve" smooth="yes"/>
			<point x="165" y="537"/>
			<point x="238" y="705"/>
			<point x="351" y="705" type="curve" smooth="yes"/>
			<point x="463" y="705"/>
			<point x="536" y="537"/>
			<point x="536" y="365" type="curve" smooth="yes"/>
			<point x="536" y="192"/>
			<point x="463" y="25"/>
			<point x="351" y="25" type="curve" smooth="yes"/>
			<point x="238" y="25"/>
			<point x="165" y="192"/>
		</contour>
	</outline>
</glyph>
<glyph name="R" format="2">
	<advance width="700"/>
	<unicode hex="0052"/>
	<outline>
		<contour>
			<point x="201" y="346" type="line"/>
			<point x="352" y="346" type="line" smooth="yes"/>
			<point x="390" y="346"/>
			<point x="432" y="313"/>
			<point x="432" y="247" type="curve" smooth="yes"/>
			<point x="432" y="140" type="line" smooth="yes"/>
			<point x="432" y="66"/>
			<point x="448" y="-8"/>
			<point x="551" y="-8" type="curve" smooth="yes"/>
			<point x="611" y="-8"/>
			<point x="635" y="43"/>
			<point x="655" y="91" type="curve" smooth="yes"/>
			<point x="675" y="139"/>
			<point x="684" y="164"/>
			<point x="668" y="169" type="curve"/>
			<point x="657" y="172"/>
			<point x="653" y="165"/>
			<point x="646" y="146" type="curve" smooth="yes"/>
			<point x="629" y="101"/>
			<point x="607" y="22"/>
			<point x="559" y="22" type="curve" smooth="yes"/>
			<point x="507" y="22"/>
			<point x="512" y="119"/>
			<point x="512" y="170" type="curve" smooth="yes"/>
			<point x="512" y="247" type="line" smooth="yes"/>
			<point x="512" y="305"/>
			<point x="472" y="337"/>
			<point x="433" y="346" type="curve"/>
			<point x="519" y="366"/>
			<point x="577" y="437"/>
			<point x="577" y="538" type="curve" smooth="yes"/>
			<point x="577" y="659"/>
			<point x="500" y="730"/>
			<point x="386" y="730" type="curve" smooth="yes"/>
			<point x="33" y="730" type="line" smooth="yes"/>
			<point x="22" y="730"/>
			<point x="15" y="724"/>
			<point x="15" y="715" type="curve" smooth="yes"/>
			<point x="15" y="706"/>
			<point x="22" y="700"/>
			<point x="33" y="700" type="curve" smooth="yes"/>
			<point x="121" y="700" type="line"/>
			<point x="121" y="30" type="line"/>
			<point x="33" y="30" type="line" smooth="yes"/>
			<point x="22" y="30"/>
			<point x="15" y="24"/>
			<point x="15" y="15" type="curve" smooth="yes"/>
			<point x="15" y="6"/>
			<point x="22" y="0"/>
			<point x="33" y="0" type="curve" smooth="yes"/>
			<point x="290" y="0" type="line" smooth="yes"/>
			<point x="301" y="0"/>
			<point x="307" y="6"/>
			<point x="307" y="15" type="curve" smooth="yes"/>
			<point x="307" y="24"/>
			<point x="301" y="30"/>
			<point x="290" y="30" type="curve" smooth="yes"/>
			<point x="201" y="30" type="line"/>
		</contour>
		<contour>
			<point x="497" y="538" type="curve" smooth="yes"/>
			<point x="497" y="412"/>
			<point x="430" y="376"/>
			<point x="336" y="376" type="curve"/>
			<point x="201" y="376" type="line"/>
			<point x="201" y="700" type="line"/>
			<point x="336" y="700" type="line" smooth="yes"/>
			<point x="429" y="700"/>
			<point x="497" y="664"/>
		</contour>
	</outline>
</glyph>
<glyph name="T" format="2">
	<advance width="700"/>
	<unicode hex="0054"/>
	<outline>
		<contour>
			<point x="311" y="700" type="line"/>
			<point x="311" y="30" type="line"/>
			<point x="183" y="30" type="line" smooth="yes"/>
			<point x="172" y="30"/>
			<point x="165" y="24"/>
			<point x="165" y="15" type="curve" smooth="yes"/>
			<point x="165" y="6"/>
			<point x="172" y="0"/>
			<point x="183" y="0" type="curve" smooth="yes"/>
			<point x="519" y="0" type="line" smooth="yes"/>
			<point x="530" y="0"/>
			<point x="537" y="6"/>
			<point x="537" y="15" type="curve" smooth="yes"/>
			<point x="537" y="24"/>
			<point x="530" y="30"/>
			<point x="519" y="30" type="curve" smooth="yes"/>
			<point x="391" y="30" type="line"/>
			<point x="391" y="700" type="line"/>
			<point x="456" y="700" type="line" smooth="yes"/>
			<point x="561" y="700"/>
			<point x="569" y="645"/>
			<point x="574" y="567" type="curve" smooth="yes"/>
			<point x="579" y="485" type="line" smooth="yes"/>
			<point x="580" y="468"/>
			<point x="581" y="453"/>
			<point x="595" y="454" type="curve" smooth="yes"/>
			<point x="611" y="455"/>
			<point x="610" y="471"/>
			<point x="609" y="488" type="curve" smooth="yes"/>
			<point x="599" y="706" type="line" smooth="yes"/>
			<point x="598" y="723"/>
			<point x="598" y="730"/>
			<point x="580" y="730" type="curve" smooth="yes"/>
			<point x="120" y="730" type="line" smooth="yes"/>
			<point x="102" y="730"/>
			<point x="102" y="723"/>
			<point x="101" y="706" type="curve" smooth="yes"/>
			<point x="91" y="488" type="line" smooth="yes"/>
			<point x="90" y="471"/>
			<point x="89" y="455"/>
			<point x="105" y="454" type="curve" smooth="yes"/>
			<point x="119" y="453"/>
			<point x="120" y="468"/>
			<point x="121" y="485" type="curve" smooth="yes"/>
			<point x="126" y="567" type="line" smooth="yes"/>
			<point x="131" y="645"/>
			<point x="137" y="700"/>
			<point x="244" y="700" type="curve" smooth="yes"/>
		</contour>
	</outline>
</glyph>
<glyph name="V" format="2">
	<advance width="700"/>
	<unicode hex="0056"/>
	<outline>
		<contour>
			<point x="383" y="165" type="line"/>
			<point x="213" y="700" type="line"/>
			<point x="329" y="700" type="line" smooth="yes"/>
			<point x="340" y="700"/>
			<point x="347" y="706"/>
			<point x="347" y="715" type="curve" smooth="yes"/>
			<point x="347" y="724"/>
			<point x="340" y="730"/>
			<point x="329" y="730" type="curve" smooth="yes"/>
			<point x="55" y="730" type="line" smooth="yes"/>
			<point x="44" y="730"/>
			<point x="37" y="724"/>
			<point x="37" y="715" type="curve" smooth="yes"/>
			<point x="37" y="706"/>
			<point x="44" y="700"/>
			<point x="55" y="700" type="curve" smooth="yes"/>
			<point x="133" y="700" type="line"/>
			<point x="336" y="40" type="line" smooth="yes"/>
			<point x="344" y="14"/>
			<point x="345" y="0"/>
			<point x="357" y="0" type="curve" smooth="yes"/>
			<point x="369" y="0"/>
			<point x="370" y="14"/>
			<point x="378" y="40" type="curve" smooth="yes"/>
			<point x="570" y="700" type="line"/>
			<point x="644" y="700" type="line" smooth="yes"/>
			<point x="655" y="700"/>
			<point x="662" y="706"/>
			<point x="662" y="715" type="curve" smooth="yes"/>
			<point x="662" y="724"/>
			<point x="655" y="730"/>
			<point x="644" y="730" type="curve" smooth="yes"/>
			<point x="448" y="730" type="line" smooth="yes"/>
			<point x="437" y="730"/>
			<point x="430" y="724"/>
			<point x="430" y="715" type="curve" smooth="yes"/>
			<point x="430" y="706"/>
			<point x="437" y="700"/>
			<point x="448" y="700" type="curve" smooth="yes"/>
			<point x="540" y="700" type="line"/>
		</contour>
	</outline>
</glyph>
<glyph name="X" format="2">
	<advance width="700"/>
	<unicode hex="0058"/>
	<outline>
		<contour>
			<point x="50" y="15" type="curve" smooth="yes"/>
			<point x="50" y="6"/>
			<point x="57" y="0"/>
			<point x="68" y="0" type="curve" smooth="yes"/>
			<point x="267" y="0" type="line" smooth="yes"/>
			<point x="278" y="0"/>
			<point x="285" y="6"/>
			<point x="285" y="15" type="curve" smooth="yes"/>
			<point x="285" y="24"/>
			<point x="278" y="30"/>
			<point x="267" y="30" type="curve" smooth="yes"/>
			<point x="165" y="30" type="line"/>
			<point x="334" y="321" type="line"/>
			<point x="481" y="30" type="line"/>
			<point x="404" y="30" type="line" smooth="yes"/>
			<point x="393" y="30"/>
			<point x="386" y="24"/>
			<point x="386" y="15" type="curve" smooth="yes"/>
			<point x="386" y="6"/>
			<point x="393" y="0"/>
			<point x="404" y="0" type="curve" smooth="yes"/>
			<point x="639" y="0" type="line" smooth="yes"/>
			<point x="650" y="0"/>
			<point x="657" y="6"/>
			<point x="657" y="15" type="curve" smooth="yes"/>
			<point x="657" y="24"/>
			<point x="650" y="30"/>
			<point x="639" y="30" type="curve" smooth="yes"/>
			<point x="566" y="30" type="line"/>
			<point x="380" y="399" type="line"/>
			<point x="555" y="700" type="line"/>
			<point x="639" y="700" type="line" smooth="yes"/>
			<point x="650" y="700"/>
			<point x="657" y="706"/>
			<point x="657" y="715" type="curve" smooth="yes"/>
			<point x="657" y="724"/>
			<point x="650" y="730"/>
			<point x="639" y="730" type="curve" smooth="yes"/>
			<point x="422" y="730" type="line" smooth="yes"/>
			<point x="411" y="730"/>
			<point x="404" y="724"/>
			<point x="404" y="715" type="curve" smooth="yes"/>
			<point x="404" y="706"/>
			<point x="411" y="700"/>
			<point x="422" y="700" type="curve" smooth="yes"/>
			<point x="525" y="700" type="line"/>
			<point x="366" y="427" type="line"/>
			<point x="228" y="700" type="line"/>
			<point x="299" y="700" type="line" smooth="yes"/>
			<point x="310" y="700"/>
			<point x="317" y="706"/>
			<point x="317" y="715" type="curve" smooth="yes"/>
			<point x="317" y="724"/>
			<point x="310" y="730"/>
			<point x="299" y="730" type="curve" smooth="yes"/>
			<point x="68" y="730" type="line" smooth="yes"/>
			<point x="57" y="730"/>
			<point x="50" y="724"/>
			<point x="50" y="715" type="curve" smooth="yes"/>
			<point x="50" y="706"/>
			<point x="57" y="700"/>
			<point x="68" y="700" type="curve" smooth="yes"/>
			<point x="143" y="700" type="line"/>
			<point x="320" y="348" type="line"/>
			<point x="135" y="30" type="line"/>
			<point x="68" y="30" type="line" smooth="yes"/>
			<point x="57" y="30"/>
			<point x="50" y="24"/>
		</contour>
	</outline>
</glyph>
<glyph name="Y" format="2">
	<advance width="700"/>
	<unicode hex="0059"/>
	<outline>
		<contour>
			<point x="51" y="715" type="curve" smooth="yes"/>
			<point x="51" y="706"/>
			<point x="58" y="700"/>
			<point x="69" y="700" type="curve" smooth="yes"/>
			<point x="151" y="700" type="line"/>
			<point x="301" y="349" type="line"/>
			<point x="301" y="30" type="line"/>
			<point x="163" y="30" type="line" smooth="yes"/>
			<point x="152" y="30"/>
			<point x="145" y="24"/>
			<point x="145" y="15" type="curve" smooth="yes"/>
			<point x="145" y="6"/>
			<point x="152" y="0"/>
			<point x="163" y="0" type="curve" smooth="yes"/>
			<point x="519" y="0" type="line" smooth="yes"/>
			<point x="530" y="0"/>
			<point x="537" y="6"/>
			<point x="537" y="15" type="curve" smooth="yes"/>
			<point x="537" y="24"/>
			<point x="530" y="30"/>
			<point x="519" y="30" type="curve" smooth="yes"/>
			<point x="381" y="30" type="line"/>
			<point x="381" y="344" type="line"/>
			<point x="551" y="700" type="line"/>
			<point x="639" y="700" type="line" smooth="yes"/>
			<point x="650" y="700"/>
			<point x="657" y="706"/>
			<point x="657" y="715" type="curve" smooth="yes"/>
			<point x="657" y="724"/>
			<point x="650" y="730"/>
			<point x="639" y="730" type="curve" smooth="yes"/>
			<point x="423" y="730" type="line" smooth="yes"/>
			<point x="412" y="730"/>
			<point x="405" y="724"/>
			<point x="405" y="715" type="curve" smooth="yes"/>
			<point x="405" y="706"/>
			<point x="412" y="700"/>
			<point x="423" y="700" type="curve" smooth="yes"/>
			<point x="521" y="700" type="line"/>
			<point x="365" y="380" type="line"/>
			<point x="226" y="700" type="line"/>
			<point x="300" y="700" type="line" smooth="yes"/>
			<point x="311" y="700"/>
			<point x="318" y="706"/>
			<point x="318" y="715" type="curve" smooth="yes"/>
			<point x="318" y="724"/>
			<point x="311" y="730"/>
			<point x="300" y="730" type="curve" smooth="yes"/>
			<point x="69" y="730" type="line" smooth="yes"/>
			<point x="58" y="730"/>
			<point x="51" y="724"/>
		</contour>
	</outline>
</glyph>
<glyph name="Z" format="2">
	<advance width="700"/>
	<unicode hex="005A"/>
	<outline>
		<contour>
			<point x="282" y="700" type="curve" smooth="yes"/>
			<point x="525" y="700" type="line"/>
			<point x="119" y="54" type="line" smooth="yes"/>
			<point x="111" y="41"/>
			<point x="103" y="29"/>
			<point x="110" y="15" type="curve" smooth="yes"/>
			<point x="118" y="0"/>
			<point x="136" y="0"/>
			<point x="164" y="0" type="curve" smooth="yes"/>
			<point x="574" y="0" type="line"/>
			<point x="592" y="0"/>
			<point x="591" y="7"/>
			<point x="593" y="24" type="curve" smooth="yes"/>
			<point x="609" y="199" type="line" smooth="yes"/>
			<point x="611" y="216"/>
			<point x="613" y="232"/>
			<point x="597" y="233" type="curve" smooth="yes"/>
			<point x="583" y="234"/>
			<point x="581" y="219"/>
			<point x="579" y="202" type="curve" smooth="yes"/>
			<point x="574" y="163" type="line" smooth="yes"/>
			<point x="564" y="86"/>
			<point x="557" y="30"/>
			<point x="450" y="30" type="curve"/>
			<point x="196" y="30" type="line"/>
			<point x="606" y="686" type="line" smooth="yes"/>
			<point x="614" y="699"/>
			<point x="624" y="713"/>
			<point x="618" y="723" type="curve" smooth="yes"/>
			<point x="613" y="732"/>
			<point x="597" y="730"/>
			<point x="565" y="730" type="curve" smooth="yes"/>
			<point x="158" y="730" type="line" smooth="yes"/>
			<point x="140" y="730"/>
			<point x="141" y="723"/>
			<point x="139" y="706" type="curve" smooth="yes"/>
			<point x="123" y="531" type="line" smooth="yes"/>
			<point x="121" y="514"/>
			<point x="119" y="498"/>
			<point x="135" y="497" type="curve" smooth="yes"/>
			<point x="149" y="496"/>
			<point x="151" y="511"/>
			<point x="153" y="528" type="curve" smooth="yes"/>
			<point x="158" y="567" type="line" smooth="yes"/>
			<point x="168" y="644"/>
			<point x="175" y="700"/>
		</contour>
	</outline>
</glyph>
<glyph name="bracketleft" format="2">
	<advance width="700"/>
	<unicode hex="005B"/>
	<outline>
		<contour>
			<point x="243" y="-4" type="curve" smooth="yes"/>
			<point x="455" y="0" type="line" smooth="yes"/>
			<point x="466" y="0"/>
			<point x="473" y="6"/>
			<point x="473" y="15" type="curve" smooth="yes"/>
			<point x="473" y="24"/>
			<point x="465" y="30"/>
			<point x="454" y="30" type="curve" smooth="yes"/>
			<point x="306" y="27" type="line"/>
			<point x="294" y="697" type="line"/>
			<point x="443" y="700" type="line" smooth="yes"/>
			<point x="454" y="700"/>
			<point x="461" y="706"/>
			<point x="461" y="715" type="curve" smooth="yes"/>
			<point x="460" y="724"/>
			<point x="453" y="730"/>
			<point x="442" y="730" type="curve" smooth="yes"/>
			<point x="229" y="726" type="line" smooth="yes"/>
			<point x="218" y="726"/>
			<point x="211" y="720"/>
			<point x="212" y="711" type="curve" smooth="yes"/>
			<point x="224" y="12" type="line" smooth="yes"/>
			<point x="224" y="3"/>
			<point x="232" y="-4"/>
		</contour>
	</outline>
</glyph>
<glyph name="backslash" format="2">
	<advance width="700"/>
	<unicode hex="005C"/>
	<outline>
		<contour>
			<point x="114" y="843" type="line"/>
			<point x="109" y="853"/>
			<point x="100" y="857"/>
			<point x="93" y="853" type="curve" smooth="yes"/>
			<point x="84" y="848"/>
			<point x="83" y="839"/>
			<point x="89" y="829" type="curve"/>
			<point x="532" y="-121" type="line"/>
			<point x="538" y="-131"/>
			<point x="547" y="-133"/>
			<point x="554" y="-129" type="curve" smooth="yes"/>
			<point x="562" y="-124"/>
			<point x="564" y="-116"/>
			<point x="558" y="-106" type="curve"/>
		</contour>
	</outline>
</glyph>
<glyph name="bracketright" format="2">
	<advance width="700"/>
	<unicode hex="005D"/>
	<outline>
		<contour>
			<point x="457" y="0" type="line" smooth="yes"/>
			<point x="468" y="0"/>
			<point x="476" y="7"/>
			<point x="476" y="16" type="curve" smooth="yes"/>
			<point x="464" y="715" type="line" smooth="yes"/>
			<point x="463" y="724"/>
			<point x="456" y="730"/>
			<point x="445" y="730" type="curve" smooth="yes"/>
			<point x="232" y="726" type="line" smooth="yes"/>
			<point x="221" y="726"/>
			<point x="214" y="720"/>
			<point x="215" y="711" type="curve" smooth="yes"/>
			<point x="215" y="702"/>
			<point x="222" y="696"/>
			<point x="233" y="696" type="curve" smooth="yes"/>
			<point x="382" y="698" type="line"/>
			<point x="393" y="29" type="line"/>
			<point x="245" y="26" type="line" smooth="yes"/>
			<point x="234" y="26"/>
			<point x="227" y="20"/>
			<point x="227" y="11" type="curve" smooth="yes"/>
			<point x="227" y="2"/>
			<point x="234" y="-4"/>
			<point x="245" y="-4" type="curve" smooth="yes"/>
		</contour>
	</outline>
</glyph>
<glyph name="underscore" format="2">
	<advance width="700"/>
	<unicode hex="005F"/>
	<outline>
		<contour>
			<point x="114" y="0" type="curve" smooth="yes"/>
			<point x="586" y="0" type="line" smooth="yes"/>
			<point x="601" y="0"/>
			<point x="613" y="11"/>
			<point x="613" y="25" type="curve" smooth="yes"/>
			<point x="612" y="50" type="line" smooth="yes"/>
			<point x="612" y="64"/>
			<point x="600" y="75"/>
			<point x="585" y="75" type="curve" smooth="yes"/>
			<point x="113" y="75" type="line" smooth="yes"/>
			<point x="98" y="75"/>
			<point x="85" y="64"/>
			<point x="86" y="50" type="curve" smooth="yes"/>
			<point x="87" y="25" type="line" smooth="yes"/>
			<point x="88" y="11"/>
			<point x="99" y="0"/>
		</contour>
	</outline>
</glyph>
<glyph name="a" format="2">
	<advance width="700"/>
	<unicode hex="0061"/>
	<outline>
		<contour>
			<point x="316" y="512" type="curve" smooth="yes"/>
			<point x="220" y="512"/>
			<point x="136" y="442"/>
			<point x="139" y="376" type="curve"/>
			<point x="139" y="344"/>
			<point x="165" y="322"/>
			<point x="192" y="321" type="curve" smooth="yes"/>
			<point x="231" y="320"/>
			<point x="246" y="352"/>
			<point x="247" y="374" type="curve" smooth="yes"/>
			<point x="248" y="404"/>
			<point x="229" y="425"/>
			<point x="204" y="429" type="curve"/>
			<point x="222" y="467"/>
			<point x="281" y="482"/>
			<point x="318" y="482" type="curve" smooth="yes"/>
			<point x="395" y="482"/>
			<point x="421" y="440"/>
			<point x="421" y="381" type="curve" smooth="yes"/>
			<point x="421" y="340" type="line" smooth="yes"/>
			<point x="421" y="308"/>
			<point x="401" y="296"/>
			<point x="322" y="284" type="curve"/>
			<point x="257" y="274" type="line" smooth="yes"/>
			<point x="157" y="259"/>
			<point x="116" y="209"/>
			<point x="116" y="128" type="curve" smooth="yes"/>
			<point x="116" y="31"/>
			<point x="170" y="-5"/>
			<point x="256" y="-5" type="curve" smooth="yes"/>
			<point x="298" y="-5"/>
			<point x="342" y="5"/>
			<point x="380" y="28" type="curve" smooth="yes"/>
			<point x="422" y="53" type="line"/>
			<point x="458" y="17" type="line" smooth="yes"/>
			<point x="466" y="9"/>
			<point x="482" y="-4"/>
			<point x="512" y="-4" type="curve" smooth="yes"/>
			<point x="566" y="-4"/>
			<point x="595" y="36"/>
			<point x="618" y="85" type="curve" smooth="yes"/>
			<point x="638" y="127"/>
			<point x="653" y="154"/>
			<point x="633" y="160" type="curve" smooth="yes"/>
			<point x="626" y="162"/>
			<point x="621" y="164"/>
			<point x="608" y="136" type="curve" smooth="yes"/>
			<point x="574" y="62"/>
			<point x="528" y="5"/>
			<point x="501" y="44" type="curve"/>
			<point x="501" y="366" type="line" smooth="yes"/>
			<point x="501" y="460"/>
			<point x="431" y="512"/>
		</contour>
		<contour>
			<point x="196" y="138" type="curve" smooth="yes"/>
			<point x="196" y="217"/>
			<point x="243" y="250"/>
			<point x="326" y="265" type="curve" smooth="yes"/>
			<point x="421" y="282" type="line"/>
			<point x="421" y="109" type="line" smooth="yes"/>
			<point x="421" y="99"/>
			<point x="419" y="86"/>
			<point x="409" y="76" type="curve" smooth="yes"/>
			<point x="377" y="44"/>
			<point x="324" y="30"/>
			<point x="286" y="30" type="curve" smooth="yes"/>
			<point x="230" y="30"/>
			<point x="196" y="64"/>
		</contour>
	</outline>
</glyph>
<glyph name="b" format="2">
	<advance width="700"/>
	<unicode hex="0062"/>
	<outline>
		<contour>
			<point x="140" y="700" type="line"/>
			<point x="140" y="14" type="line" smooth="yes"/>
			<point x="140" y="5"/>
			<point x="140" y="0"/>
			<point x="155" y="0" type="curve" smooth="yes"/>
			<point x="178" y="0" type="line"/>
			<point x="192" y="0"/>
			<point x="195" y="11"/>
			<point x="222" y="45" type="curve"/>
			<point x="245" y="33"/>
			<point x="306" y="0"/>
			<point x="374" y="0" type="curve" smooth="yes"/>
			<point x="529" y="0"/>
			<point x="585" y="128"/>
			<point x="585" y="254" type="curve" smooth="yes"/>
			<point x="585" y="404"/>
			<point x="506" y="508"/>
			<point x="376" y="508" type="curve" smooth="yes"/>
			<point x="340" y="508"/>
			<point x="294" y="491"/>
			<point x="263" y="474" type="curve" smooth="yes"/>
			<point x="220" y="450" type="line"/>
			<point x="220" y="709" type="line" smooth="yes"/>
			<point x="220" y="731"/>
			<point x="206" y="730"/>
			<point x="199" y="730" type="curve" smooth="yes"/>
			<point x="59" y="730" type="line"/>
			<point x="48" y="730"/>
			<point x="41" y="724"/>
			<point x="41" y="715" type="curve" smooth="yes"/>
			<point x="41" y="706"/>
			<point x="48" y="700"/>
			<point x="59" y="700" type="curve" smooth="yes"/>
		</contour>
		<contour>
			<point x="220" y="391" type="line"/>
			<point x="249" y="415" type="line" smooth="yes"/>
			<point x="286" y="445"/>
			<point x="328" y="478"/>
			<point x="376" y="478" type="curve" smooth="yes"/>
			<point x="457" y="478"/>
			<point x="506" y="372"/>
			<point x="505" y="254" type="curve" smooth="yes"/>
			<point x="504" y="154"/>
			<point x="470" y="37"/>
			<point x="359" y="37" type="curve" smooth="yes"/>
			<point x="322" y="37"/>
			<point x="281" y="61"/>
			<point x="241" y="91" type="curve" smooth="yes"/>
			<point x="221" y="106"/>
			<point x="220" y="116"/>
			<point x="220" y="147" type="curve" smooth="yes"/>
		</contour>
	</outline>
</glyph>
<glyph name="c" format="2">
	<advance width="700"/>
	<unicode hex="0063"/>
	<outline>
		<contour>
			<point x="562" y="378" type="curve" smooth="yes"/>
			<point x="562" y="342"/>
			<point x="534" y="322"/>
			<point x="508" y="322" type="curve" smooth="yes"/>
			<point x="473" y="322"/>
			<point x="454" y="350"/>
			<point x="454" y="376" type="curve" smooth="yes"/>
			<point x="454" y="405"/>
			<point x="475" y="426"/>
			<point x="500" y="430" type="curve"/>
			<point x="492" y="447"/>
			<point x="451" y="480"/>
			<point x="380" y="480" type="curve" smooth="yes"/>
			<point x="265" y="480"/>
			<point x="212" y="352"/>
			<point x="212" y="247" type="curve" smooth="yes"/>
			<point x="212" y="151"/>
			<point x="259" y="31"/>
			<point x="367" y="31" type="curve" smooth="yes"/>
			<point x="439" y="31"/>
			<point x="488" y="78"/>
			<point x="528" y="124" type="curve" smooth="yes"/>
			<point x="542" y="140"/>
			<point x="553" y="152"/>
			<point x="565" y="144" type="curve" smooth="yes"/>
			<point x="583" y="132"/>
			<point x="562" y="108"/>
			<point x="533" y="77" type="curve" smooth="yes"/>
			<point x="480" y="20"/>
			<point x="420" y="0"/>
			<point x="356" y="0" type="curve" smooth="yes"/>
			<point x="254" y="0"/>
			<point x="132" y="67"/>
			<point x="132" y="247" type="curve"/>
			<point x="132" y="447"/>
			<point x="286" y="510"/>
			<point x="380" y="510" type="curve" smooth="yes"/>
			<point x="484" y="510"/>
			<point x="562" y="447"/>
		</contour>
	</outline>
</glyph>
<glyph name="d" format="2">
	<advance width="700"/>
	<unicode hex="0064"/>
	<outline>
		<contour>
			<point x="286" y="508" type="curve" smooth="yes"/>
			<point x="156" y="508"/>
			<point x="77" y="404"/>
			<point x="77" y="254" type="curve" smooth="yes"/>
			<point x="77" y="128"/>
			<point x="133" y="0"/>
			<point x="288" y="0" type="curve" smooth="yes"/>
			<point x="356" y="0"/>
			<point x="417" y="33"/>
			<point x="440" y="45" type="curve"/>
			<point x="467" y="11"/>
			<point x="470" y="0"/>
			<point x="484" y="0" type="curve"/>
			<point x="630" y="0" type="line" smooth="yes"/>
			<point x="641" y="0"/>
			<point x="648" y="6"/>
			<point x="648" y="15" type="curve" smooth="yes"/>
			<point x="648" y="24"/>
			<point x="641" y="30"/>
			<point x="630" y="30" type="curve" smooth="yes"/>
			<point x="522" y="30" type="line"/>
			<point x="522" y="709" type="line" smooth="yes"/>
			<point x="522" y="731"/>
			<point x="508" y="730"/>
			<point x="501" y="730" type="curve" smooth="yes"/>
			<point x="361" y="730" type="line"/>
			<point x="350" y="730"/>
			<point x="343" y="724"/>
			<point x="343" y="715" type="curve" smooth="yes"/>
			<point x="343" y="706"/>
			<point x="350" y="700"/>
			<point x="361" y="700" type="curve" smooth="yes"/>
			<point x="442" y="700" type="line"/>
			<point x="442" y="450" type="line"/>
			<point x="399" y="474" type="line" smooth="yes"/>
			<point x="368" y="491"/>
			<point x="322" y="508"/>
		</contour>
		<contour>
			<point x="442" y="391" type="line"/>
			<point x="442" y="147" type="line" smooth="yes"/>
			<point x="442" y="116"/>
			<point x="441" y="106"/>
			<point x="421" y="91" type="curve" smooth="yes"/>
			<point x="381" y="61"/>
			<point x="340" y="37"/>
			<point x="303" y="37" type="curve" smooth="yes"/>
			<point x="192" y="37"/>
			<point x="158" y="154"/>
			<point x="157" y="254" type="curve" smooth="yes"/>
			<point x="156" y="372"/>
			<point x="205" y="478"/>
			<point x="286" y="478" type="curve" smooth="yes"/>
			<point x="334" y="478"/>
			<point x="376" y="445"/>
			<point x="413" y="415" type="curve" smooth="yes"/>
		</contour>
	</outline>
</glyph>
<glyph name="e" format="2">
	<advance width="700"/>
	<unicode hex="0065"/>
	<outline>
		<contour>
			<point x="373" y="27" type="curve" smooth="yes"/>
			<point x="250" y="27"/>
			<point x="208" y="161"/>
			<point x="208" y="247" type="curve"/>
			<point x="561" y="247" type="line"/>
			<point x="567" y="247"/>
			<point x="582" y="247"/>
			<point x="582" y="264" type="curve" smooth="yes"/>
			<point x="582" y="433"/>
			<point x="478" y="509"/>
			<point x="358" y="509" type="curve" smooth="yes"/>
			<point x="210" y="509"/>
			<point x="128" y="375"/>
			<point x="128" y="247" type="curve" smooth="yes"/>
			<point x="128" y="67"/>
			<point x="255" y="-3"/>
			<point x="362" y="-3" type="curve" smooth="yes"/>
			<point x="426" y="-3"/>
			<point x="481" y="14"/>
			<point x="541" y="80" type="curve" smooth="yes"/>
			<point x="579" y="121"/>
			<point x="580" y="137"/>
			<point x="566" y="145" type="curve" smooth="yes"/>
			<point x="556" y="151"/>
			<point x="545" y="139"/>
			<point x="535" y="127" type="curve" smooth="yes"/>
			<point x="495" y="79"/>
			<point x="450" y="27"/>
		</contour>
		<contour>
			<point x="211" y="309" type="curve" smooth="yes"/>
			<point x="220" y="367"/>
			<point x="252" y="479"/>
			<point x="359" y="479" type="curve" smooth="yes"/>
			<point x="484" y="479"/>
			<point x="502" y="334"/>
			<point x="502" y="277" type="curve"/>
			<point x="226" y="277" type="line" smooth="yes"/>
			<point x="208" y="277"/>
			<point x="209" y="296"/>
		</contour>
	</outline>
</glyph>
<glyph name="f" format="2">
	<advance width="700"/>
	<unicode hex="0066"/>
	<outline>
		<contour>
			<point x="557" y="652" type="curve"/>
			<point x="531" y="654"/>
			<point x="506" y="639"/>
			<point x="500" y="608" type="curve" smooth="yes"/>
			<point x="496" y="586"/>
			<point x="506" y="553"/>
			<point x="541" y="545" type="curve" smooth="yes"/>
			<point x="568" y="539"/>
			<point x="597" y="550"/>
			<point x="608" y="589" type="curve" smooth="yes"/>
			<point x="625" y="653"/>
			<point x="564" y="733"/>
			<point x="449" y="733" type="curve" smooth="yes"/>
			<point x="301" y="733"/>
			<point x="264" y="612"/>
			<point x="264" y="529" type="curve" smooth="yes"/>
			<point x="264" y="479" type="line"/>
			<point x="139" y="479" type="line" smooth="yes"/>
			<point x="128" y="479"/>
			<point x="121" y="473"/>
			<point x="121" y="464" type="curve" smooth="yes"/>
			<point x="121" y="455"/>
			<point x="128" y="449"/>
			<point x="139" y="449" type="curve" smooth="yes"/>
			<point x="264" y="449" type="line"/>
			<point x="265" y="30" type="line"/>
			<point x="139" y="30" type="line" smooth="yes"/>
			<point x="128" y="30"/>
			<point x="121" y="24"/>
			<point x="121" y="15" type="curve" smooth="yes"/>
			<point x="121" y="6"/>
			<point x="128" y="0"/>
			<point x="139" y="0" type="curve" smooth="yes"/>
			<point x="468" y="0" type="line" smooth="yes"/>
			<point x="479" y="0"/>
			<point x="485" y="6"/>
			<point x="485" y="15" type="curve" smooth="yes"/>
			<point x="485" y="24"/>
			<point x="479" y="30"/>
			<point x="468" y="30" type="curve" smooth="yes"/>
			<point x="345" y="30" type="line"/>
			<point x="345" y="449" type="line"/>
			<point x="468" y="449" type="line" smooth="yes"/>
			<point x="479" y="449"/>
			<point x="485" y="455"/>
			<point x="485" y="464" type="curve" smooth="yes"/>
			<point x="485" y="473"/>
			<point x="479" y="479"/>
			<point x="468" y="479" type="curve" smooth="yes"/>
			<point x="345" y="479" type="line"/>
			<point x="345" y="566" type="line" smooth="yes"/>
			<point x="345" y="605"/>
			<point x="351" y="703"/>
			<point x="449" y="703" type="curve" smooth="yes"/>
			<point x="513" y="703"/>
			<point x="546" y="674"/>
		</contour>
	</outline>
</glyph>
<glyph name="g" format="2">
	<advance width="700"/>
	<unicode hex="0067"/>
	<outline>
		<contour>
			<point x="335" y="122" type="curve" smooth="yes"/>
			<point x="442" y="122"/>
			<point x="521" y="208"/>
			<point x="521" y="316" type="curve" smooth="yes"/>
			<point x="521" y="424"/>
			<point x="442" y="510"/>
			<point x="335" y="510" type="curve" smooth="yes"/>
			<point x="227" y="510"/>
			<point x="149" y="422"/>
			<point x="149" y="316" type="curve" smooth="yes"/>
			<point x="149" y="208"/>
			<point x="227" y="122"/>
		</contour>
		<contour>
			<point x="335" y="152" type="curve" smooth="yes"/>
			<point x="249" y="152"/>
			<point x="229" y="250"/>
			<point x="229" y="316" type="curve" smooth="yes"/>
			<point x="229" y="382"/>
			<point x="249" y="480"/>
			<point x="335" y="480" type="curve" smooth="yes"/>
			<point x="420" y="480"/>
			<point x="441" y="382"/>
			<point x="441" y="316" type="curve" smooth="yes"/>
			<point x="441" y="250"/>
			<point x="420" y="152"/>
		</contour>
		<contour>
			<point x="505" y="-89" type="curve" smooth="yes"/>
			<point x="499" y="-140"/>
			<point x="423" y="-180"/>
			<point x="293" y="-180" type="curve" smooth="yes"/>
			<point x="171" y="-180"/>
			<point x="134" y="-149"/>
			<point x="134" y="-97" type="curve" smooth="yes"/>
			<point x="134" y="-57"/>
			<point x="180" y="-15"/>
			<point x="258" y="-14" type="curve"/>
			<point x="221" y="5" type="line"/>
			<point x="134" y="-2"/>
			<point x="96" y="-56"/>
			<point x="96" y="-95" type="curve" smooth="yes"/>
			<point x="96" y="-173"/>
			<point x="149" y="-210"/>
			<point x="293" y="-210" type="curve" smooth="yes"/>
			<point x="477" y="-210"/>
			<point x="558" y="-147"/>
			<point x="558" y="-52" type="curve" smooth="yes"/>
			<point x="558" y="37"/>
			<point x="468" y="51"/>
			<point x="355" y="51" type="curve" smooth="yes"/>
			<point x="331" y="51"/>
			<point x="323" y="51"/>
			<point x="253" y="51" type="curve"/>
			<point x="244" y="51" type="line" smooth="yes"/>
			<point x="188" y="51"/>
			<point x="150" y="66"/>
			<point x="150" y="96" type="curve" smooth="yes"/>
			<point x="150" y="107"/>
			<point x="158" y="119"/>
			<point x="174" y="136" type="curve" smooth="yes"/>
			<point x="189" y="152"/>
			<point x="207" y="169"/>
			<point x="229" y="188" type="curve"/>
			<point x="205" y="217" type="line"/>
			<point x="185" y="199"/>
			<point x="164" y="180"/>
			<point x="137" y="149" type="curve" smooth="yes"/>
			<point x="121" y="131"/>
			<point x="108" y="106"/>
			<point x="108" y="85" type="curve" smooth="yes"/>
			<point x="108" y="19"/>
			<point x="144" y="-14"/>
			<point x="244" y="-14" type="curve" smooth="yes"/>
			<point x="269" y="-14"/>
			<point x="296" y="-14"/>
			<point x="357" y="-14" type="curve" smooth="yes"/>
			<point x="455" y="-14"/>
			<point x="511" y="-35"/>
		</contour>
		<contour>
			<point x="573" y="503" type="curve" smooth="yes"/>
			<point x="535" y="503"/>
			<point x="503" y="473"/>
			<point x="495" y="406" type="curve"/>
			<point x="521" y="316" type="line"/>
			<point x="521" y="358"/>
			<point x="523" y="437"/>
			<point x="523" y="437" type="curve"/>
			<point x="527" y="407"/>
			<point x="555" y="394"/>
			<point x="574" y="395" type="curve" smooth="yes"/>
			<point x="608" y="396"/>
			<point x="627" y="420"/>
			<point x="627" y="449" type="curve" smooth="yes"/>
			<point x="627" y="478"/>
			<point x="603" y="503"/>
		</contour>
	</outline>
</glyph>
<glyph name="h" format="2">
	<advance width="700"/>
	<unicode hex="0068"/>
	<outline>
		<contour>
			<point x="160" y="700" type="line"/>
			<point x="160" y="30" type="line"/>
			<point x="82" y="30" type="line" smooth="yes"/>
			<point x="71" y="30"/>
			<point x="64" y="24"/>
			<point x="64" y="15" type="curve" smooth="yes"/>
			<point x="64" y="6"/>
			<point x="71" y="0"/>
			<point x="82" y="0" type="curve" smooth="yes"/>
			<point x="319" y="0" type="line" smooth="yes"/>
			<point x="330" y="0"/>
			<point x="336" y="6"/>
			<point x="336" y="15" type="curve" smooth="yes"/>
			<point x="336" y="24"/>
			<point x="330" y="30"/>
			<point x="319" y="30" type="curve" smooth="yes"/>
			<point x="240" y="30" type="line"/>
			<point x="240" y="378" type="line"/>
			<point x="292" y="419" type="line" smooth="yes"/>
			<point x="316" y="438"/>
			<point x="362" y="470"/>
			<point x="402" y="470" type="curve" smooth="yes"/>
			<point x="461" y="470"/>
			<point x="487" y="437"/>
			<point x="487" y="370" type="curve" smooth="yes"/>
			<point x="487" y="30" type="line"/>
			<point x="409" y="30" type="line" smooth="yes"/>
			<point x="398" y="30"/>
			<point x="391" y="24"/>
			<point x="391" y="15" type="curve" smooth="yes"/>
			<point x="391" y="6"/>
			<point x="398" y="0"/>
			<point x="409" y="0" type="curve" smooth="yes"/>
			<point x="646" y="0" type="line" smooth="yes"/>
			<point x="657" y="0"/>
			<point x="663" y="6"/>
			<point x="663" y="15" type="curve" smooth="yes"/>
			<point x="663" y="24"/>
			<point x="657" y="30"/>
			<point x="646" y="30" type="curve" smooth="yes"/>
			<point x="567" y="30" type="line"/>
			<point x="567" y="338" type="line" smooth="yes"/>
			<point x="567" y="440"/>
			<point x="522" y="508"/>
			<point x="424" y="508" type="curve" smooth="yes"/>
			<point x="379" y="508"/>
			<point x="338" y="495"/>
			<point x="294" y="465" type="curve" smooth="yes"/>
			<point x="242" y="430" type="line"/>
			<point x="242" y="715" type="line" smooth="yes"/>
			<point x="242" y="724"/>
			<point x="236" y="730"/>
			<point x="225" y="730" type="curve" smooth="yes"/>
			<point x="65" y="730" type="line" smooth="yes"/>
			<point x="54" y="730"/>
			<point x="47" y="724"/>
			<point x="47" y="715" type="curve" smooth="yes"/>
			<point x="47" y="706"/>
			<point x="54" y="700"/>
			<point x="65" y="700" type="curve" smooth="yes"/>
		</contour>
	</outline>
</glyph>
<glyph name="i" format="2">
	<advance width="700"/>
	<unicode hex="0069"/>
	<outline>
		<contour>
			<point x="106" y="15" type="curve" smooth="yes"/>
			<point x="106" y="6"/>
			<point x="113" y="0"/>
			<point x="124" y="0" type="curve" smooth="yes"/>
			<point x="577" y="0" type="line" smooth="yes"/>
			<point x="588" y="0"/>
			<point x="594" y="6"/>
			<point x="594" y="15" type="curve" smooth="yes"/>
			<point x="594" y="24"/>
			<point x="588" y="30"/>
			<point x="577" y="30" type="curve" smooth="yes"/>
			<point x="390" y="30" type="line"/>
			<point x="390" y="485" type="line" smooth="yes"/>
			<point x="390" y="494"/>
			<point x="384" y="500"/>
			<point x="373" y="500" type="curve" smooth="yes"/>
			<point x="124" y="500" type="line" smooth="yes"/>
			<point x="113" y="500"/>
			<point x="106" y="494"/>
			<point x="106" y="485" type="curve" smooth="yes"/>
			<point x="106" y="476"/>
			<point x="113" y="470"/>
			<point x="124" y="470" type="curve" smooth="yes"/>
			<point x="310" y="470" type="line"/>
			<point x="310" y="30" type="line"/>
			<point x="124" y="30" type="line" smooth="yes"/>
			<point x="113" y="30"/>
			<point x="106" y="24"/>
		</contour>
		<contour>
			<point x="338" y="629" type="curve" smooth="yes"/>
			<point x="366" y="629"/>
			<point x="388" y="649"/>
			<point x="388" y="676" type="curve" smooth="yes"/>
			<point x="388" y="703"/>
			<point x="366" y="723"/>
			<point x="338" y="723" type="curve" smooth="yes"/>
			<point x="311" y="723"/>
			<point x="288" y="703"/>
			<point x="288" y="676" type="curve" smooth="yes"/>
			<point x="288" y="649"/>
			<point x="311" y="629"/>
		</contour>
	</outline>
</glyph>
<glyph name="j" format="2">
	<advance width="700"/>
	<unicode hex="006A"/>
	<outline>
		<contour>
			<point x="458" y="500" type="curve" smooth="yes"/>
			<point x="209" y="500" type="line" smooth="yes"/>
			<point x="198" y="500"/>
			<point x="191" y="494"/>
			<point x="191" y="485" type="curve" smooth="yes"/>
			<point x="191" y="476"/>
			<point x="198" y="470"/>
			<point x="209" y="470" type="curve" smooth="yes"/>
			<point x="395" y="470" type="line"/>
			<point x="395" y="31" type="line" smooth="yes"/>
			<point x="395" y="-66"/>
			<point x="405" y="-176"/>
			<point x="281" y="-176" type="curve" smooth="yes"/>
			<point x="224" y="-176"/>
			<point x="181" y="-136"/>
			<point x="180" y="-123" type="curve"/>
			<point x="214" y="-120"/>
			<point x="228" y="-101"/>
			<point x="233" y="-84" type="curve" smooth="yes"/>
			<point x="241" y="-56"/>
			<point x="227" y="-27"/>
			<point x="200" y="-17" type="curve" smooth="yes"/>
			<point x="172" y="-7"/>
			<point x="142" y="-20"/>
			<point x="129" y="-52" type="curve" smooth="yes"/>
			<point x="97" y="-131"/>
			<point x="180" y="-206"/>
			<point x="281" y="-206" type="curve" smooth="yes"/>
			<point x="481" y="-206"/>
			<point x="475" y="-56"/>
			<point x="475" y="31" type="curve" smooth="yes"/>
			<point x="475" y="485" type="line" smooth="yes"/>
			<point x="475" y="494"/>
			<point x="469" y="500"/>
		</contour>
		<contour>
			<point x="423" y="629" type="curve" smooth="yes"/>
			<point x="451" y="629"/>
			<point x="473" y="649"/>
			<point x="473" y="676" type="curve" smooth="yes"/>
			<point x="473" y="703"/>
			<point x="451" y="723"/>
			<point x="423" y="723" type="curve" smooth="yes"/>
			<point x="396" y="723"/>
			<point x="373" y="703"/>
			<point x="373" y="676" type="curve" smooth="yes"/>
			<point x="373" y="649"/>
			<point x="396" y="629"/>
		</contour>
	</outline>
</glyph>
<glyph name="k" format="2">
	<advance width="700"/>
	<unicode hex="006B"/>
	<outline>
		<contour>
			<point x="142" y="700" type="line"/>
			<point x="142" y="30" type="line"/>
			<point x="70" y="30" type="line" smooth="yes"/>
			<point x="59" y="30"/>
			<point x="52" y="24"/>
			<point x="52" y="15" type="curve" smooth="yes"/>
			<point x="52" y="6"/>
			<point x="59" y="0"/>
			<point x="70" y="0" type="curve" smooth="yes"/>
			<point x="306" y="0" type="line" smooth="yes"/>
			<point x="317" y="0"/>
			<point x="323" y="6"/>
			<point x="323" y="15" type="curve" smooth="yes"/>
			<point x="323" y="24"/>
			<point x="317" y="30"/>
			<point x="306" y="30" type="curve" smooth="yes"/>
			<point x="224" y="30" type="line"/>
			<point x="224" y="164" type="line"/>
			<point x="300" y="240" type="line"/>
			<point x="489" y="30" type="line"/>
			<point x="407" y="30" type="line" smooth="yes"/>
			<point x="396" y="30"/>
			<point x="389" y="24"/>
			<point x="389" y="15" type="curve" smooth="yes"/>
			<point x="389" y="6"/>
			<point x="396" y="0"/>
			<point x="407" y="0" type="curve" smooth="yes"/>
			<point x="643" y="0" type="line" smooth="yes"/>
			<point x="654" y="0"/>
			<point x="660" y="6"/>
			<point x="660" y="15" type="curve" smooth="yes"/>
			<point x="660" y="24"/>
			<point x="654" y="30"/>
			<point x="643" y="30" type="curve" smooth="yes"/>
			<point x="568" y="30" type="line"/>
			<point x="344" y="284" type="line"/>
			<point x="530" y="470" type="line"/>
			<point x="603" y="470" type="line" smooth="yes"/>
			<point x="614" y="470"/>
			<point x="620" y="476"/>
			<point x="620" y="485" type="curve" smooth="yes"/>
			<point x="620" y="494"/>
			<point x="614" y="500"/>
			<point x="603" y="500" type="curve" smooth="yes"/>
			<point x="357" y="500" type="line" smooth="yes"/>
			<point x="346" y="500"/>
			<point x="339" y="494"/>
			<point x="339" y="485" type="curve" smooth="yes"/>
			<point x="339" y="476"/>
			<point x="346" y="470"/>
			<point x="357" y="470" type="curve" smooth="yes"/>
			<point x="482" y="470" type="line"/>
			<point x="224" y="212" type="line"/>
			<point x="224" y="715" type="line" smooth="yes"/>
			<point x="224" y="724"/>
			<point x="218" y="730"/>
			<point x="207" y="730" type="curve" smooth="yes"/>
			<point x="57" y="730" type="line" smooth="yes"/>
			<point x="46" y="730"/>
			<point x="39" y="724"/>
			<point x="39" y="715" type="curve" smooth="yes"/>
			<point x="39" y="706"/>
			<point x="46" y="700"/>
			<point x="57" y="700" type="curve" smooth="yes"/>
		</contour>
	</outline>
</glyph>
<glyph name="l" format="2">
	<advance width="700"/>
	<unicode hex="006C"/>
	<outline>
		<contour>
			<point x="163" y="730" type="line" smooth="yes"/>
			<point x="152" y="730"/>
			<point x="145" y="724"/>
			<point x="145" y="715" type="curve" smooth="yes"/>
			<point x="145" y="706"/>
			<point x="152" y="700"/>
			<point x="163" y="700" type="curve" smooth="yes"/>
			<point x="318" y="700" type="line"/>
			<point x="318" y="30" type="line"/>
			<point x="152" y="30" type="line" smooth="yes"/>
			<point x="141" y="30"/>
			<point x="134" y="24"/>
			<point x="134" y="15" type="curve" smooth="yes"/>
			<point x="134" y="6"/>
			<point x="141" y="0"/>
			<point x="152" y="0" type="curve" smooth="yes"/>
			<point x="568" y="0" type="line" smooth="yes"/>
			<point x="579" y="0"/>
			<point x="585" y="6"/>
			<point x="585" y="15" type="curve" smooth="yes"/>
			<point x="585" y="24"/>
			<point x="579" y="30"/>
			<point x="568" y="30" type="curve" smooth="yes"/>
			<point x="398" y="30" type="line"/>
			<point x="398" y="715" type="line" smooth="yes"/>
			<point x="398" y="724"/>
			<point x="392" y="730"/>
			<point x="381" y="730" type="curve" smooth="yes"/>
		</contour>
	</outline>
</glyph>
<glyph name="m" format="2">
	<advance width="700"/>
	<unicode hex="006D"/>
	<outline>
		<contour>
			<point x="25" y="485" type="curve" smooth="yes"/>
			<point x="25" y="476"/>
			<point x="32" y="470"/>
			<point x="43" y="470" type="curve" smooth="yes"/>
			<point x="96" y="470" type="line"/>
			<point x="96" y="30" type="line"/>
			<point x="46" y="30" type="line" smooth="yes"/>
			<point x="35" y="30"/>
			<point x="28" y="24"/>
			<point x="28" y="15" type="curve" smooth="yes"/>
			<point x="28" y="6"/>
			<point x="35" y="0"/>
			<point x="46" y="0" type="curve" smooth="yes"/>
			<point x="208" y="0" type="line" smooth="yes"/>
			<point x="219" y="0"/>
			<point x="225" y="6"/>
			<point x="225" y="15" type="curve" smooth="yes"/>
			<point x="225" y="24"/>
			<point x="219" y="30"/>
			<point x="208" y="30" type="curve" smooth="yes"/>
			<point x="167" y="30" type="line"/>
			<point x="167" y="388" type="line"/>
			<point x="194" y="436"/>
			<point x="219" y="472"/>
			<point x="265" y="472" type="curve" smooth="yes"/>
			<point x="305" y="472"/>
			<point x="317" y="441"/>
			<point x="317" y="400" type="curve" smooth="yes"/>
			<point x="317" y="30" type="line"/>
			<point x="273" y="30" type="line" smooth="yes"/>
			<point x="262" y="30"/>
			<point x="255" y="24"/>
			<point x="255" y="15" type="curve" smooth="yes"/>
			<point x="255" y="6"/>
			<point x="262" y="0"/>
			<point x="273" y="0" type="curve" smooth="yes"/>
			<point x="430" y="0" type="line" smooth="yes"/>
			<point x="441" y="0"/>
			<point x="447" y="6"/>
			<point x="447" y="15" type="curve" smooth="yes"/>
			<point x="447" y="24"/>
			<point x="441" y="30"/>
			<point x="430" y="30" type="curve" smooth="yes"/>
			<point x="387" y="30" type="line"/>
			<point x="387" y="385" type="line"/>
			<point x="414" y="436"/>
			<point x="442" y="471"/>
			<point x="483" y="471" type="curve" smooth="yes"/>
			<point x="520" y="471"/>
			<point x="537" y="441"/>
			<point x="537" y="400" type="curve" smooth="yes"/>
			<point x="537" y="30" type="line"/>
			<point x="495" y="30" type="line" smooth="yes"/>
			<point x="484" y="30"/>
			<point x="477" y="24"/>
			<point x="477" y="15" type="curve" smooth="yes"/>
			<point x="477" y="6"/>
			<point x="484" y="0"/>
			<point x="495" y="0" type="curve" smooth="yes"/>
			<point x="657" y="0" type="line" smooth="yes"/>
			<point x="668" y="0"/>
			<point x="674" y="6"/>
			<point x="674" y="15" type="curve" smooth="yes"/>
			<point x="674" y="24"/>
			<point x="668" y="30"/>
			<point x="657" y="30" type="curve" smooth="yes"/>
			<point x="607" y="30" type="line"/>
			<point x="607" y="382" type="line" smooth="yes"/>
			<point x="607" y="455"/>
			<point x="586" y="508"/>
			<point x="507" y="508" type="curve" smooth="yes"/>
			<point x="458" y="508"/>
			<point x="416" y="475"/>
			<point x="387" y="437" type="curve"/>
			<point x="371" y="477"/>
			<point x="338" y="508"/>
			<point x="293" y="508" type="curve" smooth="yes"/>
			<point x="242" y="508"/>
			<point x="197" y="477"/>
			<point x="169" y="441" type="curve"/>
			<point x="154" y="476" type="line" smooth="yes"/>
			<point x="146" y="494"/>
			<point x="138" y="500"/>
			<point x="123" y="500" type="curve" smooth="yes"/>
			<point x="43" y="500" type="line" smooth="yes"/>
			<point x="32" y="500"/>
			<point x="25" y="494"/>
		</contour>
	</outline>
</glyph>
<glyph name="n" format="2">
	<advance width="700"/>
	<unicode hex="006E"/>
	<outline>
		<contour>
			<point x="151" y="30" type="line"/>
			<point x="72" y="30" type="line" smooth="yes"/>
			<point x="61" y="30"/>
			<point x="54" y="24"/>
			<point x="54" y="15" type="curve" smooth="yes"/>
			<point x="54" y="6"/>
			<point x="61" y="0"/>
			<point x="72" y="0" type="curve" smooth="yes"/>
			<point x="309" y="0" type="line" smooth="yes"/>
			<point x="320" y="0"/>
			<point x="326" y="6"/>
			<point x="326" y="15" type="curve" smooth="yes"/>
			<point x="326" y="24"/>
			<point x="320" y="30"/>
			<point x="309" y="30" type="curve" smooth="yes"/>
			<point x="231" y="30" type="line"/>
			<point x="231" y="378" type="line"/>
			<point x="282" y="419" type="line" smooth="yes"/>
			<point x="306" y="438"/>
			<point x="352" y="470"/>
			<point x="392" y="470" type="curve" smooth="yes"/>
			<point x="451" y="470"/>
			<point x="477" y="437"/>
			<point x="477" y="370" type="curve" smooth="yes"/>
			<point x="477" y="30" type="line"/>
			<point x="399" y="30" type="line" smooth="yes"/>
			<point x="388" y="30"/>
			<point x="381" y="24"/>
			<point x="381" y="15" type="curve" smooth="yes"/>
			<point x="381" y="6"/>
			<point x="388" y="0"/>
			<point x="399" y="0" type="curve" smooth="yes"/>
			<point x="636" y="0" type="line" smooth="yes"/>
			<point x="647" y="0"/>
			<point x="653" y="6"/>
			<point x="653" y="15" type="curve" smooth="yes"/>
			<point x="653" y="24"/>
			<point x="647" y="30"/>
			<point x="636" y="30" type="curve" smooth="yes"/>
			<point x="557" y="30" type="line"/>
			<point x="557" y="338" type="line" smooth="yes"/>
			<point x="557" y="440"/>
			<point x="512" y="508"/>
			<point x="414" y="508" type="curve" smooth="yes"/>
			<point x="369" y="508"/>
			<point x="327" y="495"/>
			<point x="284" y="465" type="curve" smooth="yes"/>
			<point x="233" y="430" type="line"/>
			<point x="216" y="476" type="line" smooth="yes"/>
			<point x="209" y="496"/>
			<point x="200" y="500"/>
			<point x="185" y="500" type="curve" smooth="yes"/>
			<point x="63" y="500" type="line" smooth="yes"/>
			<point x="52" y="500"/>
			<point x="45" y="494"/>
			<point x="45" y="485" type="curve" smooth="yes"/>
			<point x="45" y="476"/>
			<point x="52" y="470"/>
			<point x="63" y="470" type="curve" smooth="yes"/>
			<point x="151" y="470" type="line"/>
		</contour>
	</outline>
</glyph>
<glyph name="o" format="2">
	<advance width="700"/>
	<unicode hex="006F"/>
	<outline>
		<contour>
			<point x="350" y="-10" type="curve" smooth="yes"/>
			<point x="482" y="-10"/>
			<point x="580" y="94"/>
			<point x="580" y="250" type="curve" smooth="yes"/>
			<point x="580" y="406"/>
			<point x="482" y="510"/>
			<point x="350" y="510" type="curve" smooth="yes"/>
			<point x="218" y="510"/>
			<point x="121" y="406"/>
			<point x="121" y="250" type="curve" smooth="yes"/>
			<point x="121" y="94"/>
			<point x="218" y="-10"/>
		</contour>
		<contour>
			<point x="350" y="20" type="curve" smooth="yes"/>
			<point x="255" y="20"/>
			<point x="201" y="129"/>
			<point x="201" y="250" type="curve" smooth="yes"/>
			<point x="201" y="371"/>
			<point x="255" y="480"/>
			<point x="350" y="480" type="curve" smooth="yes"/>
			<point x="445" y="480"/>
			<point x="500" y="371"/>
			<point x="500" y="250" type="curve" smooth="yes"/>
			<point x="500" y="129"/>
			<point x="445" y="20"/>
		</contour>
	</outline>
</glyph>
<glyph name="q" format="2">
	<advance width="700"/>
	<unicode hex="0071"/>
	<outline>
		<contour>
			<point x="324" y="508" type="curve" smooth="yes"/>
			<point x="194" y="508"/>
			<point x="115" y="404"/>
			<point x="115" y="254" type="curve" smooth="yes"/>
			<point x="115" y="128"/>
			<point x="171" y="0"/>
			<point x="326" y="0" type="curve" smooth="yes"/>
			<point x="394" y="0"/>
			<point x="455" y="33"/>
			<point x="478" y="45" type="curve"/>
			<point x="478" y="-180" type="line"/>
			<point x="364" y="-180" type="line" smooth="yes"/>
			<point x="353" y="-180"/>
			<point x="346" y="-186"/>
			<point x="346" y="-195" type="curve" smooth="yes"/>
			<point x="346" y="-204"/>
			<point x="353" y="-210"/>
			<point x="364" y="-210" type="curve" smooth="yes"/>
			<point x="684" y="-210" type="line" smooth="yes"/>
			<point x="695" y="-210"/>
			<point x="701" y="-204"/>
			<point x="701" y="-195" type="curve" smooth="yes"/>
			<point x="701" y="-186"/>
			<point x="695" y="-180"/>
			<point x="684" y="-180" type="curve" smooth="yes"/>
			<point x="559" y="-180" type="line"/>
			<point x="559" y="485" type="line" smooth="yes"/>
			<point x="559" y="494"/>
			<point x="553" y="500"/>
			<point x="542" y="500" type="curve" smooth="yes"/>
			<point x="527" y="500" type="line" smooth="yes"/>
			<point x="512" y="500"/>
			<point x="507" y="494"/>
			<point x="496" y="476" type="curve"/>
			<point x="480" y="450" type="line"/>
			<point x="437" y="474" type="line" smooth="yes"/>
			<point x="406" y="491"/>
			<point x="360" y="508"/>
		</contour>
		<contour>
			<point x="480" y="391" type="line"/>
			<point x="480" y="147" type="line" smooth="yes"/>
			<point x="480" y="116"/>
			<point x="479" y="106"/>
			<point x="459" y="91" type="curve" smooth="yes"/>
			<point x="419" y="61"/>
			<point x="378" y="37"/>
			<point x="341" y="37" type="curve" smooth="yes"/>
			<point x="230" y="37"/>
			<point x="196" y="154"/>
			<point x="195" y="254" type="curve" smooth="yes"/>
			<point x="194" y="372"/>
			<point x="243" y="478"/>
			<point x="324" y="478" type="curve" smooth="yes"/>
			<point x="372" y="478"/>
			<point x="414" y="445"/>
			<point x="451" y="415" type="curve" smooth="yes"/>
		</contour>
	</outline>
</glyph>
<glyph name="r" format="2">
	<advance width="700"/>
	<unicode hex="0072"/>
	<outline>
		<contour>
			<point x="233" y="470" type="line"/>
			<point x="233" y="30" type="line"/>
			<point x="110" y="30" type="line" smooth="yes"/>
			<point x="99" y="30"/>
			<point x="92" y="24"/>
			<point x="92" y="15" type="curve" smooth="yes"/>
			<point x="92" y="6"/>
			<point x="99" y="0"/>
			<point x="110" y="0" type="curve" smooth="yes"/>
			<point x="438" y="0" type="line" smooth="yes"/>
			<point x="449" y="0"/>
			<point x="455" y="6"/>
			<point x="455" y="15" type="curve" smooth="yes"/>
			<point x="455" y="24"/>
			<point x="449" y="30"/>
			<point x="438" y="30" type="curve" smooth="yes"/>
			<point x="313" y="30" type="line"/>
			<point x="313" y="363" type="line"/>
			<point x="313" y="363"/>
			<point x="398" y="432"/>
			<point x="419" y="447" type="curve" smooth="yes"/>
			<point x="448" y="467"/>
			<point x="497" y="487"/>
			<point x="533" y="472" type="curve"/>
			<point x="513" y="466"/>
			<point x="494" y="447"/>
			<point x="494" y="419" type="curve" smooth="yes"/>
			<point x="494" y="392"/>
			<point x="516" y="366"/>
			<point x="548" y="366" type="curve" smooth="yes"/>
			<point x="580" y="366"/>
			<point x="602" y="392"/>
			<point x="603" y="421" type="curve" smooth="yes"/>
			<point x="605" y="472"/>
			<point x="564" y="504"/>
			<point x="500" y="504" type="curve" smooth="yes"/>
			<point x="453" y="504"/>
			<point x="396" y="470"/>
			<point x="375" y="456" type="curve" smooth="yes"/>
			<point x="316" y="417" type="line"/>
			<point x="296" y="476" type="line" smooth="yes"/>
			<point x="289" y="496"/>
			<point x="279" y="500"/>
			<point x="264" y="500" type="curve" smooth="yes"/>
			<point x="110" y="500" type="line" smooth="yes"/>
			<point x="99" y="500"/>
			<point x="92" y="494"/>
			<point x="92" y="485" type="curve" smooth="yes"/>
			<point x="92" y="476"/>
			<point x="99" y="470"/>
			<point x="110" y="470" type="curve" smooth="yes"/>
		</contour>
	</outline>
</glyph>
<glyph name="s" format="2">
	<advance width="700"/>
	<unicode hex="0073"/>
	<outline>
		<contour>
			<point x="355" y="19" type="curve" smooth="yes"/>
			<point x="295" y="19"/>
			<point x="258" y="48"/>
			<point x="221" y="78" type="curve" smooth="yes"/>
			<point x="187" y="106"/>
			<point x="174" y="144"/>
			<point x="170" y="158" type="curve" smooth="yes"/>
			<point x="166" y="171"/>
			<point x="163" y="182"/>
			<point x="153" y="182" type="curve" smooth="yes"/>
			<point x="139" y="182"/>
			<point x="138" y="170"/>
			<point x="138" y="155" type="curve" smooth="yes"/>
			<point x="138" y="26" type="line" smooth="yes"/>
			<point x="138" y="11"/>
			<point x="139" y="-1"/>
			<point x="153" y="-1" type="curve" smooth="yes"/>
			<point x="167" y="-1"/>
			<point x="168" y="11"/>
			<point x="168" y="26" type="curve" smooth="yes"/>
			<point x="168" y="98" type="line"/>
			<point x="179" y="72"/>
			<point x="251" y="-11"/>
			<point x="355" y="-11" type="curve" smooth="yes"/>
			<point x="476" y="-11"/>
			<point x="547" y="52"/>
			<point x="547" y="151" type="curve" smooth="yes"/>
			<point x="547" y="228"/>
			<point x="484" y="260"/>
			<point x="411" y="280" type="curve" smooth="yes"/>
			<point x="343" y="299" type="line" smooth="yes"/>
			<point x="282" y="316"/>
			<point x="210" y="339"/>
			<point x="210" y="398" type="curve" smooth="yes"/>
			<point x="210" y="433"/>
			<point x="223" y="481"/>
			<point x="315" y="481" type="curve" smooth="yes"/>
			<point x="392" y="481"/>
			<point x="438" y="434"/>
			<point x="449" y="420" type="curve" smooth="yes"/>
			<point x="463" y="402"/>
			<point x="466" y="398"/>
			<point x="472" y="388" type="curve" smooth="yes"/>
			<point x="487" y="363"/>
			<point x="487" y="341"/>
			<point x="504" y="341" type="curve" smooth="yes"/>
			<point x="518" y="341"/>
			<point x="519" y="353"/>
			<point x="519" y="368" type="curve" smooth="yes"/>
			<point x="519" y="474" type="line" smooth="yes"/>
			<point x="519" y="489"/>
			<point x="518" y="501"/>
			<point x="504" y="501" type="curve" smooth="yes"/>
			<point x="490" y="501"/>
			<point x="489" y="489"/>
			<point x="489" y="474" type="curve" smooth="yes"/>
			<point x="489" y="422" type="line"/>
			<point x="432" y="499"/>
			<point x="367" y="511"/>
			<point x="312" y="511" type="curve" smooth="yes"/>
			<point x="217" y="511"/>
			<point x="150" y="462"/>
			<point x="150" y="376" type="curve" smooth="yes"/>
			<point x="150" y="286"/>
			<point x="227" y="258"/>
			<point x="275" y="241" type="curve" smooth="yes"/>
			<point x="290" y="236"/>
			<point x="331" y="224"/>
			<point x="348" y="219" type="curve" smooth="yes"/>
			<point x="425" y="196"/>
			<point x="479" y="168"/>
			<point x="479" y="124" type="curve" smooth="yes"/>
			<point x="479" y="67"/>
			<point x="437" y="19"/>
		</contour>
	</outline>
</glyph>
<glyph name="t" format="2">
	<advance width="700"/>
	<unicode hex="0074"/>
	<outline>
		<contour>
			<point x="347" y="157" type="curve" smooth="yes"/>
			<point x="347" y="470" type="line"/>
			<point x="509" y="470" type="line" smooth="yes"/>
			<point x="520" y="470"/>
			<point x="526" y="476"/>
			<point x="526" y="485" type="curve" smooth="yes"/>
			<point x="526" y="494"/>
			<point x="520" y="500"/>
			<point x="509" y="500" type="curve" smooth="yes"/>
			<point x="347" y="500" type="line"/>
			<point x="347" y="704" type="line" smooth="yes"/>
			<point x="347" y="726"/>
			<point x="349" y="738"/>
			<point x="332" y="738" type="curve" smooth="yes"/>
			<point x="315" y="738"/>
			<point x="317" y="726"/>
			<point x="317" y="704" type="curve" smooth="yes"/>
			<point x="317" y="684" type="line" smooth="yes"/>
			<point x="317" y="597"/>
			<point x="315" y="500"/>
			<point x="191" y="500" type="curve" smooth="yes"/>
			<point x="99" y="500" type="line" smooth="yes"/>
			<point x="88" y="500"/>
			<point x="81" y="494"/>
			<point x="81" y="485" type="curve" smooth="yes"/>
			<point x="81" y="476"/>
			<point x="88" y="470"/>
			<point x="99" y="470" type="curve" smooth="yes"/>
			<point x="254" y="470" type="line" smooth="yes"/>
			<point x="266" y="470"/>
			<point x="267" y="463"/>
			<point x="267" y="451" type="curve" smooth="yes"/>
			<point x="267" y="167" type="line" smooth="yes"/>
			<point x="267" y="113"/>
			<point x="255" y="-13"/>
			<point x="430" y="-13" type="curve" smooth="yes"/>
			<point x="581" y="-13"/>
			<point x="599" y="182"/>
			<point x="600" y="212" type="curve" smooth="yes"/>
			<point x="600" y="226"/>
			<point x="601" y="240"/>
			<point x="586" y="241" type="curve"/>
			<point x="573" y="241"/>
			<point x="571" y="229"/>
			<point x="570" y="214" type="curve" smooth="yes"/>
			<point x="566" y="163"/>
			<point x="531" y="22"/>
			<point x="430" y="22" type="curve" smooth="yes"/>
			<point x="354" y="22"/>
			<point x="347" y="114"/>
		</contour>
	</outline>
</glyph>
<glyph name="u" format="2">
	<advance width="700"/>
	<unicode hex="0075"/>
	<outline>
		<contour>
			<point x="64" y="470" type="curve" smooth="yes"/>
			<point x="143" y="470" type="line"/>
			<point x="143" y="162" type="line" smooth="yes"/>
			<point x="143" y="60"/>
			<point x="188" y="-8"/>
			<point x="286" y="-8" type="curve" smooth="yes"/>
			<point x="331" y="-8"/>
			<point x="373" y="5"/>
			<point x="416" y="35" type="curve" smooth="yes"/>
			<point x="467" y="70" type="line"/>
			<point x="484" y="24" type="line" smooth="yes"/>
			<point x="491" y="4"/>
			<point x="500" y="0"/>
			<point x="515" y="0" type="curve" smooth="yes"/>
			<point x="637" y="0" type="line" smooth="yes"/>
			<point x="648" y="0"/>
			<point x="655" y="6"/>
			<point x="655" y="15" type="curve" smooth="yes"/>
			<point x="655" y="24"/>
			<point x="648" y="30"/>
			<point x="637" y="30" type="curve" smooth="yes"/>
			<point x="549" y="30" type="line"/>
			<point x="549" y="485" type="line" smooth="yes"/>
			<point x="549" y="494"/>
			<point x="542" y="500"/>
			<point x="531" y="500" type="curve" smooth="yes"/>
			<point x="391" y="500" type="line" smooth="yes"/>
			<point x="380" y="500"/>
			<point x="374" y="494"/>
			<point x="374" y="485" type="curve" smooth="yes"/>
			<point x="374" y="476"/>
			<point x="380" y="470"/>
			<point x="391" y="470" type="curve" smooth="yes"/>
			<point x="469" y="470" type="line"/>
			<point x="469" y="122" type="line"/>
			<point x="418" y="81" type="line" smooth="yes"/>
			<point x="394" y="62"/>
			<point x="348" y="30"/>
			<point x="308" y="30" type="curve" smooth="yes"/>
			<point x="249" y="30"/>
			<point x="223" y="63"/>
			<point x="223" y="130" type="curve" smooth="yes"/>
			<point x="223" y="485" type="line" smooth="yes"/>
			<point x="223" y="494"/>
			<point x="216" y="500"/>
			<point x="205" y="500" type="curve" smooth="yes"/>
			<point x="64" y="500" type="line" smooth="yes"/>
			<point x="53" y="500"/>
			<point x="47" y="494"/>
			<point x="47" y="485" type="curve" smooth="yes"/>
			<point x="47" y="476"/>
			<point x="53" y="470"/>
		</contour>
	</outline>
</glyph>
<glyph name="v" format="2">
	<advance width="700"/>
	<unicode hex="0076"/>
	<outline>
		<contour>
			<point x="142" y="470" type="line"/>
			<point x="339" y="28" type="line"/>
			<point x="346" y="12"/>
			<point x="351" y="0"/>
			<point x="360" y="0" type="curve" smooth="yes"/>
			<point x="369" y="0"/>
			<point x="372" y="10"/>
			<point x="380" y="28" type="curve" smooth="yes"/>
			<point x="567" y="470" type="line"/>
			<point x="635" y="470" type="line" smooth="yes"/>
			<point x="646" y="470"/>
			<point x="652" y="476"/>
			<point x="652" y="485" type="curve" smooth="yes"/>
			<point x="652" y="494"/>
			<point x="646" y="500"/>
			<point x="635" y="500" type="curve" smooth="yes"/>
			<point x="429" y="500" type="line" smooth="yes"/>
			<point x="418" y="500"/>
			<point x="411" y="494"/>
			<point x="411" y="485" type="curve" smooth="yes"/>
			<point x="411" y="476"/>
			<point x="418" y="470"/>
			<point x="429" y="470" type="curve" smooth="yes"/>
			<point x="525" y="470" type="line"/>
			<point x="376" y="114" type="line"/>
			<point x="221" y="470" type="line"/>
			<point x="322" y="470" type="line" smooth="yes"/>
			<point x="333" y="470"/>
			<point x="339" y="476"/>
			<point x="339" y="485" type="curve" smooth="yes"/>
			<point x="339" y="494"/>
			<point x="333" y="500"/>
			<point x="322" y="500" type="curve" smooth="yes"/>
			<point x="62" y="500" type="line" smooth="yes"/>
			<point x="51" y="500"/>
			<point x="44" y="494"/>
			<point x="44" y="485" type="curve" smooth="yes"/>
			<point x="44" y="476"/>
			<point x="51" y="470"/>
			<point x="62" y="470" type="curve" smooth="yes"/>
		</contour>
	</outline>
</glyph>
<glyph name="w" format="2">
	<advance width="700"/>
	<unicode hex="0077"/>
	<outline>
		<contour>
			<point x="38" y="500" type="line" smooth="yes"/>
			<point x="27" y="500"/>
			<point x="20" y="494"/>
			<point x="20" y="485" type="curve" smooth="yes"/>
			<point x="20" y="476"/>
			<point x="27" y="470"/>
			<point x="38" y="470" type="curve" smooth="yes"/>
			<point x="93" y="470" type="line"/>
			<point x="239" y="27" type="line" smooth="yes"/>
			<point x="245" y="9"/>
			<point x="249" y="0"/>
			<point x="260" y="0" type="curve" smooth="yes"/>
			<point x="271" y="0"/>
			<point x="274" y="9"/>
			<point x="281" y="27" type="curve" smooth="yes"/>
			<point x="362" y="235" type="line"/>
			<point x="429" y="27" type="line" smooth="yes"/>
			<point x="435" y="9"/>
			<point x="439" y="0"/>
			<point x="450" y="0" type="curve" smooth="yes"/>
			<point x="461" y="0"/>
			<point x="466" y="9"/>
			<point x="471" y="27" type="curve" smooth="yes"/>
			<point x="595" y="470" type="line"/>
			<point x="656" y="470" type="line" smooth="yes"/>
			<point x="667" y="470"/>
			<point x="673" y="476"/>
			<point x="673" y="485" type="curve" smooth="yes"/>
			<point x="673" y="494"/>
			<point x="667" y="500"/>
			<point x="656" y="500" type="curve" smooth="yes"/>
			<point x="468" y="500" type="line" smooth="yes"/>
			<point x="457" y="500"/>
			<point x="450" y="494"/>
			<point x="450" y="485" type="curve" smooth="yes"/>
			<point x="450" y="476"/>
			<point x="457" y="470"/>
			<point x="468" y="470" type="curve" smooth="yes"/>
			<point x="565" y="470" type="line"/>
			<point x="465" y="124" type="line"/>
			<point x="392" y="321" type="line" smooth="yes"/>
			<point x="389" y="328"/>
			<point x="387" y="339"/>
			<point x="376" y="339" type="curve" smooth="yes"/>
			<point x="365" y="339"/>
			<point x="362" y="328"/>
			<point x="359" y="321" type="curve" smooth="yes"/>
			<point x="281" y="124" type="line"/>
			<point x="173" y="470" type="line"/>
			<point x="256" y="470" type="line" smooth="yes"/>
			<point x="267" y="470"/>
			<point x="273" y="476"/>
			<point x="273" y="485" type="curve" smooth="yes"/>
			<point x="273" y="494"/>
			<point x="267" y="500"/>
			<point x="256" y="500" type="curve" smooth="yes"/>
		</contour>
	</outline>
</glyph>
<glyph name="x" format="2">
	<advance width="700"/>
	<unicode hex="0078"/>
	<outline>
		<contour>
			<point x="65" y="15" type="curve" smooth="yes"/>
			<point x="65" y="6"/>
			<point x="72" y="0"/>
			<point x="83" y="0" type="curve" smooth="yes"/>
			<point x="281" y="0" type="line" smooth="yes"/>
			<point x="292" y="0"/>
			<point x="298" y="6"/>
			<point x="298" y="15" type="curve" smooth="yes"/>
			<point x="298" y="24"/>
			<point x="292" y="30"/>
			<point x="281" y="30" type="curve" smooth="yes"/>
			<point x="188" y="30" type="line"/>
			<point x="342" y="219" type="line"/>
			<point x="478" y="30" type="line"/>
			<point x="403" y="30" type="line" smooth="yes"/>
			<point x="392" y="30"/>
			<point x="385" y="24"/>
			<point x="385" y="15" type="curve" smooth="yes"/>
			<point x="385" y="6"/>
			<point x="392" y="0"/>
			<point x="403" y="0" type="curve" smooth="yes"/>
			<point x="625" y="0" type="line" smooth="yes"/>
			<point x="636" y="0"/>
			<point x="642" y="6"/>
			<point x="642" y="15" type="curve" smooth="yes"/>
			<point x="642" y="24"/>
			<point x="636" y="30"/>
			<point x="625" y="30" type="curve" smooth="yes"/>
			<point x="568" y="30" type="line"/>
			<point x="390" y="278" type="line"/>
			<point x="546" y="470" type="line"/>
			<point x="595" y="470" type="line" smooth="yes"/>
			<point x="606" y="470"/>
			<point x="612" y="476"/>
			<point x="612" y="485" type="curve" smooth="yes"/>
			<point x="612" y="494"/>
			<point x="606" y="500"/>
			<point x="595" y="500" type="curve" smooth="yes"/>
			<point x="425" y="500" type="line" smooth="yes"/>
			<point x="414" y="500"/>
			<point x="407" y="494"/>
			<point x="407" y="485" type="curve" smooth="yes"/>
			<point x="407" y="476"/>
			<point x="414" y="470"/>
			<point x="425" y="470" type="curve" smooth="yes"/>
			<point x="496" y="470" type="line"/>
			<point x="366" y="311" type="line"/>
			<point x="252" y="470" type="line"/>
			<point x="319" y="470" type="line" smooth="yes"/>
			<point x="330" y="470"/>
			<point x="336" y="476"/>
			<point x="336" y="485" type="curve" smooth="yes"/>
			<point x="336" y="494"/>
			<point x="330" y="500"/>
			<point x="319" y="500" type="curve" smooth="yes"/>
			<point x="113" y="500" type="line" smooth="yes"/>
			<point x="102" y="500"/>
			<point x="95" y="494"/>
			<point x="95" y="485" type="curve" smooth="yes"/>
			<point x="95" y="476"/>
			<point x="102" y="470"/>
			<point x="113" y="470" type="curve" smooth="yes"/>
			<point x="162" y="470" type="line"/>
			<point x="319" y="252" type="line"/>
			<point x="138" y="30" type="line"/>
			<point x="83" y="30" type="line" smooth="yes"/>
			<point x="72" y="30"/>
			<point x="65" y="24"/>
		</contour>
	</outline>
</glyph>
<glyph name="y" format="2">
	<advance width="700"/>
	<unicode hex="0079"/>
	<outline>
		<contour>
			<point x="155" y="470" type="line"/>
			<point x="344" y="28" type="line"/>
			<point x="282" y="-136"/>
			<point x="251" y="-182"/>
			<point x="185" y="-182" type="curve" smooth="yes"/>
			<point x="168" y="-182"/>
			<point x="120" y="-166"/>
			<point x="116" y="-133" type="curve"/>
			<point x="132" y="-135"/>
			<point x="171" y="-124"/>
			<point x="174" y="-84" type="curve" smooth="yes"/>
			<point x="176" y="-53"/>
			<point x="157" y="-28"/>
			<point x="125" y="-25" type="curve" smooth="yes"/>
			<point x="101" y="-23"/>
			<point x="75" y="-35"/>
			<point x="65" y="-72" type="curve" smooth="yes"/>
			<point x="51" y="-122"/>
			<point x="89" y="-210"/>
			<point x="181" y="-211" type="curve" smooth="yes"/>
			<point x="264" y="-212"/>
			<point x="303" y="-181"/>
			<point x="387" y="20" type="curve" smooth="yes"/>
			<point x="574" y="470" type="line"/>
			<point x="641" y="470" type="line" smooth="yes"/>
			<point x="652" y="470"/>
			<point x="658" y="476"/>
			<point x="658" y="485" type="curve" smooth="yes"/>
			<point x="658" y="494"/>
			<point x="652" y="500"/>
			<point x="641" y="500" type="curve" smooth="yes"/>
			<point x="455" y="500" type="line" smooth="yes"/>
			<point x="444" y="500"/>
			<point x="437" y="494"/>
			<point x="437" y="485" type="curve" smooth="yes"/>
			<point x="437" y="476"/>
			<point x="444" y="470"/>
			<point x="455" y="470" type="curve" smooth="yes"/>
			<point x="536" y="470" type="line"/>
			<point x="383" y="116" type="line"/>
			<point x="235" y="470" type="line"/>
			<point x="314" y="470" type="line" smooth="yes"/>
			<point x="325" y="470"/>
			<point x="331" y="476"/>
			<point x="331" y="485" type="curve" smooth="yes"/>
			<point x="331" y="494"/>
			<point x="325" y="500"/>
			<point x="314" y="500" type="curve" smooth="yes"/>
			<point x="97" y="500" type="line" smooth="yes"/>
			<point x="86" y="500"/>
			<point x="79" y="494"/>
			<point x="79" y="485" type="curve" smooth="yes"/>
			<point x="79" y="476"/>
			<point x="86" y="470"/>
			<point x="97" y="470" type="curve" smooth="yes"/>
		</contour>
	</outline>
</glyph>
<glyph name="z" format="2">
	<advance width="700"/>
	<unicode hex="007A"/>
	<outline>
		<contour>
			<point x="201" y="500" type="line" smooth="yes"/>
			<point x="177" y="500"/>
			<point x="167" y="500"/>
			<point x="165" y="467" type="curve" smooth="yes"/>
			<point x="160" y="373" type="line" smooth="yes"/>
			<point x="159" y="356"/>
			<point x="159" y="344"/>
			<point x="174" y="344" type="curve" smooth="yes"/>
			<point x="187" y="344"/>
			<point x="189" y="354"/>
			<point x="191" y="373" type="curve" smooth="yes"/>
			<point x="193" y="392"/>
			<point x="196" y="469"/>
			<point x="283" y="469" type="curve" smooth="yes"/>
			<point x="461" y="469" type="line"/>
			<point x="151" y="36" type="line" smooth="yes"/>
			<point x="140" y="21"/>
			<point x="137" y="15"/>
			<point x="141" y="7" type="curve" smooth="yes"/>
			<point x="144" y="1"/>
			<point x="153" y="0"/>
			<point x="165" y="0" type="curve" smooth="yes"/>
			<point x="516" y="0" type="line" smooth="yes"/>
			<point x="540" y="0"/>
			<point x="550" y="0"/>
			<point x="552" y="33" type="curve" smooth="yes"/>
			<point x="557" y="127" type="line" smooth="yes"/>
			<point x="558" y="144"/>
			<point x="558" y="156"/>
			<point x="543" y="156" type="curve" smooth="yes"/>
			<point x="530" y="156"/>
			<point x="528" y="146"/>
			<point x="526" y="127" type="curve" smooth="yes"/>
			<point x="524" y="108"/>
			<point x="521" y="31"/>
			<point x="454" y="31" type="curve" smooth="yes"/>
			<point x="240" y="31" type="line"/>
			<point x="551" y="469" type="line" smooth="yes"/>
			<point x="562" y="485"/>
			<point x="561" y="491"/>
			<point x="558" y="495" type="curve" smooth="yes"/>
			<point x="554" y="500"/>
			<point x="543" y="500"/>
			<point x="533" y="500" type="curve" smooth="yes"/>
		</contour>
	</outline>
</glyph>
<glyph name="braceleft" format="2">
	<advance width="700"/>
	<unicode hex="007B"/>
	<outline>
		<contour>
			<point x="181" y="364" type="curve"/>
			<point x="258" y="390"/>
			<point x="288" y="450"/>
			<point x="275" y="511" type="curve" smooth="yes"/>
			<point x="258" y="600" type="line" smooth="yes"/>
			<point x="236" y="709"/>
			<point x="281" y="805"/>
			<point x="371" y="806" type="curve" smooth="yes"/>
			<point x="428" y="807"/>
			<point x="479" y="770"/>
			<point x="485" y="731" type="curve"/>
			<point x="446" y="739"/>
			<point x="419" y="715"/>
			<point x="422" y="676" type="curve" smooth="yes"/>
			<point x="425" y="642"/>
			<point x="454" y="625"/>
			<point x="486" y="631" type="curve" smooth="yes"/>
			<point x="510" y="635"/>
			<point x="521" y="655"/>
			<point x="526" y="677" type="curve" smooth="yes"/>
			<point x="544" y="745"/>
			<point x="478" y="838"/>
			<point x="373" y="836" type="curve" smooth="yes"/>
			<point x="280" y="835"/>
			<point x="198" y="749"/>
			<point x="227" y="601" type="curve" smooth="yes"/>
			<point x="247" y="499" type="line" smooth="yes"/>
			<point x="261" y="425"/>
			<point x="178" y="389"/>
			<point x="146" y="377" type="curve" smooth="yes"/>
			<point x="135" y="373"/>
			<point x="126" y="372"/>
			<point x="126" y="363" type="curve" smooth="yes"/>
			<point x="126" y="354"/>
			<point x="135" y="353"/>
			<point x="146" y="349" type="curve" smooth="yes"/>
			<point x="178" y="338"/>
			<point x="263" y="305"/>
			<point x="251" y="231" type="curve" smooth="yes"/>
			<point x="235" y="129" type="line" smooth="yes"/>
			<point x="211" y="-21"/>
			<point x="296" y="-103"/>
			<point x="389" y="-102" type="curve" smooth="yes"/>
			<point x="494" y="-100"/>
			<point x="557" y="-5"/>
			<point x="537" y="63" type="curve" smooth="yes"/>
			<point x="531" y="85"/>
			<point x="519" y="104"/>
			<point x="495" y="107" type="curve" smooth="yes"/>
			<point x="463" y="112"/>
			<point x="434" y="94"/>
			<point x="433" y="60" type="curve" smooth="yes"/>
			<point x="432" y="21"/>
			<point x="459" y="-2"/>
			<point x="497" y="7" type="curve"/>
			<point x="493" y="-32"/>
			<point x="443" y="-71"/>
			<point x="387" y="-72" type="curve" smooth="yes"/>
			<point x="297" y="-73"/>
			<point x="248" y="21"/>
			<point x="266" y="130" type="curve" smooth="yes"/>
			<point x="280" y="219" type="line" smooth="yes"/>
			<point x="290" y="282"/>
			<point x="259" y="340"/>
		</contour>
	</outline>
</glyph>
<glyph name="bar" format="2">
	<advance width="700"/>
	<unicode hex="007C"/>
	<outline>
		<contour>
			<point x="364" y="0" type="curve" smooth="yes"/>
			<point x="364" y="731" type="line" smooth="yes"/>
			<point x="364" y="742"/>
			<point x="358" y="748"/>
			<point x="349" y="748" type="curve" smooth="yes"/>
			<point x="340" y="748"/>
			<point x="334" y="742"/>
			<point x="334" y="731" type="curve" smooth="yes"/>
			<point x="334" y="0" type="line" smooth="yes"/>
			<point x="334" y="-11"/>
			<point x="340" y="-17"/>
			<point x="349" y="-17" type="curve" smooth="yes"/>
			<point x="358" y="-17"/>
			<point x="364" y="-11"/>
		</contour>
	</outline>
</glyph>
<glyph name="braceright" format="2">
	<advance width="700"/>
	<unicode hex="007D"/>
	<outline>
		<contour>
			<point x="503" y="369" type="curve"/>
			<point x="425" y="343"/>
			<point x="396" y="283"/>
			<point x="408" y="221" type="curve" smooth="yes"/>
			<point x="426" y="133" type="line" smooth="yes"/>
			<point x="447" y="24"/>
			<point x="403" y="-72"/>
			<point x="313" y="-73" type="curve" smooth="yes"/>
			<point x="256" y="-74"/>
			<point x="205" y="-37"/>
			<point x="199" y="2" type="curve"/>
			<point x="237" y="-7"/>
			<point x="264" y="18"/>
			<point x="261" y="57" type="curve" smooth="yes"/>
			<point x="259" y="91"/>
			<point x="229" y="107"/>
			<point x="197" y="102" type="curve" smooth="yes"/>
			<point x="173" y="97"/>
			<point x="163" y="78"/>
			<point x="157" y="56" type="curve" smooth="yes"/>
			<point x="140" y="-13"/>
			<point x="206" y="-105"/>
			<point x="311" y="-103" type="curve" smooth="yes"/>
			<point x="404" y="-102"/>
			<point x="486" y="-16"/>
			<point x="457" y="132" type="curve" smooth="yes"/>
			<point x="437" y="234" type="line" smooth="yes"/>
			<point x="423" y="308"/>
			<point x="506" y="343"/>
			<point x="538" y="356" type="curve" smooth="yes"/>
			<point x="549" y="360"/>
			<point x="558" y="361"/>
			<point x="558" y="370" type="curve" smooth="yes"/>
			<point x="558" y="379"/>
			<point x="549" y="380"/>
			<point x="538" y="384" type="curve" smooth="yes"/>
			<point x="505" y="395"/>
			<point x="421" y="428"/>
			<point x="432" y="502" type="curve" smooth="yes"/>
			<point x="449" y="604" type="line" smooth="yes"/>
			<point x="472" y="753"/>
			<point x="388" y="836"/>
			<point x="295" y="834" type="curve" smooth="yes"/>
			<point x="190" y="833"/>
			<point x="126" y="737"/>
			<point x="147" y="670" type="curve" smooth="yes"/>
			<point x="153" y="648"/>
			<point x="164" y="629"/>
			<point x="188" y="626" type="curve" smooth="yes"/>
			<point x="220" y="621"/>
			<point x="249" y="639"/>
			<point x="250" y="673" type="curve" smooth="yes"/>
			<point x="252" y="712"/>
			<point x="224" y="735"/>
			<point x="187" y="726" type="curve"/>
			<point x="191" y="765"/>
			<point x="240" y="803"/>
			<point x="297" y="804" type="curve" smooth="yes"/>
			<point x="387" y="806"/>
			<point x="436" y="712"/>
			<point x="418" y="603" type="curve" smooth="yes"/>
			<point x="403" y="513" type="line" smooth="yes"/>
			<point x="393" y="451"/>
			<point x="424" y="393"/>
		</contour>
	</outline>
</glyph>
<glyph name="asciitilde" format="2">
	<advance width="700"/>
	<unicode hex="007E"/>
	<outline>
		<contour>
			<point x="271" y="268" type="curve" smooth="yes"/>
			<point x="329" y="268"/>
			<point x="363" y="201"/>
			<point x="423" y="201" type="curve" smooth="yes"/>
			<point x="454" y="201"/>
			<point x="498" y="210"/>
			<point x="530" y="272" type="curve" smooth="yes"/>
			<point x="543" y="297"/>
			<point x="518" y="312"/>
			<point x="503" y="288" type="curve" smooth="yes"/>
			<point x="477" y="246"/>
			<point x="460" y="231"/>
			<point x="423" y="231" type="curve" smooth="yes"/>
			<point x="376" y="231"/>
			<point x="338" y="300"/>
			<point x="271" y="298" type="curve" smooth="yes"/>
			<point x="230" y="297"/>
			<point x="196" y="283"/>
			<point x="167" y="231" type="curve" smooth="yes"/>
			<point x="152" y="204"/>
			<point x="180" y="190"/>
			<point x="192" y="210" type="curve" smooth="yes"/>
			<point x="215" y="248"/>
			<point x="234" y="268"/>
		</contour>
	</outline>
</glyph>
<glyph name="exclamdown" format="2">
	<advance width="700"/>
	<unicode hex="00A1"/>
	<outline>
		<contour>
			<point x="333" y="331" type="curve" smooth="yes"/>
			<point x="299" y="-105" type="line" smooth="yes"/>
			<point x="296" y="-144"/>
			<point x="312" y="-174"/>
			<point x="350" y="-173" type="curve" smooth="yes"/>
			<point x="388" y="-172"/>
			<point x="402" y="-145"/>
			<point x="399" y="-106" type="curve" smooth="yes"/>
			<point x="363" y="332" type="line" smooth="yes"/>
			<point x="362" y="347"/>
			<point x="352" y="349"/>
			<point x="348" y="349" type="curve" smooth="yes"/>
			<point x="344" y="349"/>
			<point x="334" y="347"/>
		</contour>
		<contour>
			<point x="346" y="557" type="curve" smooth="yes"/>
			<point x="318" y="557"/>
			<point x="295" y="533"/>
			<point x="295" y="503" type="curve" smooth="yes"/>
			<point x="295" y="473"/>
			<point x="320" y="450"/>
			<point x="348" y="451" type="curve" smooth="yes"/>
			<point x="377" y="452"/>
			<point x="401" y="475"/>
			<point x="400" y="505" type="curve" smooth="yes"/>
			<point x="399" y="535"/>
			<point x="375" y="557"/>
		</contour>
	</outline>
</glyph>
<glyph name="cent" format="2">
	<advance width="700"/>
	<unicode hex="00A2"/>
	<outline>
		<contour>
			<point x="140" y="247" type="curve"/>
			<point x="140" y="67"/>
			<point x="272" y="0"/>
			<point x="354" y="0" type="curve" smooth="yes"/>
			<point x="424" y="0"/>
			<point x="468" y="20"/>
			<point x="521" y="77" type="curve" smooth="yes"/>
			<point x="550" y="108"/>
			<point x="569" y="132"/>
			<point x="553" y="144" type="curve" smooth="yes"/>
			<point x="541" y="153"/>
			<point x="530" y="140"/>
			<point x="516" y="124" type="curve" smooth="yes"/>
			<point x="476" y="78"/>
			<point x="437" y="31"/>
			<point x="365" y="31" type="curve" smooth="yes"/>
			<point x="277" y="31"/>
			<point x="220" y="151"/>
			<point x="220" y="247" type="curve" smooth="yes"/>
			<point x="220" y="352"/>
			<point x="263" y="480"/>
			<point x="368" y="480" type="curve" smooth="yes"/>
			<point x="445" y="480"/>
			<point x="473" y="452"/>
			<point x="481" y="444" type="curve"/>
			<point x="450" y="437"/>
			<point x="450" y="395"/>
			<point x="449" y="385" type="curve" smooth="yes"/>
			<point x="447" y="360"/>
			<point x="458" y="325"/>
			<point x="500" y="325" type="curve" smooth="yes"/>
			<point x="528" y="325"/>
			<point x="553" y="341"/>
			<point x="551" y="390" type="curve" smooth="yes"/>
			<point x="548" y="455"/>
			<point x="465" y="510"/>
			<point x="368" y="510" type="curve" smooth="yes"/>
			<point x="284" y="510"/>
			<point x="140" y="447"/>
		</contour>
		<contour>
			<point x="192" y="-69" type="curve" smooth="yes"/>
			<point x="558" y="564" type="line" smooth="yes"/>
			<point x="564" y="574"/>
			<point x="561" y="582"/>
			<point x="553" y="586" type="curve" smooth="yes"/>
			<point x="545" y="590"/>
			<point x="538" y="589"/>
			<point x="532" y="579" type="curve" smooth="yes"/>
			<point x="166" y="-54" type="line" smooth="yes"/>
			<point x="161" y="-63"/>
			<point x="163" y="-72"/>
			<point x="171" y="-76" type="curve" smooth="yes"/>
			<point x="179" y="-80"/>
			<point x="187" y="-78"/>
		</contour>
	</outline>
</glyph>
<glyph name="sterling" format="2">
	<advance width="700"/>
	<unicode hex="00A3"/>
	<outline>
		<contour>
			<point x="274" y="90" type="curve"/>
			<point x="257" y="59"/>
			<point x="218" y="34"/>
			<point x="191" y="34" type="curve" smooth="yes"/>
			<point x="166" y="34"/>
			<point x="148" y="49"/>
			<point x="148" y="84" type="curve" smooth="yes"/>
			<point x="148" y="114"/>
			<point x="167" y="124"/>
			<point x="191" y="124" type="curve" smooth="yes"/>
			<point x="208" y="124"/>
			<point x="242" y="113"/>
		</contour>
		<contour>
			<point x="418" y="700" type="curve" smooth="yes"/>
			<point x="455" y="700"/>
			<point x="515" y="684"/>
			<point x="533" y="646" type="curve"/>
			<point x="516" y="642"/>
			<point x="491" y="622"/>
			<point x="498" y="589" type="curve" smooth="yes"/>
			<point x="505" y="555"/>
			<point x="530" y="541"/>
			<point x="562" y="549" type="curve" smooth="yes"/>
			<point x="585" y="555"/>
			<point x="598" y="574"/>
			<point x="599" y="597" type="curve" smooth="yes"/>
			<point x="602" y="665"/>
			<point x="516" y="730"/>
			<point x="420" y="730" type="curve" smooth="yes"/>
			<point x="292" y="730"/>
			<point x="194" y="657"/>
			<point x="194" y="536" type="curve" smooth="yes"/>
			<point x="194" y="406"/>
			<point x="320" y="399"/>
			<point x="320" y="245" type="curve" smooth="yes"/>
			<point x="320" y="190"/>
			<point x="308" y="151"/>
			<point x="296" y="124" type="curve"/>
			<point x="265" y="137"/>
			<point x="231" y="156"/>
			<point x="197" y="158" type="curve" smooth="yes"/>
			<point x="142" y="161"/>
			<point x="108" y="130"/>
			<point x="108" y="78" type="curve" smooth="yes"/>
			<point x="108" y="33"/>
			<point x="138" y="-1"/>
			<point x="189" y="-1" type="curve" smooth="yes"/>
			<point x="236" y="-1"/>
			<point x="278" y="32"/>
			<point x="308" y="74" type="curve"/>
			<point x="357" y="33"/>
			<point x="436" y="0"/>
			<point x="484" y="0" type="curve" smooth="yes"/>
			<point x="554" y="0"/>
			<point x="605" y="23"/>
			<point x="647" y="95" type="curve" smooth="yes"/>
			<point x="674" y="141"/>
			<point x="672" y="163"/>
			<point x="660" y="168" type="curve" smooth="yes"/>
			<point x="649" y="173"/>
			<point x="642" y="168"/>
			<point x="629" y="143" type="curve" smooth="yes"/>
			<point x="589" y="66"/>
			<point x="562" y="39"/>
			<point x="485" y="39" type="curve" smooth="yes"/>
			<point x="433" y="39"/>
			<point x="361" y="85"/>
			<point x="326" y="108" type="curve"/>
			<point x="349" y="144"/>
			<point x="397" y="187"/>
			<point x="397" y="280" type="curve" smooth="yes"/>
			<point x="397" y="426"/>
			<point x="247" y="470"/>
			<point x="247" y="565" type="curve" smooth="yes"/>
			<point x="247" y="654"/>
			<point x="347" y="700"/>
		</contour>
		<contour>
			<point x="540" y="340" type="line"/>
			<point x="551" y="340"/>
			<point x="558" y="346"/>
			<point x="558" y="355" type="curve" smooth="yes"/>
			<point x="558" y="364"/>
			<point x="551" y="370"/>
			<point x="540" y="370" type="curve" smooth="yes"/>
			<point x="131" y="370" type="line" smooth="yes"/>
			<point x="120" y="370"/>
			<point x="113" y="364"/>
			<point x="113" y="355" type="curve" smooth="yes"/>
			<point x="113" y="346"/>
			<point x="120" y="340"/>
			<point x="131" y="340" type="curve" smooth="yes"/>
		</contour>
	</outline>
</glyph>
<glyph name="yen" format="2">
	<advance width="700"/>
	<unicode hex="00A5"/>
	<outline>
		<contour>
			<point x="49" y="715" type="curve" smooth="yes"/>
			<point x="49" y="706"/>
			<point x="56" y="700"/>
			<point x="67" y="700" type="curve" smooth="yes"/>
			<point x="149" y="700" type="line"/>
			<point x="299" y="349" type="line"/>
			<point x="299" y="30" type="line"/>
			<point x="161" y="30" type="line" smooth="yes"/>
			<point x="150" y="30"/>
			<point x="143" y="24"/>
			<point x="143" y="15" type="curve" smooth="yes"/>
			<point x="143" y="6"/>
			<point x="150" y="0"/>
			<point x="161" y="0" type="curve" smooth="yes"/>
			<point x="517" y="0" type="line" smooth="yes"/>
			<point x="528" y="0"/>
			<point x="535" y="6"/>
			<point x="535" y="15" type="curve" smooth="yes"/>
			<point x="535" y="24"/>
			<point x="528" y="30"/>
			<point x="517" y="30" type="curve" smooth="yes"/>
			<point x="379" y="30" type="line"/>
			<point x="379" y="344" type="line"/>
			<point x="549" y="700" type="line"/>
			<point x="637" y="700" type="line" smooth="yes"/>
			<point x="648" y="700"/>
			<point x="655" y="706"/>
			<point x="655" y="715" type="curve" smooth="yes"/>
			<point x="655" y="724"/>
			<point x="648" y="730"/>
			<point x="637" y="730" type="curve" smooth="yes"/>
			<point x="421" y="730" type="line" smooth="yes"/>
			<point x="410" y="730"/>
			<point x="403" y="724"/>
			<point x="403" y="715" type="curve" smooth="yes"/>
			<point x="403" y="706"/>
			<point x="410" y="700"/>
			<point x="421" y="700" type="curve" smooth="yes"/>
			<point x="519" y="700" type="line"/>
			<point x="363" y="380" type="line"/>
			<point x="224" y="700" type="line"/>
			<point x="298" y="700" type="line" smooth="yes"/>
			<point x="309" y="700"/>
			<point x="316" y="706"/>
			<point x="316" y="715" type="curve" smooth="yes"/>
			<point x="316" y="724"/>
			<point x="309" y="730"/>
			<point x="298" y="730" type="curve" smooth="yes"/>
			<point x="67" y="730" type="line" smooth="yes"/>
			<point x="56" y="730"/>
			<point x="49" y="724"/>
		</contour>
		<contour>
			<point x="551" y="277" type="curve" smooth="yes"/>
			<point x="126" y="277" type="line" smooth="yes"/>
			<point x="115" y="277"/>
			<point x="108" y="271"/>
			<point x="108" y="262" type="curve" smooth="yes"/>
			<point x="108" y="253"/>
			<point x="115" y="247"/>
			<point x="126" y="247" type="curve" smooth="yes"/>
			<point x="551" y="247" type="line" smooth="yes"/>
			<point x="562" y="247"/>
			<point x="569" y="253"/>
			<point x="569" y="262" type="curve" smooth="yes"/>
			<point x="569" y="271"/>
			<point x="562" y="277"/>
		</contour>
		<contour>
			<point x="551" y="401" type="curve" smooth="yes"/>
			<point x="126" y="401" type="line" smooth="yes"/>
			<point x="115" y="401"/>
			<point x="108" y="395"/>
			<point x="108" y="386" type="curve" smooth="yes"/>
			<point x="108" y="377"/>
			<point x="115" y="371"/>
			<point x="126" y="371" type="curve" smooth="yes"/>
			<point x="551" y="371" type="line" smooth="yes"/>
			<point x="562" y="371"/>
			<point x="569" y="377"/>
			<point x="569" y="386" type="curve" smooth="yes"/>
			<point x="569" y="395"/>
			<point x="562" y="401"/>
		</contour>
	</outline>
</glyph>
<glyph name="brokenbar" format="2">
	<advance width="700"/>
	<unicode hex="00A6"/>
	<outline>
		<contour>
			<point x="384" y="430" type="curve" smooth="yes"/>
			<point x="384" y="677" type="line" smooth="yes"/>
			<point x="384" y="688"/>
			<point x="378" y="694"/>
			<point x="369" y="694" type="curve" smooth="yes"/>
			<point x="360" y="694"/>
			<point x="354" y="688"/>
			<point x="354" y="677" type="curve" smooth="yes"/>
			<point x="354" y="430" type="line" smooth="yes"/>
			<point x="354" y="419"/>
			<point x="360" y="413"/>
			<point x="369" y="413" type="curve" smooth="yes"/>
			<point x="378" y="413"/>
			<point x="384" y="419"/>
		</contour>
		<contour>
			<point x="384" y="40" type="curve" smooth="yes"/>
			<point x="384" y="287" type="line" smooth="yes"/>
			<point x="384" y="298"/>
			<point x="378" y="304"/>
			<point x="369" y="304" type="curve" smooth="yes"/>
			<point x="360" y="304"/>
			<point x="354" y="298"/>
			<point x="354" y="287" type="curve" smooth="yes"/>
			<point x="354" y="40" type="line" smooth="yes"/>
			<point x="354" y="29"/>
			<point x="360" y="23"/>
			<point x="369" y="23" type="curve" smooth="yes"/>
			<point x="378" y="23"/>
			<point x="384" y="29"/>
		</contour>
	</outline>
</glyph>
<glyph name="section" format="2">
	<advance width="700"/>
	<unicode hex="00A7"/>
	<outline>
		<contour>
			<point x="322" y="627" type="curve" smooth="yes"/>
			<point x="279" y="686"/>
			<point x="270" y="814"/>
			<point x="372" y="824" type="curve" smooth="yes"/>
			<point x="408" y="827"/>
			<point x="433" y="814"/>
			<point x="437" y="801" type="curve"/>
			<point x="399" y="782"/>
			<point x="399" y="755"/>
			<point x="403" y="738" type="curve" smooth="yes"/>
			<point x="419" y="673"/>
			<point x="519" y="690"/>
			<point x="506" y="763" type="curve" smooth="yes"/>
			<point x="496" y="824"/>
			<point x="434" y="866"/>
			<point x="368" y="859" type="curve" smooth="yes"/>
			<point x="287" y="850"/>
			<point x="248" y="786"/>
			<point x="249" y="711" type="curve" smooth="yes"/>
			<point x="250" y="671"/>
			<point x="263" y="640"/>
			<point x="285" y="609" type="curve"/>
			<point x="200" y="540"/>
			<point x="148" y="478"/>
			<point x="148" y="396" type="curve" smooth="yes"/>
			<point x="148" y="242"/>
			<point x="300" y="197"/>
			<point x="377" y="91" type="curve" smooth="yes"/>
			<point x="420" y="32"/>
			<point x="429" y="-96"/>
			<point x="327" y="-106" type="curve" smooth="yes"/>
			<point x="291" y="-109"/>
			<point x="266" y="-96"/>
			<point x="262" y="-83" type="curve"/>
			<point x="300" y="-64"/>
			<point x="300" y="-37"/>
			<point x="296" y="-20" type="curve" smooth="yes"/>
			<point x="291" y="0"/>
			<point x="268" y="28"/>
			<point x="233" y="19" type="curve" smooth="yes"/>
			<point x="196" y="10"/>
			<point x="189" y="-22"/>
			<point x="193" y="-45" type="curve" smooth="yes"/>
			<point x="204" y="-106"/>
			<point x="265" y="-148"/>
			<point x="331" y="-141" type="curve" smooth="yes"/>
			<point x="412" y="-132"/>
			<point x="451" y="-68"/>
			<point x="450" y="7" type="curve" smooth="yes"/>
			<point x="449" y="47"/>
			<point x="436" y="78"/>
			<point x="414" y="109" type="curve"/>
			<point x="499" y="178"/>
			<point x="551" y="240"/>
			<point x="551" y="322" type="curve" smooth="yes"/>
			<point x="551" y="476"/>
			<point x="399" y="521"/>
		</contour>
		<contour>
			<point x="290" y="251" type="line" smooth="yes"/>
			<point x="188" y="366"/>
			<point x="201" y="485"/>
			<point x="301" y="588" type="curve"/>
			<point x="409" y="467" type="line" smooth="yes"/>
			<point x="511" y="352"/>
			<point x="498" y="233"/>
			<point x="398" y="130" type="curve"/>
		</contour>
	</outline>
</glyph>
<glyph name="copyright" format="2">
	<advance width="700"/>
	<unicode hex="00A9"/>
	<outline>
		<contour>
			<point x="350" y="663" type="curve" smooth="yes"/>
			<point x="163" y="663"/>
			<point x="23" y="523"/>
			<point x="23" y="336" type="curve" smooth="yes"/>
			<point x="23" y="149"/>
			<point x="163" y="9"/>
			<point x="350" y="9" type="curve" smooth="yes"/>
			<point x="537" y="9"/>
			<point x="677" y="149"/>
			<point x="677" y="336" type="curve" smooth="yes"/>
			<point x="677" y="523"/>
			<point x="537" y="663"/>
		</contour>
		<contour>
			<point x="350" y="633" type="curve" smooth="yes"/>
			<point x="509" y="633"/>
			<point x="647" y="506"/>
			<point x="647" y="336" type="curve" smooth="yes"/>
			<point x="647" y="167"/>
			<point x="509" y="39"/>
			<point x="350" y="39" type="curve" smooth="yes"/>
			<point x="190" y="39"/>
			<point x="53" y="167"/>
			<point x="53" y="336" type="curve" smooth="yes"/>
			<point x="53" y="506"/>
			<point x="190" y="633"/>
		</contour>
		<contour>
			<point x="364" y="555" type="curve" smooth="yes"/>
			<point x="447" y="555"/>
			<point x="518" y="507"/>
			<point x="521" y="452" type="curve" smooth="yes"/>
			<point x="523" y="409"/>
			<point x="501" y="395"/>
			<point x="478" y="395" type="curve" smooth="yes"/>
			<point x="441" y="395"/>
			<point x="431" y="425"/>
			<point x="433" y="447" type="curve" smooth="yes"/>
			<point x="434" y="456"/>
			<point x="443" y="479"/>
			<point x="470" y="485" type="curve"/>
			<point x="470" y="495"/>
			<point x="430" y="529"/>
			<point x="364" y="529" type="curve" smooth="yes"/>
			<point x="264" y="529"/>
			<point x="220" y="419"/>
			<point x="220" y="328" type="curve" smooth="yes"/>
			<point x="220" y="246"/>
			<point x="260" y="142"/>
			<point x="353" y="142" type="curve" smooth="yes"/>
			<point x="419" y="142"/>
			<point x="456" y="183"/>
			<point x="490" y="222" type="curve" smooth="yes"/>
			<point x="502" y="236"/>
			<point x="513" y="248"/>
			<point x="523" y="240" type="curve" smooth="yes"/>
			<point x="537" y="229"/>
			<point x="520" y="208"/>
			<point x="495" y="181" type="curve" smooth="yes"/>
			<point x="450" y="132"/>
			<point x="403" y="115"/>
			<point x="343" y="115" type="curve" smooth="yes"/>
			<point x="255" y="115"/>
			<point x="150" y="172"/>
			<point x="150" y="328" type="curve" smooth="yes"/>
			<point x="150" y="500"/>
			<point x="282" y="555"/>
		</contour>
	</outline>
</glyph>
<glyph name="guillemetleft" format="2">
	<advance width="700"/>
	<unicode hex="00AB"/>
	<outline>
		<contour>
			<point x="346" y="228" type="curve" smooth="yes"/>
			<point x="530" y="65" type="line" smooth="yes"/>
			<point x="543" y="53"/>
			<point x="555" y="40"/>
			<point x="568" y="52" type="curve" smooth="yes"/>
			<point x="580" y="63"/>
			<point x="573" y="74"/>
			<point x="560" y="85" type="curve" smooth="yes"/>
			<point x="364" y="261" type="line"/>
			<point x="560" y="437" type="line" smooth="yes"/>
			<point x="572" y="448"/>
			<point x="580" y="459"/>
			<point x="568" y="470" type="curve" smooth="yes"/>
			<point x="555" y="482"/>
			<point x="544" y="470"/>
			<point x="530" y="457" type="curve" smooth="yes"/>
			<point x="346" y="294" type="line" smooth="yes"/>
			<point x="326" y="276"/>
			<point x="319" y="270"/>
			<point x="319" y="261" type="curve" smooth="yes"/>
			<point x="319" y="252"/>
			<point x="324" y="247"/>
		</contour>
		<contour>
			<point x="181" y="228" type="curve" smooth="yes"/>
			<point x="365" y="65" type="line" smooth="yes"/>
			<point x="378" y="53"/>
			<point x="390" y="40"/>
			<point x="403" y="52" type="curve" smooth="yes"/>
			<point x="415" y="63"/>
			<point x="408" y="74"/>
			<point x="395" y="85" type="curve" smooth="yes"/>
			<point x="199" y="261" type="line"/>
			<point x="395" y="437" type="line" smooth="yes"/>
			<point x="407" y="448"/>
			<point x="415" y="459"/>
			<point x="403" y="470" type="curve" smooth="yes"/>
			<point x="390" y="482"/>
			<point x="379" y="470"/>
			<point x="365" y="457" type="curve" smooth="yes"/>
			<point x="181" y="294" type="line" smooth="yes"/>
			<point x="161" y="276"/>
			<point x="154" y="270"/>
			<point x="154" y="261" type="curve" smooth="yes"/>
			<point x="154" y="252"/>
			<point x="159" y="247"/>
		</contour>
	</outline>
</glyph>
<glyph name="registered" format="2">
	<advance width="700"/>
	<unicode hex="00AE"/>
	<outline>
		<contour>
			<point x="387" y="580" type="curve" smooth="yes"/>
			<point x="386" y="553"/>
			<point x="368" y="553"/>
			<point x="356" y="553" type="curve" smooth="yes"/>
			<point x="331" y="553" type="line"/>
			<point x="331" y="613" type="line"/>
			<point x="356" y="613" type="line" smooth="yes"/>
			<point x="368" y="613"/>
			<point x="388" y="607"/>
		</contour>
		<contour>
			<point x="353" y="364" type="curve" smooth="yes"/>
			<point x="450" y="364"/>
			<point x="529" y="444"/>
			<point x="529" y="543" type="curve" smooth="yes"/>
			<point x="529" y="641"/>
			<point x="451" y="720"/>
			<point x="353" y="720" type="curve" smooth="yes"/>
			<point x="252" y="720"/>
			<point x="172" y="641"/>
			<point x="172" y="543" type="curve" smooth="yes"/>
			<point x="172" y="444"/>
			<point x="252" y="364"/>
		</contour>
		<contour>
			<point x="353" y="389" type="curve" smooth="yes"/>
			<point x="269" y="389"/>
			<point x="203" y="457"/>
			<point x="203" y="543" type="curve" smooth="yes"/>
			<point x="203" y="624"/>
			<point x="269" y="693"/>
			<point x="353" y="693" type="curve" smooth="yes"/>
			<point x="433" y="693"/>
			<point x="503" y="624"/>
			<point x="503" y="543" type="curve" smooth="yes"/>
			<point x="503" y="456"/>
			<point x="433" y="389"/>
		</contour>
		<contour>
			<point x="331" y="531" type="line"/>
			<point x="355" y="531" type="line" smooth="yes"/>
			<point x="359" y="531"/>
			<point x="370" y="532"/>
			<point x="370" y="517" type="curve" smooth="yes"/>
			<point x="370" y="493" type="line" smooth="yes"/>
			<point x="370" y="476"/>
			<point x="378" y="460"/>
			<point x="404" y="460" type="curve" smooth="yes"/>
			<point x="420" y="460"/>
			<point x="427" y="470"/>
			<point x="434" y="482" type="curve" smooth="yes"/>
			<point x="440" y="492"/>
			<point x="438" y="498"/>
			<point x="433" y="500" type="curve" smooth="yes"/>
			<point x="427" y="502"/>
			<point x="424" y="498"/>
			<point x="422" y="494" type="curve" smooth="yes"/>
			<point x="417" y="484"/>
			<point x="412" y="476"/>
			<point x="405" y="476" type="curve" smooth="yes"/>
			<point x="397" y="476"/>
			<point x="397" y="489"/>
			<point x="397" y="500" type="curve" smooth="yes"/>
			<point x="397" y="517" type="line" smooth="yes"/>
			<point x="397" y="529"/>
			<point x="393" y="534"/>
			<point x="382" y="538" type="curve"/>
			<point x="402" y="538"/>
			<point x="418" y="555"/>
			<point x="418" y="580" type="curve" smooth="yes"/>
			<point x="418" y="610"/>
			<point x="396" y="629"/>
			<point x="370" y="629" type="curve" smooth="yes"/>
			<point x="291" y="629" type="line" smooth="yes"/>
			<point x="288" y="629"/>
			<point x="282" y="629"/>
			<point x="282" y="621" type="curve" smooth="yes"/>
			<point x="282" y="615"/>
			<point x="287" y="614"/>
			<point x="291" y="613" type="curve" smooth="yes"/>
			<point x="304" y="611" type="line"/>
			<point x="304" y="473" type="line"/>
			<point x="291" y="473" type="line" smooth="yes"/>
			<point x="285" y="473"/>
			<point x="283" y="469"/>
			<point x="283" y="466" type="curve" smooth="yes"/>
			<point x="283" y="463"/>
			<point x="285" y="459"/>
			<point x="291" y="459" type="curve" smooth="yes"/>
			<point x="345" y="459" type="line" smooth="yes"/>
			<point x="351" y="459"/>
			<point x="353" y="463"/>
			<point x="353" y="466" type="curve" smooth="yes"/>
			<point x="353" y="469"/>
			<point x="351" y="473"/>
			<point x="345" y="473" type="curve" smooth="yes"/>
			<point x="331" y="473" type="line"/>
		</contour>
	</outline>
</glyph>
<glyph name="degree" format="2">
	<advance width="700"/>
	<unicode hex="00B0"/>
	<outline>
		<contour>
			<point x="353" y="506" type="curve" smooth="yes"/>
			<point x="412" y="506"/>
			<point x="459" y="554"/>
			<point x="459" y="614" type="curve" smooth="yes"/>
			<point x="459" y="673"/>
			<point x="412" y="720"/>
			<point x="353" y="720" type="curve" smooth="yes"/>
			<point x="292" y="720"/>
			<point x="244" y="673"/>
			<point x="244" y="614" type="curve" smooth="yes"/>
			<point x="244" y="554"/>
			<point x="292" y="506"/>
		</contour>
		<contour>
			<point x="353" y="530" type="curve" smooth="yes"/>
			<point x="308" y="530"/>
			<point x="272" y="568"/>
			<point x="272" y="614" type="curve" smooth="yes"/>
			<point x="272" y="658"/>
			<point x="308" y="694"/>
			<point x="353" y="694" type="curve" smooth="yes"/>
			<point x="396" y="694"/>
			<point x="434" y="658"/>
			<point x="434" y="614" type="curve" smooth="yes"/>
			<point x="434" y="567"/>
			<point x="396" y="530"/>
		</contour>
	</outline>
</glyph>
<glyph name="periodcentered" format="2">
	<advance width="700"/>
	<unicode hex="00B7"/>
	<outline>
		<contour>
			<point x="348" y="355" type="curve" smooth="yes"/>
			<point x="320" y="355"/>
			<point x="297" y="331"/>
			<point x="297" y="301" type="curve" smooth="yes"/>
			<point x="298" y="271"/>
			<point x="322" y="249"/>
			<point x="350" y="249" type="curve" smooth="yes"/>
			<point x="379" y="250"/>
			<point x="403" y="273"/>
			<point x="402" y="303" type="curve" smooth="yes"/>
			<point x="402" y="333"/>
			<point x="377" y="356"/>
		</contour>
	</outline>
</glyph>
<glyph name="guillemetright" format="2">
	<advance width="700"/>
	<unicode hex="00BB"/>
	<outline>
		<contour>
			<point x="354" y="228" type="line" smooth="yes"/>
			<point x="376" y="247"/>
			<point x="381" y="252"/>
			<point x="381" y="261" type="curve" smooth="yes"/>
			<point x="381" y="270"/>
			<point x="374" y="276"/>
			<point x="354" y="294" type="curve" smooth="yes"/>
			<point x="170" y="457" type="line" smooth="yes"/>
			<point x="156" y="470"/>
			<point x="145" y="482"/>
			<point x="132" y="470" type="curve" smooth="yes"/>
			<point x="120" y="459"/>
			<point x="128" y="448"/>
			<point x="140" y="437" type="curve" smooth="yes"/>
			<point x="336" y="261" type="line"/>
			<point x="140" y="85" type="line" smooth="yes"/>
			<point x="127" y="74"/>
			<point x="120" y="63"/>
			<point x="132" y="52" type="curve" smooth="yes"/>
			<point x="145" y="40"/>
			<point x="157" y="53"/>
			<point x="170" y="65" type="curve" smooth="yes"/>
		</contour>
		<contour>
			<point x="519" y="228" type="line" smooth="yes"/>
			<point x="541" y="247"/>
			<point x="546" y="252"/>
			<point x="546" y="261" type="curve" smooth="yes"/>
			<point x="546" y="270"/>
			<point x="539" y="276"/>
			<point x="519" y="294" type="curve" smooth="yes"/>
			<point x="335" y="457" type="line" smooth="yes"/>
			<point x="321" y="470"/>
			<point x="310" y="482"/>
			<point x="297" y="470" type="curve" smooth="yes"/>
			<point x="285" y="459"/>
			<point x="293" y="448"/>
			<point x="305" y="437" type="curve" smooth="yes"/>
			<point x="501" y="261" type="line"/>
			<point x="305" y="85" type="line" smooth="yes"/>
			<point x="292" y="74"/>
			<point x="285" y="63"/>
			<point x="297" y="52" type="curve" smooth="yes"/>
			<point x="310" y="40"/>
			<point x="322" y="53"/>
			<point x="335" y="65" type="curve" smooth="yes"/>
		</contour>
	</outline>
</glyph>
<glyph name="onequarter" format="2">
	<advance width="700"/>
	<unicode hex="00BC"/>
	<outline>
		<contour>
			<point x="383" y="780" type="line" smooth="yes"/>
			<point x="383" y="789"/>
			<point x="377" y="795"/>
			<point x="368" y="796" type="curve" smooth="yes"/>
			<point x="356" y="797"/>
			<point x="347" y="777"/>
			<point x="276" y="727" type="curve" smooth="yes"/>
			<point x="210" y="681" type="line" smooth="yes"/>
			<point x="202" y="675"/>
			<point x="197" y="667"/>
			<point x="204" y="657" type="curve" smooth="yes"/>
			<point x="209" y="650"/>
			<point x="217" y="652"/>
			<point x="224" y="657" type="curve" smooth="yes"/>
			<point x="245" y="672"/>
			<point x="305" y="708"/>
			<point x="327" y="726" type="curve"/>
			<point x="327" y="398" type="line"/>
			<point x="327" y="389"/>
			<point x="333" y="383"/>
			<point x="341" y="383" type="curve"/>
			<point x="369" y="383" type="line" smooth="yes"/>
			<point x="376" y="383"/>
			<point x="383" y="389"/>
			<point x="383" y="398" type="curve"/>
		</contour>
		<contour>
			<point x="178" y="-45" type="curve" smooth="yes"/>
			<point x="179" y="-49"/>
			<point x="183" y="-55"/>
			<point x="196" y="-55" type="curve" smooth="yes"/>
			<point x="355" y="-55" type="line"/>
			<point x="355" y="-179" type="line" smooth="yes"/>
			<point x="355" y="-188"/>
			<point x="361" y="-194"/>
			<point x="369" y="-194" type="curve" smooth="yes"/>
			<point x="398" y="-194" type="line" smooth="yes"/>
			<point x="405" y="-194"/>
			<point x="412" y="-188"/>
			<point x="412" y="-179" type="curve" smooth="yes"/>
			<point x="412" y="-55" type="line"/>
			<point x="470" y="-55" type="line" smooth="yes"/>
			<point x="479" y="-55"/>
			<point x="485" y="-49"/>
			<point x="485" y="-41" type="curve" smooth="yes"/>
			<point x="485" y="-33"/>
			<point x="479" y="-27"/>
			<point x="470" y="-27" type="curve" smooth="yes"/>
			<point x="412" y="-27" type="line"/>
			<point x="412" y="222" type="line" smooth="yes"/>
			<point x="412" y="236"/>
			<point x="413" y="249"/>
			<point x="399" y="252" type="curve" smooth="yes"/>
			<point x="390" y="254"/>
			<point x="382" y="247"/>
			<point x="374" y="238" type="curve"/>
			<point x="190" y="-14" type="line" smooth="yes"/>
			<point x="181" y="-27"/>
			<point x="176" y="-37"/>
		</contour>
		<contour>
			<point x="223" y="-27" type="line"/>
			<point x="355" y="159" type="line"/>
			<point x="355" y="-27" type="line"/>
		</contour>
		<contour>
			<point x="573" y="326" type="curve" smooth="yes"/>
			<point x="129" y="326" type="line" smooth="yes"/>
			<point x="118" y="326"/>
			<point x="111" y="320"/>
			<point x="111" y="311" type="curve" smooth="yes"/>
			<point x="111" y="302"/>
			<point x="118" y="296"/>
			<point x="129" y="296" type="curve" smooth="yes"/>
			<point x="573" y="296" type="line" smooth="yes"/>
			<point x="584" y="296"/>
			<point x="590" y="302"/>
			<point x="590" y="311" type="curve" smooth="yes"/>
			<point x="590" y="320"/>
			<point x="584" y="326"/>
		</contour>
	</outline>
</glyph>
<glyph name="onehalf" format="2">
	<advance width="700"/>
	<unicode hex="00BD"/>
	<outline>
		<contour>
			<point x="383" y="780" type="line" smooth="yes"/>
			<point x="383" y="789"/>
			<point x="377" y="795"/>
			<point x="368" y="796" type="curve" smooth="yes"/>
			<point x="356" y="797"/>
			<point x="347" y="777"/>
			<point x="276" y="727" type="curve" smooth="yes"/>
			<point x="210" y="681" type="line" smooth="yes"/>
			<point x="202" y="675"/>
			<point x="197" y="667"/>
			<point x="204" y="657" type="curve" smooth="yes"/>
			<point x="209" y="650"/>
			<point x="217" y="652"/>
			<point x="224" y="657" type="curve" smooth="yes"/>
			<point x="245" y="672"/>
			<point x="305" y="708"/>
			<point x="327" y="726" type="curve"/>
			<point x="327" y="398" type="line"/>
			<point x="327" y="389"/>
			<point x="333" y="383"/>
			<point x="341" y="383" type="curve"/>
			<point x="369" y="383" type="line" smooth="yes"/>
			<point x="376" y="383"/>
			<point x="383" y="389"/>
			<point x="383" y="398" type="curve"/>
		</contour>
		<contour>
			<point x="485" y="-145" type="curve" smooth="yes"/>
			<point x="489" y="-95" type="line" smooth="yes"/>
			<point x="490" y="-85"/>
			<point x="487" y="-79"/>
			<point x="478" y="-79" type="curve" smooth="yes"/>
			<point x="470" y="-79"/>
			<point x="468" y="-85"/>
			<point x="464" y="-95" type="curve" smooth="yes"/>
			<point x="459" y="-109" type="line"/>
			<point x="270" y="-109" type="line"/>
			<point x="270" y="-68"/>
			<point x="342" y="-18"/>
			<point x="410" y="28" type="curve" smooth="yes"/>
			<point x="476" y="73"/>
			<point x="484" y="112"/>
			<point x="484" y="150" type="curve" smooth="yes"/>
			<point x="484" y="197"/>
			<point x="451" y="252"/>
			<point x="364" y="252" type="curve" smooth="yes"/>
			<point x="314" y="252"/>
			<point x="277" y="227"/>
			<point x="262" y="211" type="curve" smooth="yes"/>
			<point x="240" y="188"/>
			<point x="213" y="154"/>
			<point x="231" y="143" type="curve" smooth="yes"/>
			<point x="236" y="140"/>
			<point x="247" y="138"/>
			<point x="254" y="149" type="curve" smooth="yes"/>
			<point x="276" y="183"/>
			<point x="303" y="219"/>
			<point x="354" y="219" type="curve" smooth="yes"/>
			<point x="414" y="219"/>
			<point x="422" y="166"/>
			<point x="421" y="145" type="curve" smooth="yes"/>
			<point x="419" y="98"/>
			<point x="388" y="59"/>
			<point x="328" y="12" type="curve" smooth="yes"/>
			<point x="241" y="-56"/>
			<point x="217" y="-115"/>
			<point x="217" y="-141" type="curve" smooth="yes"/>
			<point x="217" y="-143" type="line" smooth="yes"/>
			<point x="217" y="-157"/>
			<point x="226" y="-160"/>
			<point x="240" y="-160" type="curve" smooth="yes"/>
			<point x="469" y="-160" type="line" smooth="yes"/>
			<point x="478" y="-160"/>
			<point x="484" y="-154"/>
		</contour>
		<contour>
			<point x="573" y="326" type="curve" smooth="yes"/>
			<point x="129" y="326" type="line" smooth="yes"/>
			<point x="118" y="326"/>
			<point x="111" y="320"/>
			<point x="111" y="311" type="curve" smooth="yes"/>
			<point x="111" y="302"/>
			<point x="118" y="296"/>
			<point x="129" y="296" type="curve" smooth="yes"/>
			<point x="573" y="296" type="line" smooth="yes"/>
			<point x="584" y="296"/>
			<point x="590" y="302"/>
			<point x="590" y="311" type="curve" smooth="yes"/>
			<point x="590" y="320"/>
			<point x="584" y="326"/>
		</contour>
	</outline>
</glyph>
<glyph name="threequarters" format="2">
	<advance width="700"/>
	<unicode hex="00BE"/>
	<outline>
		<contour>
			<point x="405" y="717" type="curve" smooth="yes"/>
			<point x="405" y="666"/>
			<point x="347" y="637"/>
			<point x="338" y="632" type="curve" smooth="yes"/>
			<point x="330" y="627"/>
			<point x="320" y="622"/>
			<point x="322" y="612" type="curve" smooth="yes"/>
			<point x="324" y="602"/>
			<point x="334" y="600"/>
			<point x="344" y="602" type="curve" smooth="yes"/>
			<point x="414" y="616"/>
			<point x="440" y="570"/>
			<point x="434" y="523" type="curve" smooth="yes"/>
			<point x="424" y="447"/>
			<point x="364" y="395"/>
			<point x="269" y="390" type="curve" smooth="yes"/>
			<point x="250" y="389"/>
			<point x="235" y="392"/>
			<point x="235" y="377" type="curve" smooth="yes"/>
			<point x="235" y="367"/>
			<point x="252" y="365"/>
			<point x="262" y="365" type="curve" smooth="yes"/>
			<point x="414" y="365"/>
			<point x="523" y="459"/>
			<point x="491" y="571" type="curve" smooth="yes"/>
			<point x="475" y="627"/>
			<point x="413" y="636"/>
			<point x="401" y="633" type="curve"/>
			<point x="430" y="642"/>
			<point x="470" y="687"/>
			<point x="464" y="742" type="curve" smooth="yes"/>
			<point x="459" y="785"/>
			<point x="414" y="811"/>
			<point x="360" y="811" type="curve" smooth="yes"/>
			<point x="305" y="811"/>
			<point x="275" y="785"/>
			<point x="259" y="770" type="curve" smooth="yes"/>
			<point x="242" y="754"/>
			<point x="233" y="735"/>
			<point x="245" y="728" type="curve" smooth="yes"/>
			<point x="250" y="725"/>
			<point x="260" y="723"/>
			<point x="269" y="735" type="curve" smooth="yes"/>
			<point x="323" y="807"/>
			<point x="405" y="780"/>
		</contour>
		<contour>
			<point x="178" y="-45" type="curve" smooth="yes"/>
			<point x="179" y="-49"/>
			<point x="183" y="-55"/>
			<point x="196" y="-55" type="curve" smooth="yes"/>
			<point x="355" y="-55" type="line"/>
			<point x="355" y="-179" type="line" smooth="yes"/>
			<point x="355" y="-188"/>
			<point x="361" y="-194"/>
			<point x="369" y="-194" type="curve" smooth="yes"/>
			<point x="398" y="-194" type="line" smooth="yes"/>
			<point x="405" y="-194"/>
			<point x="412" y="-188"/>
			<point x="412" y="-179" type="curve" smooth="yes"/>
			<point x="412" y="-55" type="line"/>
			<point x="470" y="-55" type="line" smooth="yes"/>
			<point x="479" y="-55"/>
			<point x="485" y="-49"/>
			<point x="485" y="-41" type="curve" smooth="yes"/>
			<point x="485" y="-33"/>
			<point x="479" y="-27"/>
			<point x="470" y="-27" type="curve" smooth="yes"/>
			<point x="412" y="-27" type="line"/>
			<point x="412" y="222" type="line" smooth="yes"/>
			<point x="412" y="236"/>
			<point x="413" y="249"/>
			<point x="399" y="252" type="curve" smooth="yes"/>
			<point x="390" y="254"/>
			<point x="382" y="247"/>
			<point x="374" y="238" type="curve"/>
			<point x="190" y="-14" type="line" smooth="yes"/>
			<point x="181" y="-27"/>
			<point x="176" y="-37"/>
		</contour>
		<contour>
			<point x="223" y="-27" type="line"/>
			<point x="355" y="159" type="line"/>
			<point x="355" y="-27" type="line"/>
		</contour>
		<contour>
			<point x="573" y="326" type="curve" smooth="yes"/>
			<point x="129" y="326" type="line" smooth="yes"/>
			<point x="118" y="326"/>
			<point x="111" y="320"/>
			<point x="111" y="311" type="curve" smooth="yes"/>
			<point x="111" y="302"/>
			<point x="118" y="296"/>
			<point x="129" y="296" type="curve" smooth="yes"/>
			<point x="573" y="296" type="line" smooth="yes"/>
			<point x="584" y="296"/>
			<point x="590" y="302"/>
			<point x="590" y="311" type="curve" smooth="yes"/>
			<point x="590" y="320"/>
			<point x="584" y="326"/>
		</contour>
	</outline>
</glyph>
<glyph name="questiondown" format="2">
	<advance width="700"/>
	<unicode hex="00BF"/>
	<outline>
		<contour>
			<point x="339" y="452" type="curve" smooth="yes"/>
			<point x="366" y="452"/>
			<point x="389" y="475"/>
			<point x="388" y="504" type="curve" smooth="yes"/>
			<point x="387" y="533"/>
			<point x="364" y="555"/>
			<point x="337" y="554" type="curve" smooth="yes"/>
			<point x="309" y="553"/>
			<point x="287" y="531"/>
			<point x="287" y="502" type="curve" smooth="yes"/>
			<point x="287" y="473"/>
			<point x="311" y="452"/>
		</contour>
		<contour>
			<point x="339" y="346" type="curve" smooth="yes"/>
			<point x="343" y="346"/>
			<point x="354" y="345"/>
			<point x="354" y="330" type="curve" smooth="yes"/>
			<point x="356" y="250" type="line" smooth="yes"/>
			<point x="357" y="196"/>
			<point x="336" y="175"/>
			<point x="305" y="140" type="curve" smooth="yes"/>
			<point x="255" y="83"/>
			<point x="231" y="32"/>
			<point x="232" y="-27" type="curve" smooth="yes"/>
			<point x="234" y="-110"/>
			<point x="281" y="-147"/>
			<point x="356" y="-145" type="curve" smooth="yes"/>
			<point x="440" y="-144"/>
			<point x="494" y="-86"/>
			<point x="500" y="-59" type="curve"/>
			<point x="457" y="-54"/>
			<point x="450" y="-30"/>
			<point x="447" y="-16" type="curve" smooth="yes"/>
			<point x="445" y="1"/>
			<point x="445" y="36"/>
			<point x="484" y="46" type="curve" smooth="yes"/>
			<point x="520" y="54"/>
			<point x="542" y="27"/>
			<point x="548" y="7" type="curve" smooth="yes"/>
			<point x="571" y="-65"/>
			<point x="490" y="-173"/>
			<point x="355" y="-175" type="curve" smooth="yes"/>
			<point x="252" y="-177"/>
			<point x="156" y="-126"/>
			<point x="154" y="-28" type="curve" smooth="yes"/>
			<point x="153" y="75"/>
			<point x="220" y="102"/>
			<point x="289" y="168" type="curve" smooth="yes"/>
			<point x="324" y="202"/>
			<point x="326" y="228"/>
			<point x="325" y="309" type="curve" smooth="yes"/>
			<point x="324" y="328" type="line" smooth="yes"/>
			<point x="324" y="344"/>
			<point x="335" y="346"/>
		</contour>
	</outline>
</glyph>
<glyph name="Agrave" format="2">
	<advance width="700"/>
	<unicode hex="00C0"/>
	<outline>
		<contour>
			<point x="172" y="990" type="line" smooth="yes"/>
			<point x="149" y="990"/>
			<point x="145" y="981"/>
			<point x="163" y="963" type="curve" smooth="yes"/>
			<point x="340" y="791" type="line" smooth="yes"/>
			<point x="351" y="781"/>
			<point x="359" y="778"/>
			<point x="365" y="783" type="curve" smooth="yes"/>
			<point x="373" y="789"/>
			<point x="367" y="800"/>
			<point x="361" y="809" type="curve" smooth="yes"/>
			<point x="247" y="972" type="line" smooth="yes"/>
			<point x="236" y="987"/>
			<point x="233" y="990"/>
			<point x="212" y="990" type="curve" smooth="yes"/>
		</contour>
		<contour>
			<point x="351" y="730" type="curve" smooth="yes"/>
			<point x="343" y="730"/>
			<point x="340" y="725"/>
			<point x="336" y="712" type="curve" smooth="yes"/>
			<point x="119" y="30" type="line"/>
			<point x="51" y="30" type="line" smooth="yes"/>
			<point x="40" y="30"/>
			<point x="33" y="24"/>
			<point x="33" y="15" type="curve" smooth="yes"/>
			<point x="33" y="6"/>
			<point x="40" y="0"/>
			<point x="51" y="0" type="curve" smooth="yes"/>
			<point x="237" y="0" type="line" smooth="yes"/>
			<point x="248" y="0"/>
			<point x="254" y="6"/>
			<point x="254" y="15" type="curve" smooth="yes"/>
			<point x="254" y="24"/>
			<point x="248" y="30"/>
			<point x="237" y="30" type="curve" smooth="yes"/>
			<point x="153" y="30" type="line"/>
			<point x="213" y="216" type="line"/>
			<point x="444" y="216" type="line"/>
			<point x="503" y="30" type="line"/>
			<point x="423" y="30" type="line" smooth="yes"/>
			<point x="412" y="30"/>
			<point x="405" y="24"/>
			<point x="405" y="15" type="curve" smooth="yes"/>
			<point x="405" y="6"/>
			<point x="412" y="0"/>
			<point x="423" y="0" type="curve" smooth="yes"/>
			<point x="650" y="0" type="line" smooth="yes"/>
			<point x="661" y="0"/>
			<point x="667" y="6"/>
			<point x="667" y="15" type="curve" smooth="yes"/>
			<point x="667" y="24"/>
			<point x="661" y="30"/>
			<point x="650" y="30" type="curve" smooth="yes"/>
			<point x="592" y="30" type="line"/>
			<point x="366" y="712" type="line" smooth="yes"/>
			<point x="362" y="725"/>
			<point x="359" y="730"/>
		</contour>
		<contour>
			<point x="222" y="246" type="line"/>
			<point x="330" y="579" type="line"/>
			<point x="435" y="246" type="line"/>
		</contour>
	</outline>
</glyph>
<glyph name="Aacute" format="2">
	<advance width="700"/>
	<unicode hex="00C1"/>
	<outline>
		<contour>
			<point x="539" y="990" type="curve" smooth="yes"/>
			<point x="499" y="990" type="line" smooth="yes"/>
			<point x="478" y="990"/>
			<point x="475" y="987"/>
			<point x="464" y="972" type="curve" smooth="yes"/>
			<point x="350" y="809" type="line" smooth="yes"/>
			<point x="344" y="800"/>
			<point x="338" y="789"/>
			<point x="346" y="783" type="curve" smooth="yes"/>
			<point x="352" y="778"/>
			<point x="360" y="781"/>
			<point x="371" y="791" type="curve" smooth="yes"/>
			<point x="548" y="963" type="line" smooth="yes"/>
			<point x="566" y="981"/>
			<point x="562" y="990"/>
		</contour>
		<contour>
			<point x="351" y="730" type="curve" smooth="yes"/>
			<point x="343" y="730"/>
			<point x="340" y="725"/>
			<point x="336" y="712" type="curve" smooth="yes"/>
			<point x="119" y="30" type="line"/>
			<point x="51" y="30" type="line" smooth="yes"/>
			<point x="40" y="30"/>
			<point x="33" y="24"/>
			<point x="33" y="15" type="curve" smooth="yes"/>
			<point x="33" y="6"/>
			<point x="40" y="0"/>
			<point x="51" y="0" type="curve" smooth="yes"/>
			<point x="237" y="0" type="line" smooth="yes"/>
			<point x="248" y="0"/>
			<point x="254" y="6"/>
			<point x="254" y="15" type="curve" smooth="yes"/>
			<point x="254" y="24"/>
			<point x="248" y="30"/>
			<point x="237" y="30" type="curve" smooth="yes"/>
			<point x="153" y="30" type="line"/>
			<point x="213" y="216" type="line"/>
			<point x="444" y="216" type="line"/>
			<point x="503" y="30" type="line"/>
			<point x="423" y="30" type="line" smooth="yes"/>
			<point x="412" y="30"/>
			<point x="405" y="24"/>
			<point x="405" y="15" type="curve" smooth="yes"/>
			<point x="405" y="6"/>
			<point x="412" y="0"/>
			<point x="423" y="0" type="curve" smooth="yes"/>
			<point x="650" y="0" type="line" smooth="yes"/>
			<point x="661" y="0"/>
			<point x="667" y="6"/>
			<point x="667" y="15" type="curve" smooth="yes"/>
			<point x="667" y="24"/>
			<point x="661" y="30"/>
			<point x="650" y="30" type="curve" smooth="yes"/>
			<point x="592" y="30" type="line"/>
			<point x="366" y="712" type="line" smooth="yes"/>
			<point x="362" y="725"/>
			<point x="359" y="730"/>
		</contour>
		<contour>
			<point x="222" y="246" type="line"/>
			<point x="330" y="579" type="line"/>
			<point x="435" y="246" type="line"/>
		</contour>
	</outline>
</glyph>
<glyph name="Acircumflex" format="2">
	<advance width="700"/>
	<unicode hex="00C2"/>
	<outline>
		<contour>
			<point x="159" y="785" type="curve" smooth="yes"/>
			<point x="161" y="781"/>
			<point x="167" y="781"/>
			<point x="191" y="781" type="curve" smooth="yes"/>
			<point x="223" y="781" type="line" smooth="yes"/>
			<point x="243" y="781"/>
			<point x="249" y="780"/>
			<point x="255" y="791" type="curve" smooth="yes"/>
			<point x="351" y="960" type="line"/>
			<point x="448" y="791" type="line" smooth="yes"/>
			<point x="454" y="780"/>
			<point x="460" y="781"/>
			<point x="480" y="781" type="curve" smooth="yes"/>
			<point x="512" y="781" type="line" smooth="yes"/>
			<point x="536" y="781"/>
			<point x="542" y="781"/>
			<point x="544" y="785" type="curve" smooth="yes"/>
			<point x="546" y="789"/>
			<point x="546" y="792"/>
			<point x="533" y="806" type="curve" smooth="yes"/>
			<point x="374" y="979" type="line" smooth="yes"/>
			<point x="368" y="985"/>
			<point x="362" y="990"/>
			<point x="351" y="990" type="curve" smooth="yes"/>
			<point x="341" y="990"/>
			<point x="335" y="985"/>
			<point x="329" y="979" type="curve" smooth="yes"/>
			<point x="170" y="806" type="line" smooth="yes"/>
			<point x="157" y="792"/>
			<point x="157" y="789"/>
		</contour>
		<contour>
			<point x="351" y="730" type="curve" smooth="yes"/>
			<point x="343" y="730"/>
			<point x="340" y="725"/>
			<point x="336" y="712" type="curve" smooth="yes"/>
			<point x="119" y="30" type="line"/>
			<point x="51" y="30" type="line" smooth="yes"/>
			<point x="40" y="30"/>
			<point x="33" y="24"/>
			<point x="33" y="15" type="curve" smooth="yes"/>
			<point x="33" y="6"/>
			<point x="40" y="0"/>
			<point x="51" y="0" type="curve" smooth="yes"/>
			<point x="237" y="0" type="line" smooth="yes"/>
			<point x="248" y="0"/>
			<point x="254" y="6"/>
			<point x="254" y="15" type="curve" smooth="yes"/>
			<point x="254" y="24"/>
			<point x="248" y="30"/>
			<point x="237" y="30" type="curve" smooth="yes"/>
			<point x="153" y="30" type="line"/>
			<point x="213" y="216" type="line"/>
			<point x="444" y="216" type="line"/>
			<point x="503" y="30" type="line"/>
			<point x="423" y="30" type="line" smooth="yes"/>
			<point x="412" y="30"/>
			<point x="405" y="24"/>
			<point x="405" y="15" type="curve" smooth="yes"/>
			<point x="405" y="6"/>
			<point x="412" y="0"/>
			<point x="423" y="0" type="curve" smooth="yes"/>
			<point x="650" y="0" type="line" smooth="yes"/>
			<point x="661" y="0"/>
			<point x="667" y="6"/>
			<point x="667" y="15" type="curve" smooth="yes"/>
			<point x="667" y="24"/>
			<point x="661" y="30"/>
			<point x="650" y="30" type="curve" smooth="yes"/>
			<point x="592" y="30" type="line"/>
			<point x="366" y="712" type="line" smooth="yes"/>
			<point x="362" y="725"/>
			<point x="359" y="730"/>
		</contour>
		<contour>
			<point x="222" y="246" type="line"/>
			<point x="330" y="579" type="line"/>
			<point x="435" y="246" type="line"/>
		</contour>
	</outline>
</glyph>
